<?xml version="1.0" encoding="utf-8" standalone="no"?>
<!DOCTYPE svg PUBLIC "-//W3C//DTD SVG 1.1//EN"
  "http://www.w3.org/Graphics/SVG/1.1/DTD/svg11.dtd">
<svg xmlns:xlink="http://www.w3.org/1999/xlink" width="434.304pt" height="332.316pt" viewBox="0 0 434.304 332.316" xmlns="http://www.w3.org/2000/svg" version="1.1">
 <metadata>
  <rdf:RDF xmlns:dc="http://purl.org/dc/elements/1.1/" xmlns:cc="http://creativecommons.org/ns#" xmlns:rdf="http://www.w3.org/1999/02/22-rdf-syntax-ns#">
   <cc:Work>
    <dc:type rdf:resource="http://purl.org/dc/dcmitype/StillImage"/>
    <dc:date>2026-05-03T21:20:16.310796</dc:date>
    <dc:format>image/svg+xml</dc:format>
    <dc:creator>
     <cc:Agent>
      <dc:title>Matplotlib v3.9.4, https://matplotlib.org/</dc:title>
     </cc:Agent>
    </dc:creator>
   </cc:Work>
  </rdf:RDF>
 </metadata>
 <defs>
  <style type="text/css">*{stroke-linejoin: round; stroke-linecap: butt}</style>
 </defs>
 <g id="figure_1">
  <g id="patch_1">
   <path d="M 0 332.316
L 434.304 332.316
L 434.304 0
L 0 0
z
" style="fill: #ffffff"/>
  </g>
  <g id="axes_1">
   <g id="patch_2">
    <path d="M 10.593792 323.557992
L 423.710208 323.557992
L 423.710208 8.758008
L 10.593792 8.758008
z
" clip-path="url(#p318fc7fb7c)" style="fill: #ffffff; stroke: #c9d3de; stroke-linejoin: miter"/>
   </g>
   <g id="patch_3">
    <path d="M 10.593792 37.16838
L 423.710208 37.16838
L 423.710208 8.758008
L 10.593792 8.758008
z
" clip-path="url(#p318fc7fb7c)" style="fill: #f1f6fa"/>
   </g>
   <g id="patch_4">
    <path d="M 140.4008 124.302528
Q 125.013261 123.726058 111.134009 124.246142
" clip-path="url(#p318fc7fb7c)" style="fill: none; opacity: 0.88; stroke: #c89b3c; stroke-width: 1.35; stroke-linecap: round"/>
    <path d="M 115.206095 126.094957
L 111.134009 124.246142
L 115.056312 122.097762
z
" clip-path="url(#p318fc7fb7c)" style="fill: #c89b3c; opacity: 0.88; stroke: #c89b3c; stroke-width: 1.35; stroke-linecap: round"/>
   </g>
   <g id="patch_5">
    <path d="M 171.4726 160.851266
Q 170.460855 182.485868 171.402098 202.612773
" clip-path="url(#p318fc7fb7c)" style="fill: none; opacity: 0.88; stroke: #e5ae38; stroke-width: 1.35; stroke-linecap: round"/>
    <path d="M 173.213057 198.523711
L 171.402098 202.612773
L 169.217424 198.710569
z
" clip-path="url(#p318fc7fb7c)" style="fill: #e5ae38; opacity: 0.88; stroke: #e5ae38; stroke-width: 1.35; stroke-linecap: round"/>
   </g>
   <g id="patch_6">
    <path d="M 208.186684 129.698003
Q 225.723793 130.415628 241.752818 129.759646
" clip-path="url(#p318fc7fb7c)" style="fill: none; opacity: 0.88; stroke: #d99000; stroke-width: 1.35; stroke-linecap: round"/>
    <path d="M 237.674382 127.92488
L 241.752818 129.759646
L 237.837944 131.921535
z
" clip-path="url(#p318fc7fb7c)" style="fill: #d99000; opacity: 0.88; stroke: #d99000; stroke-width: 1.35; stroke-linecap: round"/>
   </g>
   <g id="patch_7">
    <path d="M 311.04496 129.640032
Q 326.432499 130.216502 340.311751 129.696418
" clip-path="url(#p318fc7fb7c)" style="fill: none; opacity: 0.88; stroke: #8e63b7; stroke-width: 1.35; stroke-linecap: round"/>
    <path d="M 336.239665 127.847603
L 340.311751 129.696418
L 336.389448 131.844798
z
" clip-path="url(#p318fc7fb7c)" style="fill: #8e63b7; opacity: 0.88; stroke: #8e63b7; stroke-width: 1.35; stroke-linecap: round"/>
   </g>
   <g id="text_1">
    <!-- g -->
    <g style="fill: #23527c" transform="translate(20.02176 20.25627) scale(0.1 -0.1)">
     <defs>
      <path id="DejaVuSans-Bold-67" d="M 2919 594
Q 2688 288 2409 144
Q 2131 0 1766 0
Q 1125 0 706 504
Q 288 1009 288 1791
Q 288 2575 706 3076
Q 1125 3578 1766 3578
Q 2131 3578 2409 3434
Q 2688 3291 2919 2981
L 2919 3500
L 4044 3500
L 4044 353
Q 4044 -491 3511 -936
Q 2978 -1381 1966 -1381
Q 1638 -1381 1331 -1331
Q 1025 -1281 716 -1178
L 716 -306
Q 1009 -475 1290 -558
Q 1572 -641 1856 -641
Q 2406 -641 2662 -400
Q 2919 -159 2919 353
L 2919 594
z
M 2181 2772
Q 1834 2772 1640 2515
Q 1447 2259 1447 1791
Q 1447 1309 1634 1061
Q 1822 813 2181 813
Q 2531 813 2725 1069
Q 2919 1325 2919 1791
Q 2919 2259 2725 2515
Q 2531 2772 2181 2772
z
" transform="scale(0.015625)"/>
     </defs>
     <use xlink:href="#DejaVuSans-Bold-67"/>
    </g>
   </g>
   <g id="text_2">
    <!-- Multi-hop query path -->
    <g style="fill: #1c2733" transform="translate(43.59168 19.887167) scale(0.097 -0.097)">
     <defs>
      <path id="DejaVuSans-Bold-4d" d="M 588 4666
L 2119 4666
L 3181 2169
L 4250 4666
L 5778 4666
L 5778 0
L 4641 0
L 4641 3413
L 3566 897
L 2803 897
L 1728 3413
L 1728 0
L 588 0
L 588 4666
z
" transform="scale(0.015625)"/>
      <path id="DejaVuSans-Bold-75" d="M 500 1363
L 500 3500
L 1625 3500
L 1625 3150
Q 1625 2866 1622 2436
Q 1619 2006 1619 1863
Q 1619 1441 1641 1255
Q 1663 1069 1716 984
Q 1784 875 1895 815
Q 2006 756 2150 756
Q 2500 756 2700 1025
Q 2900 1294 2900 1772
L 2900 3500
L 4019 3500
L 4019 0
L 2900 0
L 2900 506
Q 2647 200 2364 54
Q 2081 -91 1741 -91
Q 1134 -91 817 281
Q 500 653 500 1363
z
" transform="scale(0.015625)"/>
      <path id="DejaVuSans-Bold-6c" d="M 538 4863
L 1656 4863
L 1656 0
L 538 0
L 538 4863
z
" transform="scale(0.015625)"/>
      <path id="DejaVuSans-Bold-74" d="M 1759 4494
L 1759 3500
L 2913 3500
L 2913 2700
L 1759 2700
L 1759 1216
Q 1759 972 1856 886
Q 1953 800 2241 800
L 2816 800
L 2816 0
L 1856 0
Q 1194 0 917 276
Q 641 553 641 1216
L 641 2700
L 84 2700
L 84 3500
L 641 3500
L 641 4494
L 1759 4494
z
" transform="scale(0.015625)"/>
      <path id="DejaVuSans-Bold-69" d="M 538 3500
L 1656 3500
L 1656 0
L 538 0
L 538 3500
z
M 538 4863
L 1656 4863
L 1656 3950
L 538 3950
L 538 4863
z
" transform="scale(0.015625)"/>
      <path id="DejaVuSans-Bold-2d" d="M 347 2297
L 2309 2297
L 2309 1388
L 347 1388
L 347 2297
z
" transform="scale(0.015625)"/>
      <path id="DejaVuSans-Bold-68" d="M 4056 2131
L 4056 0
L 2931 0
L 2931 347
L 2931 1625
Q 2931 2084 2911 2256
Q 2891 2428 2841 2509
Q 2775 2619 2662 2680
Q 2550 2741 2406 2741
Q 2056 2741 1856 2470
Q 1656 2200 1656 1722
L 1656 0
L 538 0
L 538 4863
L 1656 4863
L 1656 2988
Q 1909 3294 2193 3439
Q 2478 3584 2822 3584
Q 3428 3584 3742 3212
Q 4056 2841 4056 2131
z
" transform="scale(0.015625)"/>
      <path id="DejaVuSans-Bold-6f" d="M 2203 2784
Q 1831 2784 1636 2517
Q 1441 2250 1441 1747
Q 1441 1244 1636 976
Q 1831 709 2203 709
Q 2569 709 2762 976
Q 2956 1244 2956 1747
Q 2956 2250 2762 2517
Q 2569 2784 2203 2784
z
M 2203 3584
Q 3106 3584 3614 3096
Q 4122 2609 4122 1747
Q 4122 884 3614 396
Q 3106 -91 2203 -91
Q 1297 -91 786 396
Q 275 884 275 1747
Q 275 2609 786 3096
Q 1297 3584 2203 3584
z
" transform="scale(0.015625)"/>
      <path id="DejaVuSans-Bold-70" d="M 1656 506
L 1656 -1331
L 538 -1331
L 538 3500
L 1656 3500
L 1656 2988
Q 1888 3294 2169 3439
Q 2450 3584 2816 3584
Q 3463 3584 3878 3070
Q 4294 2556 4294 1747
Q 4294 938 3878 423
Q 3463 -91 2816 -91
Q 2450 -91 2169 54
Q 1888 200 1656 506
z
M 2400 2772
Q 2041 2772 1848 2508
Q 1656 2244 1656 1747
Q 1656 1250 1848 986
Q 2041 722 2400 722
Q 2759 722 2948 984
Q 3138 1247 3138 1747
Q 3138 2247 2948 2509
Q 2759 2772 2400 2772
z
" transform="scale(0.015625)"/>
      <path id="DejaVuSans-Bold-20" transform="scale(0.015625)"/>
      <path id="DejaVuSans-Bold-71" d="M 2181 2772
Q 1825 2772 1636 2509
Q 1447 2247 1447 1747
Q 1447 1247 1636 984
Q 1825 722 2181 722
Q 2541 722 2730 984
Q 2919 1247 2919 1747
Q 2919 2247 2730 2509
Q 2541 2772 2181 2772
z
M 2919 506
Q 2688 197 2409 53
Q 2131 -91 1766 -91
Q 1119 -91 703 423
Q 288 938 288 1747
Q 288 2556 703 3067
Q 1119 3578 1766 3578
Q 2131 3578 2409 3434
Q 2688 3291 2919 2981
L 2919 3500
L 4044 3500
L 4044 -1331
L 2919 -1331
L 2919 506
z
" transform="scale(0.015625)"/>
      <path id="DejaVuSans-Bold-65" d="M 4031 1759
L 4031 1441
L 1416 1441
Q 1456 1047 1700 850
Q 1944 653 2381 653
Q 2734 653 3104 758
Q 3475 863 3866 1075
L 3866 213
Q 3469 63 3072 -14
Q 2675 -91 2278 -91
Q 1328 -91 801 392
Q 275 875 275 1747
Q 275 2603 792 3093
Q 1309 3584 2216 3584
Q 3041 3584 3536 3087
Q 4031 2591 4031 1759
z
M 2881 2131
Q 2881 2450 2695 2645
Q 2509 2841 2209 2841
Q 1884 2841 1681 2658
Q 1478 2475 1428 2131
L 2881 2131
z
" transform="scale(0.015625)"/>
      <path id="DejaVuSans-Bold-72" d="M 3138 2547
Q 2991 2616 2845 2648
Q 2700 2681 2553 2681
Q 2122 2681 1889 2404
Q 1656 2128 1656 1613
L 1656 0
L 538 0
L 538 3500
L 1656 3500
L 1656 2925
Q 1872 3269 2151 3426
Q 2431 3584 2822 3584
Q 2878 3584 2943 3579
Q 3009 3575 3134 3559
L 3138 2547
z
" transform="scale(0.015625)"/>
      <path id="DejaVuSans-Bold-79" d="M 78 3500
L 1197 3500
L 2138 1125
L 2938 3500
L 4056 3500
L 2584 -331
Q 2363 -916 2067 -1148
Q 1772 -1381 1288 -1381
L 641 -1381
L 641 -647
L 991 -647
Q 1275 -647 1404 -556
Q 1534 -466 1606 -231
L 1638 -134
L 78 3500
z
" transform="scale(0.015625)"/>
      <path id="DejaVuSans-Bold-61" d="M 2106 1575
Q 1756 1575 1579 1456
Q 1403 1338 1403 1106
Q 1403 894 1545 773
Q 1688 653 1941 653
Q 2256 653 2472 879
Q 2688 1106 2688 1447
L 2688 1575
L 2106 1575
z
M 3816 1997
L 3816 0
L 2688 0
L 2688 519
Q 2463 200 2181 54
Q 1900 -91 1497 -91
Q 953 -91 614 226
Q 275 544 275 1050
Q 275 1666 698 1953
Q 1122 2241 2028 2241
L 2688 2241
L 2688 2328
Q 2688 2594 2478 2717
Q 2269 2841 1825 2841
Q 1466 2841 1156 2769
Q 847 2697 581 2553
L 581 3406
Q 941 3494 1303 3539
Q 1666 3584 2028 3584
Q 2975 3584 3395 3211
Q 3816 2838 3816 1997
z
" transform="scale(0.015625)"/>
     </defs>
     <use xlink:href="#DejaVuSans-Bold-4d"/>
     <use xlink:href="#DejaVuSans-Bold-75" x="99.511719"/>
     <use xlink:href="#DejaVuSans-Bold-6c" x="170.703125"/>
     <use xlink:href="#DejaVuSans-Bold-74" x="204.980469"/>
     <use xlink:href="#DejaVuSans-Bold-69" x="252.783203"/>
     <use xlink:href="#DejaVuSans-Bold-2d" x="287.060547"/>
     <use xlink:href="#DejaVuSans-Bold-68" x="328.564453"/>
     <use xlink:href="#DejaVuSans-Bold-6f" x="399.755859"/>
     <use xlink:href="#DejaVuSans-Bold-70" x="468.457031"/>
     <use xlink:href="#DejaVuSans-Bold-20" x="540.039062"/>
     <use xlink:href="#DejaVuSans-Bold-71" x="574.853516"/>
     <use xlink:href="#DejaVuSans-Bold-75" x="646.435547"/>
     <use xlink:href="#DejaVuSans-Bold-65" x="717.626953"/>
     <use xlink:href="#DejaVuSans-Bold-72" x="785.449219"/>
     <use xlink:href="#DejaVuSans-Bold-79" x="834.765625"/>
     <use xlink:href="#DejaVuSans-Bold-20" x="899.951172"/>
     <use xlink:href="#DejaVuSans-Bold-70" x="934.765625"/>
     <use xlink:href="#DejaVuSans-Bold-61" x="1006.347656"/>
     <use xlink:href="#DejaVuSans-Bold-74" x="1073.828125"/>
     <use xlink:href="#DejaVuSans-Bold-68" x="1121.630859"/>
    </g>
   </g>
   <g id="text_3">
    <!-- Traversal turns dataset metadata into a scientific construct path. -->
    <g style="fill: #5c6b7a" transform="translate(43.59168 32.785004) scale(0.066 -0.066)">
     <defs>
      <path id="DejaVuSans-54" d="M -19 4666
L 3928 4666
L 3928 4134
L 2272 4134
L 2272 0
L 1638 0
L 1638 4134
L -19 4134
L -19 4666
z
" transform="scale(0.015625)"/>
      <path id="DejaVuSans-72" d="M 2631 2963
Q 2534 3019 2420 3045
Q 2306 3072 2169 3072
Q 1681 3072 1420 2755
Q 1159 2438 1159 1844
L 1159 0
L 581 0
L 581 3500
L 1159 3500
L 1159 2956
Q 1341 3275 1631 3429
Q 1922 3584 2338 3584
Q 2397 3584 2469 3576
Q 2541 3569 2628 3553
L 2631 2963
z
" transform="scale(0.015625)"/>
      <path id="DejaVuSans-61" d="M 2194 1759
Q 1497 1759 1228 1600
Q 959 1441 959 1056
Q 959 750 1161 570
Q 1363 391 1709 391
Q 2188 391 2477 730
Q 2766 1069 2766 1631
L 2766 1759
L 2194 1759
z
M 3341 1997
L 3341 0
L 2766 0
L 2766 531
Q 2569 213 2275 61
Q 1981 -91 1556 -91
Q 1019 -91 701 211
Q 384 513 384 1019
Q 384 1609 779 1909
Q 1175 2209 1959 2209
L 2766 2209
L 2766 2266
Q 2766 2663 2505 2880
Q 2244 3097 1772 3097
Q 1472 3097 1187 3025
Q 903 2953 641 2809
L 641 3341
Q 956 3463 1253 3523
Q 1550 3584 1831 3584
Q 2591 3584 2966 3190
Q 3341 2797 3341 1997
z
" transform="scale(0.015625)"/>
      <path id="DejaVuSans-76" d="M 191 3500
L 800 3500
L 1894 563
L 2988 3500
L 3597 3500
L 2284 0
L 1503 0
L 191 3500
z
" transform="scale(0.015625)"/>
      <path id="DejaVuSans-65" d="M 3597 1894
L 3597 1613
L 953 1613
Q 991 1019 1311 708
Q 1631 397 2203 397
Q 2534 397 2845 478
Q 3156 559 3463 722
L 3463 178
Q 3153 47 2828 -22
Q 2503 -91 2169 -91
Q 1331 -91 842 396
Q 353 884 353 1716
Q 353 2575 817 3079
Q 1281 3584 2069 3584
Q 2775 3584 3186 3129
Q 3597 2675 3597 1894
z
M 3022 2063
Q 3016 2534 2758 2815
Q 2500 3097 2075 3097
Q 1594 3097 1305 2825
Q 1016 2553 972 2059
L 3022 2063
z
" transform="scale(0.015625)"/>
      <path id="DejaVuSans-73" d="M 2834 3397
L 2834 2853
Q 2591 2978 2328 3040
Q 2066 3103 1784 3103
Q 1356 3103 1142 2972
Q 928 2841 928 2578
Q 928 2378 1081 2264
Q 1234 2150 1697 2047
L 1894 2003
Q 2506 1872 2764 1633
Q 3022 1394 3022 966
Q 3022 478 2636 193
Q 2250 -91 1575 -91
Q 1294 -91 989 -36
Q 684 19 347 128
L 347 722
Q 666 556 975 473
Q 1284 391 1588 391
Q 1994 391 2212 530
Q 2431 669 2431 922
Q 2431 1156 2273 1281
Q 2116 1406 1581 1522
L 1381 1569
Q 847 1681 609 1914
Q 372 2147 372 2553
Q 372 3047 722 3315
Q 1072 3584 1716 3584
Q 2034 3584 2315 3537
Q 2597 3491 2834 3397
z
" transform="scale(0.015625)"/>
      <path id="DejaVuSans-6c" d="M 603 4863
L 1178 4863
L 1178 0
L 603 0
L 603 4863
z
" transform="scale(0.015625)"/>
      <path id="DejaVuSans-20" transform="scale(0.015625)"/>
      <path id="DejaVuSans-74" d="M 1172 4494
L 1172 3500
L 2356 3500
L 2356 3053
L 1172 3053
L 1172 1153
Q 1172 725 1289 603
Q 1406 481 1766 481
L 2356 481
L 2356 0
L 1766 0
Q 1100 0 847 248
Q 594 497 594 1153
L 594 3053
L 172 3053
L 172 3500
L 594 3500
L 594 4494
L 1172 4494
z
" transform="scale(0.015625)"/>
      <path id="DejaVuSans-75" d="M 544 1381
L 544 3500
L 1119 3500
L 1119 1403
Q 1119 906 1312 657
Q 1506 409 1894 409
Q 2359 409 2629 706
Q 2900 1003 2900 1516
L 2900 3500
L 3475 3500
L 3475 0
L 2900 0
L 2900 538
Q 2691 219 2414 64
Q 2138 -91 1772 -91
Q 1169 -91 856 284
Q 544 659 544 1381
z
M 1991 3584
L 1991 3584
z
" transform="scale(0.015625)"/>
      <path id="DejaVuSans-6e" d="M 3513 2113
L 3513 0
L 2938 0
L 2938 2094
Q 2938 2591 2744 2837
Q 2550 3084 2163 3084
Q 1697 3084 1428 2787
Q 1159 2491 1159 1978
L 1159 0
L 581 0
L 581 3500
L 1159 3500
L 1159 2956
Q 1366 3272 1645 3428
Q 1925 3584 2291 3584
Q 2894 3584 3203 3211
Q 3513 2838 3513 2113
z
" transform="scale(0.015625)"/>
      <path id="DejaVuSans-64" d="M 2906 2969
L 2906 4863
L 3481 4863
L 3481 0
L 2906 0
L 2906 525
Q 2725 213 2448 61
Q 2172 -91 1784 -91
Q 1150 -91 751 415
Q 353 922 353 1747
Q 353 2572 751 3078
Q 1150 3584 1784 3584
Q 2172 3584 2448 3432
Q 2725 3281 2906 2969
z
M 947 1747
Q 947 1113 1208 752
Q 1469 391 1925 391
Q 2381 391 2643 752
Q 2906 1113 2906 1747
Q 2906 2381 2643 2742
Q 2381 3103 1925 3103
Q 1469 3103 1208 2742
Q 947 2381 947 1747
z
" transform="scale(0.015625)"/>
      <path id="DejaVuSans-6d" d="M 3328 2828
Q 3544 3216 3844 3400
Q 4144 3584 4550 3584
Q 5097 3584 5394 3201
Q 5691 2819 5691 2113
L 5691 0
L 5113 0
L 5113 2094
Q 5113 2597 4934 2840
Q 4756 3084 4391 3084
Q 3944 3084 3684 2787
Q 3425 2491 3425 1978
L 3425 0
L 2847 0
L 2847 2094
Q 2847 2600 2669 2842
Q 2491 3084 2119 3084
Q 1678 3084 1418 2786
Q 1159 2488 1159 1978
L 1159 0
L 581 0
L 581 3500
L 1159 3500
L 1159 2956
Q 1356 3278 1631 3431
Q 1906 3584 2284 3584
Q 2666 3584 2933 3390
Q 3200 3197 3328 2828
z
" transform="scale(0.015625)"/>
      <path id="DejaVuSans-69" d="M 603 3500
L 1178 3500
L 1178 0
L 603 0
L 603 3500
z
M 603 4863
L 1178 4863
L 1178 4134
L 603 4134
L 603 4863
z
" transform="scale(0.015625)"/>
      <path id="DejaVuSans-6f" d="M 1959 3097
Q 1497 3097 1228 2736
Q 959 2375 959 1747
Q 959 1119 1226 758
Q 1494 397 1959 397
Q 2419 397 2687 759
Q 2956 1122 2956 1747
Q 2956 2369 2687 2733
Q 2419 3097 1959 3097
z
M 1959 3584
Q 2709 3584 3137 3096
Q 3566 2609 3566 1747
Q 3566 888 3137 398
Q 2709 -91 1959 -91
Q 1206 -91 779 398
Q 353 888 353 1747
Q 353 2609 779 3096
Q 1206 3584 1959 3584
z
" transform="scale(0.015625)"/>
      <path id="DejaVuSans-63" d="M 3122 3366
L 3122 2828
Q 2878 2963 2633 3030
Q 2388 3097 2138 3097
Q 1578 3097 1268 2742
Q 959 2388 959 1747
Q 959 1106 1268 751
Q 1578 397 2138 397
Q 2388 397 2633 464
Q 2878 531 3122 666
L 3122 134
Q 2881 22 2623 -34
Q 2366 -91 2075 -91
Q 1284 -91 818 406
Q 353 903 353 1747
Q 353 2603 823 3093
Q 1294 3584 2113 3584
Q 2378 3584 2631 3529
Q 2884 3475 3122 3366
z
" transform="scale(0.015625)"/>
      <path id="DejaVuSans-66" d="M 2375 4863
L 2375 4384
L 1825 4384
Q 1516 4384 1395 4259
Q 1275 4134 1275 3809
L 1275 3500
L 2222 3500
L 2222 3053
L 1275 3053
L 1275 0
L 697 0
L 697 3053
L 147 3053
L 147 3500
L 697 3500
L 697 3744
Q 697 4328 969 4595
Q 1241 4863 1831 4863
L 2375 4863
z
" transform="scale(0.015625)"/>
      <path id="DejaVuSans-70" d="M 1159 525
L 1159 -1331
L 581 -1331
L 581 3500
L 1159 3500
L 1159 2969
Q 1341 3281 1617 3432
Q 1894 3584 2278 3584
Q 2916 3584 3314 3078
Q 3713 2572 3713 1747
Q 3713 922 3314 415
Q 2916 -91 2278 -91
Q 1894 -91 1617 61
Q 1341 213 1159 525
z
M 3116 1747
Q 3116 2381 2855 2742
Q 2594 3103 2138 3103
Q 1681 3103 1420 2742
Q 1159 2381 1159 1747
Q 1159 1113 1420 752
Q 1681 391 2138 391
Q 2594 391 2855 752
Q 3116 1113 3116 1747
z
" transform="scale(0.015625)"/>
      <path id="DejaVuSans-68" d="M 3513 2113
L 3513 0
L 2938 0
L 2938 2094
Q 2938 2591 2744 2837
Q 2550 3084 2163 3084
Q 1697 3084 1428 2787
Q 1159 2491 1159 1978
L 1159 0
L 581 0
L 581 4863
L 1159 4863
L 1159 2956
Q 1366 3272 1645 3428
Q 1925 3584 2291 3584
Q 2894 3584 3203 3211
Q 3513 2838 3513 2113
z
" transform="scale(0.015625)"/>
      <path id="DejaVuSans-2e" d="M 684 794
L 1344 794
L 1344 0
L 684 0
L 684 794
z
" transform="scale(0.015625)"/>
     </defs>
     <use xlink:href="#DejaVuSans-54"/>
     <use xlink:href="#DejaVuSans-72" x="46.333984"/>
     <use xlink:href="#DejaVuSans-61" x="87.447266"/>
     <use xlink:href="#DejaVuSans-76" x="148.726562"/>
     <use xlink:href="#DejaVuSans-65" x="207.90625"/>
     <use xlink:href="#DejaVuSans-72" x="269.429688"/>
     <use xlink:href="#DejaVuSans-73" x="310.542969"/>
     <use xlink:href="#DejaVuSans-61" x="362.642578"/>
     <use xlink:href="#DejaVuSans-6c" x="423.921875"/>
     <use xlink:href="#DejaVuSans-20" x="451.705078"/>
     <use xlink:href="#DejaVuSans-74" x="483.492188"/>
     <use xlink:href="#DejaVuSans-75" x="522.701172"/>
     <use xlink:href="#DejaVuSans-72" x="586.080078"/>
     <use xlink:href="#DejaVuSans-6e" x="625.443359"/>
     <use xlink:href="#DejaVuSans-73" x="688.822266"/>
     <use xlink:href="#DejaVuSans-20" x="740.921875"/>
     <use xlink:href="#DejaVuSans-64" x="772.708984"/>
     <use xlink:href="#DejaVuSans-61" x="836.185547"/>
     <use xlink:href="#DejaVuSans-74" x="897.464844"/>
     <use xlink:href="#DejaVuSans-61" x="936.673828"/>
     <use xlink:href="#DejaVuSans-73" x="997.953125"/>
     <use xlink:href="#DejaVuSans-65" x="1050.052734"/>
     <use xlink:href="#DejaVuSans-74" x="1111.576172"/>
     <use xlink:href="#DejaVuSans-20" x="1150.785156"/>
     <use xlink:href="#DejaVuSans-6d" x="1182.572266"/>
     <use xlink:href="#DejaVuSans-65" x="1279.984375"/>
     <use xlink:href="#DejaVuSans-74" x="1341.507812"/>
     <use xlink:href="#DejaVuSans-61" x="1380.716797"/>
     <use xlink:href="#DejaVuSans-64" x="1441.996094"/>
     <use xlink:href="#DejaVuSans-61" x="1505.472656"/>
     <use xlink:href="#DejaVuSans-74" x="1566.751953"/>
     <use xlink:href="#DejaVuSans-61" x="1605.960938"/>
     <use xlink:href="#DejaVuSans-20" x="1667.240234"/>
     <use xlink:href="#DejaVuSans-69" x="1699.027344"/>
     <use xlink:href="#DejaVuSans-6e" x="1726.810547"/>
     <use xlink:href="#DejaVuSans-74" x="1790.189453"/>
     <use xlink:href="#DejaVuSans-6f" x="1829.398438"/>
     <use xlink:href="#DejaVuSans-20" x="1890.580078"/>
     <use xlink:href="#DejaVuSans-61" x="1922.367188"/>
     <use xlink:href="#DejaVuSans-20" x="1983.646484"/>
     <use xlink:href="#DejaVuSans-73" x="2015.433594"/>
     <use xlink:href="#DejaVuSans-63" x="2067.533203"/>
     <use xlink:href="#DejaVuSans-69" x="2122.513672"/>
     <use xlink:href="#DejaVuSans-65" x="2150.296875"/>
     <use xlink:href="#DejaVuSans-6e" x="2211.820312"/>
     <use xlink:href="#DejaVuSans-74" x="2275.199219"/>
     <use xlink:href="#DejaVuSans-69" x="2314.408203"/>
     <use xlink:href="#DejaVuSans-66" x="2342.191406"/>
     <use xlink:href="#DejaVuSans-69" x="2377.396484"/>
     <use xlink:href="#DejaVuSans-63" x="2405.179688"/>
     <use xlink:href="#DejaVuSans-20" x="2460.160156"/>
     <use xlink:href="#DejaVuSans-63" x="2491.947266"/>
     <use xlink:href="#DejaVuSans-6f" x="2546.927734"/>
     <use xlink:href="#DejaVuSans-6e" x="2608.109375"/>
     <use xlink:href="#DejaVuSans-73" x="2671.488281"/>
     <use xlink:href="#DejaVuSans-74" x="2723.587891"/>
     <use xlink:href="#DejaVuSans-72" x="2762.796875"/>
     <use xlink:href="#DejaVuSans-75" x="2803.910156"/>
     <use xlink:href="#DejaVuSans-63" x="2867.289062"/>
     <use xlink:href="#DejaVuSans-74" x="2922.269531"/>
     <use xlink:href="#DejaVuSans-20" x="2961.478516"/>
     <use xlink:href="#DejaVuSans-70" x="2993.265625"/>
     <use xlink:href="#DejaVuSans-61" x="3056.742188"/>
     <use xlink:href="#DejaVuSans-74" x="3118.021484"/>
     <use xlink:href="#DejaVuSans-68" x="3157.230469"/>
     <use xlink:href="#DejaVuSans-2e" x="3220.609375"/>
    </g>
   </g>
   <g id="PathCollection_1">
    <defs>
     <path id="m0772cd65b4" d="M 0 28.521172
C 7.563903 28.521172 14.819027 25.516001 20.167514 20.167514
C 25.516001 14.819027 28.521172 7.563903 28.521172 0
C 28.521172 -7.563903 25.516001 -14.819027 20.167514 -20.167514
C 14.819027 -25.516001 7.563903 -28.521172 0 -28.521172
C -7.563903 -28.521172 -14.819027 -25.516001 -20.167514 -20.167514
C -25.516001 -14.819027 -28.521172 -7.563903 -28.521172 0
C -28.521172 7.563903 -25.516001 14.819027 -20.167514 20.167514
C -14.819027 25.516001 -7.563903 28.521172 0 28.521172
z
"/>
    </defs>
    <g clip-path="url(#p318fc7fb7c)">
     <use xlink:href="#m0772cd65b4" x="75.73248" y="126.97128" style="fill: #c89b3c; fill-opacity: 0.12"/>
    </g>
   </g>
   <g id="PathCollection_2">
    <defs>
     <path id="maaea39bbf3" d="M 0 28.521172
C 7.563903 28.521172 14.819027 25.516001 20.167514 20.167514
C 25.516001 14.819027 28.521172 7.563903 28.521172 0
C 28.521172 -7.563903 25.516001 -14.819027 20.167514 -20.167514
C 14.819027 -25.516001 7.563903 -28.521172 0 -28.521172
C -7.563903 -28.521172 -14.819027 -25.516001 -20.167514 -20.167514
C -25.516001 -14.819027 -28.521172 -7.563903 -28.521172 0
C -28.521172 7.563903 -25.516001 14.819027 -20.167514 20.167514
C -14.819027 25.516001 -7.563903 28.521172 0 28.521172
z
"/>
    </defs>
    <g clip-path="url(#p318fc7fb7c)">
     <use xlink:href="#maaea39bbf3" x="174.2976" y="126.97128" style="fill: #d99000; fill-opacity: 0.12"/>
    </g>
   </g>
   <g id="PathCollection_3">
    <defs>
     <path id="mdd873d9887" d="M 0 28.521172
C 7.563903 28.521172 14.819027 25.516001 20.167514 20.167514
C 25.516001 14.819027 28.521172 7.563903 28.521172 0
C 28.521172 -7.563903 25.516001 -14.819027 20.167514 -20.167514
C 14.819027 -25.516001 7.563903 -28.521172 0 -28.521172
C -7.563903 -28.521172 -14.819027 -25.516001 -20.167514 -20.167514
C -25.516001 -14.819027 -28.521172 -7.563903 -28.521172 0
C -28.521172 7.563903 -25.516001 14.819027 -20.167514 20.167514
C -14.819027 25.516001 -7.563903 28.521172 0 28.521172
z
"/>
    </defs>
    <g clip-path="url(#p318fc7fb7c)">
     <use xlink:href="#mdd873d9887" x="174.2976" y="238.00032" style="fill: #e5ae38; fill-opacity: 0.12"/>
    </g>
   </g>
   <g id="PathCollection_4">
    <g clip-path="url(#p318fc7fb7c)">
     <use xlink:href="#maaea39bbf3" x="277.14816" y="126.97128" style="fill: #d99000; fill-opacity: 0.12"/>
    </g>
   </g>
   <g id="PathCollection_5">
    <defs>
     <path id="maf983f9ab3" d="M 0 28.521172
C 7.563903 28.521172 14.819027 25.516001 20.167514 20.167514
C 25.516001 14.819027 28.521172 7.563903 28.521172 0
C 28.521172 -7.563903 25.516001 -14.819027 20.167514 -20.167514
C 14.819027 -25.516001 7.563903 -28.521172 0 -28.521172
C -7.563903 -28.521172 -14.819027 -25.516001 -20.167514 -20.167514
C -25.516001 -14.819027 -28.521172 -7.563903 -28.521172 0
C -28.521172 7.563903 -25.516001 14.819027 -20.167514 20.167514
C -14.819027 25.516001 -7.563903 28.521172 0 28.521172
z
"/>
    </defs>
    <g clip-path="url(#p318fc7fb7c)">
     <use xlink:href="#maf983f9ab3" x="375.71328" y="126.97128" style="fill: #8e63b7; fill-opacity: 0.12"/>
    </g>
   </g>
   <g id="text_4">
    <!-- Example path: OpenNeuro -&gt; Myconnectome -&gt; n-back task -&gt; updating. -->
    <g style="fill: #667789" transform="translate(98.864 298.41318) scale(0.064 -0.064)">
     <defs>
      <path id="DejaVuSans-45" d="M 628 4666
L 3578 4666
L 3578 4134
L 1259 4134
L 1259 2753
L 3481 2753
L 3481 2222
L 1259 2222
L 1259 531
L 3634 531
L 3634 0
L 628 0
L 628 4666
z
" transform="scale(0.015625)"/>
      <path id="DejaVuSans-78" d="M 3513 3500
L 2247 1797
L 3578 0
L 2900 0
L 1881 1375
L 863 0
L 184 0
L 1544 1831
L 300 3500
L 978 3500
L 1906 2253
L 2834 3500
L 3513 3500
z
" transform="scale(0.015625)"/>
      <path id="DejaVuSans-3a" d="M 750 794
L 1409 794
L 1409 0
L 750 0
L 750 794
z
M 750 3309
L 1409 3309
L 1409 2516
L 750 2516
L 750 3309
z
" transform="scale(0.015625)"/>
      <path id="DejaVuSans-4f" d="M 2522 4238
Q 1834 4238 1429 3725
Q 1025 3213 1025 2328
Q 1025 1447 1429 934
Q 1834 422 2522 422
Q 3209 422 3611 934
Q 4013 1447 4013 2328
Q 4013 3213 3611 3725
Q 3209 4238 2522 4238
z
M 2522 4750
Q 3503 4750 4090 4092
Q 4678 3434 4678 2328
Q 4678 1225 4090 567
Q 3503 -91 2522 -91
Q 1538 -91 948 565
Q 359 1222 359 2328
Q 359 3434 948 4092
Q 1538 4750 2522 4750
z
" transform="scale(0.015625)"/>
      <path id="DejaVuSans-4e" d="M 628 4666
L 1478 4666
L 3547 763
L 3547 4666
L 4159 4666
L 4159 0
L 3309 0
L 1241 3903
L 1241 0
L 628 0
L 628 4666
z
" transform="scale(0.015625)"/>
      <path id="DejaVuSans-2d" d="M 313 2009
L 1997 2009
L 1997 1497
L 313 1497
L 313 2009
z
" transform="scale(0.015625)"/>
      <path id="DejaVuSans-3e" d="M 678 3150
L 678 3719
L 4684 2266
L 4684 1747
L 678 294
L 678 863
L 3897 2003
L 678 3150
z
" transform="scale(0.015625)"/>
      <path id="DejaVuSans-4d" d="M 628 4666
L 1569 4666
L 2759 1491
L 3956 4666
L 4897 4666
L 4897 0
L 4281 0
L 4281 4097
L 3078 897
L 2444 897
L 1241 4097
L 1241 0
L 628 0
L 628 4666
z
" transform="scale(0.015625)"/>
      <path id="DejaVuSans-79" d="M 2059 -325
Q 1816 -950 1584 -1140
Q 1353 -1331 966 -1331
L 506 -1331
L 506 -850
L 844 -850
Q 1081 -850 1212 -737
Q 1344 -625 1503 -206
L 1606 56
L 191 3500
L 800 3500
L 1894 763
L 2988 3500
L 3597 3500
L 2059 -325
z
" transform="scale(0.015625)"/>
      <path id="DejaVuSans-62" d="M 3116 1747
Q 3116 2381 2855 2742
Q 2594 3103 2138 3103
Q 1681 3103 1420 2742
Q 1159 2381 1159 1747
Q 1159 1113 1420 752
Q 1681 391 2138 391
Q 2594 391 2855 752
Q 3116 1113 3116 1747
z
M 1159 2969
Q 1341 3281 1617 3432
Q 1894 3584 2278 3584
Q 2916 3584 3314 3078
Q 3713 2572 3713 1747
Q 3713 922 3314 415
Q 2916 -91 2278 -91
Q 1894 -91 1617 61
Q 1341 213 1159 525
L 1159 0
L 581 0
L 581 4863
L 1159 4863
L 1159 2969
z
" transform="scale(0.015625)"/>
      <path id="DejaVuSans-6b" d="M 581 4863
L 1159 4863
L 1159 1991
L 2875 3500
L 3609 3500
L 1753 1863
L 3688 0
L 2938 0
L 1159 1709
L 1159 0
L 581 0
L 581 4863
z
" transform="scale(0.015625)"/>
      <path id="DejaVuSans-67" d="M 2906 1791
Q 2906 2416 2648 2759
Q 2391 3103 1925 3103
Q 1463 3103 1205 2759
Q 947 2416 947 1791
Q 947 1169 1205 825
Q 1463 481 1925 481
Q 2391 481 2648 825
Q 2906 1169 2906 1791
z
M 3481 434
Q 3481 -459 3084 -895
Q 2688 -1331 1869 -1331
Q 1566 -1331 1297 -1286
Q 1028 -1241 775 -1147
L 775 -588
Q 1028 -725 1275 -790
Q 1522 -856 1778 -856
Q 2344 -856 2625 -561
Q 2906 -266 2906 331
L 2906 616
Q 2728 306 2450 153
Q 2172 0 1784 0
Q 1141 0 747 490
Q 353 981 353 1791
Q 353 2603 747 3093
Q 1141 3584 1784 3584
Q 2172 3584 2450 3431
Q 2728 3278 2906 2969
L 2906 3500
L 3481 3500
L 3481 434
z
" transform="scale(0.015625)"/>
     </defs>
     <use xlink:href="#DejaVuSans-45"/>
     <use xlink:href="#DejaVuSans-78" x="63.183594"/>
     <use xlink:href="#DejaVuSans-61" x="122.363281"/>
     <use xlink:href="#DejaVuSans-6d" x="183.642578"/>
     <use xlink:href="#DejaVuSans-70" x="281.054688"/>
     <use xlink:href="#DejaVuSans-6c" x="344.53125"/>
     <use xlink:href="#DejaVuSans-65" x="372.314453"/>
     <use xlink:href="#DejaVuSans-20" x="433.837891"/>
     <use xlink:href="#DejaVuSans-70" x="465.625"/>
     <use xlink:href="#DejaVuSans-61" x="529.101562"/>
     <use xlink:href="#DejaVuSans-74" x="590.380859"/>
     <use xlink:href="#DejaVuSans-68" x="629.589844"/>
     <use xlink:href="#DejaVuSans-3a" x="692.96875"/>
     <use xlink:href="#DejaVuSans-20" x="726.660156"/>
     <use xlink:href="#DejaVuSans-4f" x="758.447266"/>
     <use xlink:href="#DejaVuSans-70" x="837.158203"/>
     <use xlink:href="#DejaVuSans-65" x="900.634766"/>
     <use xlink:href="#DejaVuSans-6e" x="962.158203"/>
     <use xlink:href="#DejaVuSans-4e" x="1025.537109"/>
     <use xlink:href="#DejaVuSans-65" x="1100.341797"/>
     <use xlink:href="#DejaVuSans-75" x="1161.865234"/>
     <use xlink:href="#DejaVuSans-72" x="1225.244141"/>
     <use xlink:href="#DejaVuSans-6f" x="1264.107422"/>
     <use xlink:href="#DejaVuSans-20" x="1325.289062"/>
     <use xlink:href="#DejaVuSans-2d" x="1357.076172"/>
     <use xlink:href="#DejaVuSans-3e" x="1393.160156"/>
     <use xlink:href="#DejaVuSans-20" x="1476.949219"/>
     <use xlink:href="#DejaVuSans-4d" x="1508.736328"/>
     <use xlink:href="#DejaVuSans-79" x="1595.015625"/>
     <use xlink:href="#DejaVuSans-63" x="1654.195312"/>
     <use xlink:href="#DejaVuSans-6f" x="1709.175781"/>
     <use xlink:href="#DejaVuSans-6e" x="1770.357422"/>
     <use xlink:href="#DejaVuSans-6e" x="1833.736328"/>
     <use xlink:href="#DejaVuSans-65" x="1897.115234"/>
     <use xlink:href="#DejaVuSans-63" x="1958.638672"/>
     <use xlink:href="#DejaVuSans-74" x="2013.619141"/>
     <use xlink:href="#DejaVuSans-6f" x="2052.828125"/>
     <use xlink:href="#DejaVuSans-6d" x="2114.009766"/>
     <use xlink:href="#DejaVuSans-65" x="2211.421875"/>
     <use xlink:href="#DejaVuSans-20" x="2272.945312"/>
     <use xlink:href="#DejaVuSans-2d" x="2304.732422"/>
     <use xlink:href="#DejaVuSans-3e" x="2340.816406"/>
     <use xlink:href="#DejaVuSans-20" x="2424.605469"/>
     <use xlink:href="#DejaVuSans-6e" x="2456.392578"/>
     <use xlink:href="#DejaVuSans-2d" x="2519.771484"/>
     <use xlink:href="#DejaVuSans-62" x="2555.855469"/>
     <use xlink:href="#DejaVuSans-61" x="2619.332031"/>
     <use xlink:href="#DejaVuSans-63" x="2680.611328"/>
     <use xlink:href="#DejaVuSans-6b" x="2735.591797"/>
     <use xlink:href="#DejaVuSans-20" x="2793.501953"/>
     <use xlink:href="#DejaVuSans-74" x="2825.289062"/>
     <use xlink:href="#DejaVuSans-61" x="2864.498047"/>
     <use xlink:href="#DejaVuSans-73" x="2925.777344"/>
     <use xlink:href="#DejaVuSans-6b" x="2977.876953"/>
     <use xlink:href="#DejaVuSans-20" x="3035.787109"/>
     <use xlink:href="#DejaVuSans-2d" x="3067.574219"/>
     <use xlink:href="#DejaVuSans-3e" x="3103.658203"/>
     <use xlink:href="#DejaVuSans-20" x="3187.447266"/>
     <use xlink:href="#DejaVuSans-75" x="3219.234375"/>
     <use xlink:href="#DejaVuSans-70" x="3282.613281"/>
     <use xlink:href="#DejaVuSans-64" x="3346.089844"/>
     <use xlink:href="#DejaVuSans-61" x="3409.566406"/>
     <use xlink:href="#DejaVuSans-74" x="3470.845703"/>
     <use xlink:href="#DejaVuSans-69" x="3510.054688"/>
     <use xlink:href="#DejaVuSans-6e" x="3537.837891"/>
     <use xlink:href="#DejaVuSans-67" x="3601.216797"/>
     <use xlink:href="#DejaVuSans-2e" x="3664.693359"/>
    </g>
   </g>
   <g id="PathCollection_6">
    <defs>
     <path id="m4932656000" d="M 0 19.032044
C 5.047357 19.032044 9.888667 17.026708 13.457687 13.457687
C 17.026708 9.888667 19.032044 5.047357 19.032044 0
C 19.032044 -5.047357 17.026708 -9.888667 13.457687 -13.457687
C 9.888667 -17.026708 5.047357 -19.032044 0 -19.032044
C -5.047357 -19.032044 -9.888667 -17.026708 -13.457687 -13.457687
C -17.026708 -9.888667 -19.032044 -5.047357 -19.032044 0
C -19.032044 5.047357 -17.026708 9.888667 -13.457687 13.457687
C -9.888667 17.026708 -5.047357 19.032044 0 19.032044
z
" style="stroke: #c89b3c; stroke-width: 2.2"/>
    </defs>
    <g clip-path="url(#p318fc7fb7c)">
     <use xlink:href="#m4932656000" x="75.73248" y="126.97128" style="fill: #ffffff; stroke: #c89b3c; stroke-width: 2.2"/>
    </g>
   </g>
   <g id="PathCollection_7">
    <defs>
     <path id="mc600531a60" d="M 0 19.032044
C 5.047357 19.032044 9.888667 17.026708 13.457687 13.457687
C 17.026708 9.888667 19.032044 5.047357 19.032044 0
C 19.032044 -5.047357 17.026708 -9.888667 13.457687 -13.457687
C 9.888667 -17.026708 5.047357 -19.032044 0 -19.032044
C -5.047357 -19.032044 -9.888667 -17.026708 -13.457687 -13.457687
C -17.026708 -9.888667 -19.032044 -5.047357 -19.032044 0
C -19.032044 5.047357 -17.026708 9.888667 -13.457687 13.457687
C -9.888667 17.026708 -5.047357 19.032044 0 19.032044
z
" style="stroke: #d99000; stroke-width: 2.2"/>
    </defs>
    <g clip-path="url(#p318fc7fb7c)">
     <use xlink:href="#mc600531a60" x="174.2976" y="126.97128" style="fill: #ffffff; stroke: #d99000; stroke-width: 2.2"/>
    </g>
   </g>
   <g id="PathCollection_8">
    <defs>
     <path id="m7a00940169" d="M 0 19.032044
C 5.047357 19.032044 9.888667 17.026708 13.457687 13.457687
C 17.026708 9.888667 19.032044 5.047357 19.032044 0
C 19.032044 -5.047357 17.026708 -9.888667 13.457687 -13.457687
C 9.888667 -17.026708 5.047357 -19.032044 0 -19.032044
C -5.047357 -19.032044 -9.888667 -17.026708 -13.457687 -13.457687
C -17.026708 -9.888667 -19.032044 -5.047357 -19.032044 0
C -19.032044 5.047357 -17.026708 9.888667 -13.457687 13.457687
C -9.888667 17.026708 -5.047357 19.032044 0 19.032044
z
" style="stroke: #e5ae38; stroke-width: 2.2"/>
    </defs>
    <g clip-path="url(#p318fc7fb7c)">
     <use xlink:href="#m7a00940169" x="174.2976" y="238.00032" style="fill: #ffffff; stroke: #e5ae38; stroke-width: 2.2"/>
    </g>
   </g>
   <g id="PathCollection_9">
    <g clip-path="url(#p318fc7fb7c)">
     <use xlink:href="#mc600531a60" x="277.14816" y="126.97128" style="fill: #ffffff; stroke: #d99000; stroke-width: 2.2"/>
    </g>
   </g>
   <g id="PathCollection_10">
    <defs>
     <path id="me4e583757b" d="M 0 19.032044
C 5.047357 19.032044 9.888667 17.026708 13.457687 13.457687
C 17.026708 9.888667 19.032044 5.047357 19.032044 0
C 19.032044 -5.047357 17.026708 -9.888667 13.457687 -13.457687
C 9.888667 -17.026708 5.047357 -19.032044 0 -19.032044
C -5.047357 -19.032044 -9.888667 -17.026708 -13.457687 -13.457687
C -17.026708 -9.888667 -19.032044 -5.047357 -19.032044 0
C -19.032044 5.047357 -17.026708 9.888667 -13.457687 13.457687
C -9.888667 17.026708 -5.047357 19.032044 0 19.032044
z
" style="stroke: #8e63b7; stroke-width: 2.2"/>
    </defs>
    <g clip-path="url(#p318fc7fb7c)">
     <use xlink:href="#me4e583757b" x="375.71328" y="126.97128" style="fill: #ffffff; stroke: #8e63b7; stroke-width: 2.2"/>
    </g>
   </g>
   <g id="PathCollection_11">
    <defs>
     <path id="mb2bef51882" d="M 0 16.247766
C 4.308958 16.247766 8.442012 14.535799 11.488906 11.488906
C 14.535799 8.442012 16.247766 4.308958 16.247766 0
C 16.247766 -4.308958 14.535799 -8.442012 11.488906 -11.488906
C 8.442012 -14.535799 4.308958 -16.247766 0 -16.247766
C -4.308958 -16.247766 -8.442012 -14.535799 -11.488906 -11.488906
C -14.535799 -8.442012 -16.247766 -4.308958 -16.247766 0
C -16.247766 4.308958 -14.535799 8.442012 -11.488906 11.488906
C -8.442012 14.535799 -4.308958 16.247766 0 16.247766
z
" style="stroke: #ffffff; stroke-opacity: 0.96"/>
    </defs>
    <g clip-path="url(#p318fc7fb7c)">
     <use xlink:href="#mb2bef51882" x="75.73248" y="126.97128" style="fill: #c89b3c; fill-opacity: 0.96; stroke: #ffffff; stroke-opacity: 0.96"/>
    </g>
   </g>
   <g id="PathCollection_12">
    <defs>
     <path id="m00c29ca5c1" d="M 0 16.247766
C 4.308958 16.247766 8.442012 14.535799 11.488906 11.488906
C 14.535799 8.442012 16.247766 4.308958 16.247766 0
C 16.247766 -4.308958 14.535799 -8.442012 11.488906 -11.488906
C 8.442012 -14.535799 4.308958 -16.247766 0 -16.247766
C -4.308958 -16.247766 -8.442012 -14.535799 -11.488906 -11.488906
C -14.535799 -8.442012 -16.247766 -4.308958 -16.247766 0
C -16.247766 4.308958 -14.535799 8.442012 -11.488906 11.488906
C -8.442012 14.535799 -4.308958 16.247766 0 16.247766
z
" style="stroke: #ffffff; stroke-opacity: 0.96"/>
    </defs>
    <g clip-path="url(#p318fc7fb7c)">
     <use xlink:href="#m00c29ca5c1" x="174.2976" y="126.97128" style="fill: #d99000; fill-opacity: 0.96; stroke: #ffffff; stroke-opacity: 0.96"/>
    </g>
   </g>
   <g id="PathCollection_13">
    <defs>
     <path id="m3c368a7daa" d="M 0 16.247766
C 4.308958 16.247766 8.442012 14.535799 11.488906 11.488906
C 14.535799 8.442012 16.247766 4.308958 16.247766 0
C 16.247766 -4.308958 14.535799 -8.442012 11.488906 -11.488906
C 8.442012 -14.535799 4.308958 -16.247766 0 -16.247766
C -4.308958 -16.247766 -8.442012 -14.535799 -11.488906 -11.488906
C -14.535799 -8.442012 -16.247766 -4.308958 -16.247766 0
C -16.247766 4.308958 -14.535799 8.442012 -11.488906 11.488906
C -8.442012 14.535799 -4.308958 16.247766 0 16.247766
z
" style="stroke: #ffffff; stroke-opacity: 0.96"/>
    </defs>
    <g clip-path="url(#p318fc7fb7c)">
     <use xlink:href="#m3c368a7daa" x="174.2976" y="238.00032" style="fill: #e5ae38; fill-opacity: 0.96; stroke: #ffffff; stroke-opacity: 0.96"/>
    </g>
   </g>
   <g id="PathCollection_14">
    <g clip-path="url(#p318fc7fb7c)">
     <use xlink:href="#m00c29ca5c1" x="277.14816" y="126.97128" style="fill: #d99000; fill-opacity: 0.96; stroke: #ffffff; stroke-opacity: 0.96"/>
    </g>
   </g>
   <g id="PathCollection_15">
    <defs>
     <path id="mf793f4898f" d="M 0 16.247766
C 4.308958 16.247766 8.442012 14.535799 11.488906 11.488906
C 14.535799 8.442012 16.247766 4.308958 16.247766 0
C 16.247766 -4.308958 14.535799 -8.442012 11.488906 -11.488906
C 8.442012 -14.535799 4.308958 -16.247766 0 -16.247766
C -4.308958 -16.247766 -8.442012 -14.535799 -11.488906 -11.488906
C -14.535799 -8.442012 -16.247766 -4.308958 -16.247766 0
C -16.247766 4.308958 -14.535799 8.442012 -11.488906 11.488906
C -8.442012 14.535799 -4.308958 16.247766 0 16.247766
z
" style="stroke: #ffffff; stroke-opacity: 0.96"/>
    </defs>
    <g clip-path="url(#p318fc7fb7c)">
     <use xlink:href="#mf793f4898f" x="375.71328" y="126.97128" style="fill: #8e63b7; fill-opacity: 0.96; stroke: #ffffff; stroke-opacity: 0.96"/>
    </g>
   </g>
   <g id="text_5">
    <g id="patch_8">
     <path d="M 111.011298 115.968791
L 139.018782 115.968791
Q 139.873782 115.968791 139.873782 115.113791
L 139.873782 109.438729
Q 139.873782 108.583729 139.018782 108.583729
L 111.011298 108.583729
Q 110.156298 108.583729 110.156298 109.438729
L 110.156298 115.113791
Q 110.156298 115.968791 111.011298 115.968791
z
" style="fill: #ffffff; opacity: 0.94; stroke: #d7dfe8; stroke-width: 0.55; stroke-linejoin: miter"/>
    </g>
    <!-- hosted_at -->
    <g style="fill: #27313c" transform="translate(111.011298 113.769838) scale(0.057 -0.057)">
     <defs>
      <path id="DejaVuSans-5f" d="M 3263 -1063
L 3263 -1509
L -63 -1509
L -63 -1063
L 3263 -1063
z
" transform="scale(0.015625)"/>
     </defs>
     <use xlink:href="#DejaVuSans-68"/>
     <use xlink:href="#DejaVuSans-6f" x="63.378906"/>
     <use xlink:href="#DejaVuSans-73" x="124.560547"/>
     <use xlink:href="#DejaVuSans-74" x="176.660156"/>
     <use xlink:href="#DejaVuSans-65" x="215.869141"/>
     <use xlink:href="#DejaVuSans-64" x="277.392578"/>
     <use xlink:href="#DejaVuSans-5f" x="340.869141"/>
     <use xlink:href="#DejaVuSans-61" x="390.869141"/>
     <use xlink:href="#DejaVuSans-74" x="452.148438"/>
    </g>
   </g>
   <g id="text_6">
    <g id="patch_9">
     <path d="M 155.371819 186.178331
L 193.223381 186.178331
Q 194.078381 186.178331 194.078381 185.323331
L 194.078381 179.648269
Q 194.078381 178.793269 193.223381 178.793269
L 155.371819 178.793269
Q 154.516819 178.793269 154.516819 179.648269
L 154.516819 185.323331
Q 154.516819 186.178331 155.371819 186.178331
z
" style="fill: #ffffff; opacity: 0.94; stroke: #d7dfe8; stroke-width: 0.55; stroke-linejoin: miter"/>
    </g>
    <!-- has_modality -->
    <g style="fill: #27313c" transform="translate(155.371819 183.979378) scale(0.057 -0.057)">
     <use xlink:href="#DejaVuSans-68"/>
     <use xlink:href="#DejaVuSans-61" x="63.378906"/>
     <use xlink:href="#DejaVuSans-73" x="124.658203"/>
     <use xlink:href="#DejaVuSans-5f" x="176.757812"/>
     <use xlink:href="#DejaVuSans-6d" x="226.757812"/>
     <use xlink:href="#DejaVuSans-6f" x="324.169922"/>
     <use xlink:href="#DejaVuSans-64" x="385.351562"/>
     <use xlink:href="#DejaVuSans-61" x="448.828125"/>
     <use xlink:href="#DejaVuSans-6c" x="510.107422"/>
     <use xlink:href="#DejaVuSans-69" x="537.890625"/>
     <use xlink:href="#DejaVuSans-74" x="565.673828"/>
     <use xlink:href="#DejaVuSans-79" x="604.882812"/>
    </g>
   </g>
   <g id="text_7">
    <g id="patch_10">
     <path d="M 213.2617 115.968791
L 238.18406 115.968791
Q 239.03906 115.968791 239.03906 115.113791
L 239.03906 109.438729
Q 239.03906 108.583729 238.18406 108.583729
L 213.2617 108.583729
Q 212.4067 108.583729 212.4067 109.438729
L 212.4067 115.113791
Q 212.4067 115.968791 213.2617 115.968791
z
" style="fill: #ffffff; opacity: 0.94; stroke: #d7dfe8; stroke-width: 0.55; stroke-linejoin: miter"/>
    </g>
    <!-- has_task -->
    <g style="fill: #27313c" transform="translate(213.2617 113.769838) scale(0.057 -0.057)">
     <use xlink:href="#DejaVuSans-68"/>
     <use xlink:href="#DejaVuSans-61" x="63.378906"/>
     <use xlink:href="#DejaVuSans-73" x="124.658203"/>
     <use xlink:href="#DejaVuSans-5f" x="176.757812"/>
     <use xlink:href="#DejaVuSans-74" x="226.757812"/>
     <use xlink:href="#DejaVuSans-61" x="265.966797"/>
     <use xlink:href="#DejaVuSans-73" x="327.246094"/>
     <use xlink:href="#DejaVuSans-6b" x="379.345703"/>
    </g>
   </g>
   <g id="text_8">
    <g id="patch_11">
     <path d="M 312.517822 115.889526
L 340.343618 115.889526
Q 341.198618 115.889526 341.198618 115.034526
L 341.198618 109.517994
Q 341.198618 108.662994 340.343618 108.662994
L 312.517822 108.662994
Q 311.662822 108.662994 311.662822 109.517994
L 311.662822 115.034526
Q 311.662822 115.889526 312.517822 115.889526
z
" style="fill: #ffffff; opacity: 0.94; stroke: #d7dfe8; stroke-width: 0.55; stroke-linejoin: miter"/>
    </g>
    <!-- measures -->
    <g style="fill: #27313c" transform="translate(312.517822 113.849104) scale(0.057 -0.057)">
     <use xlink:href="#DejaVuSans-6d"/>
     <use xlink:href="#DejaVuSans-65" x="97.412109"/>
     <use xlink:href="#DejaVuSans-61" x="158.935547"/>
     <use xlink:href="#DejaVuSans-73" x="220.214844"/>
     <use xlink:href="#DejaVuSans-75" x="272.314453"/>
     <use xlink:href="#DejaVuSans-72" x="335.693359"/>
     <use xlink:href="#DejaVuSans-65" x="374.556641"/>
     <use xlink:href="#DejaVuSans-73" x="436.080078"/>
    </g>
   </g>
   <g id="text_9">
    <!-- Repository -->
    <g style="fill: #536273" transform="translate(56.825386 100.99152) scale(0.062 -0.062)">
     <defs>
      <path id="DejaVuSans-Bold-52" d="M 2297 2597
Q 2675 2597 2839 2737
Q 3003 2878 3003 3200
Q 3003 3519 2839 3656
Q 2675 3794 2297 3794
L 1791 3794
L 1791 2597
L 2297 2597
z
M 1791 1766
L 1791 0
L 588 0
L 588 4666
L 2425 4666
Q 3347 4666 3776 4356
Q 4206 4047 4206 3378
Q 4206 2916 3982 2619
Q 3759 2322 3309 2181
Q 3556 2125 3751 1926
Q 3947 1728 4147 1325
L 4800 0
L 3519 0
L 2950 1159
Q 2778 1509 2601 1637
Q 2425 1766 2131 1766
L 1791 1766
z
" transform="scale(0.015625)"/>
      <path id="DejaVuSans-Bold-73" d="M 3272 3391
L 3272 2541
Q 2913 2691 2578 2766
Q 2244 2841 1947 2841
Q 1628 2841 1473 2761
Q 1319 2681 1319 2516
Q 1319 2381 1436 2309
Q 1553 2238 1856 2203
L 2053 2175
Q 2913 2066 3209 1816
Q 3506 1566 3506 1031
Q 3506 472 3093 190
Q 2681 -91 1863 -91
Q 1516 -91 1145 -36
Q 775 19 384 128
L 384 978
Q 719 816 1070 734
Q 1422 653 1784 653
Q 2113 653 2278 743
Q 2444 834 2444 1013
Q 2444 1163 2330 1236
Q 2216 1309 1875 1350
L 1678 1375
Q 931 1469 631 1722
Q 331 1975 331 2491
Q 331 3047 712 3315
Q 1094 3584 1881 3584
Q 2191 3584 2531 3537
Q 2872 3491 3272 3391
z
" transform="scale(0.015625)"/>
     </defs>
     <use xlink:href="#DejaVuSans-Bold-52"/>
     <use xlink:href="#DejaVuSans-Bold-65" x="77.001953"/>
     <use xlink:href="#DejaVuSans-Bold-70" x="144.824219"/>
     <use xlink:href="#DejaVuSans-Bold-6f" x="216.40625"/>
     <use xlink:href="#DejaVuSans-Bold-73" x="285.107422"/>
     <use xlink:href="#DejaVuSans-Bold-69" x="344.628906"/>
     <use xlink:href="#DejaVuSans-Bold-74" x="378.90625"/>
     <use xlink:href="#DejaVuSans-Bold-6f" x="426.708984"/>
     <use xlink:href="#DejaVuSans-Bold-72" x="495.410156"/>
     <use xlink:href="#DejaVuSans-Bold-79" x="544.726562"/>
    </g>
   </g>
   <g id="text_10">
    <!-- OpenNeuro -->
    <g style="fill: #101820" transform="translate(54.415488 128.820061) scale(0.067 -0.067)">
     <defs>
      <path id="DejaVuSans-Bold-4f" d="M 2719 3878
Q 2169 3878 1866 3472
Q 1563 3066 1563 2328
Q 1563 1594 1866 1187
Q 2169 781 2719 781
Q 3272 781 3575 1187
Q 3878 1594 3878 2328
Q 3878 3066 3575 3472
Q 3272 3878 2719 3878
z
M 2719 4750
Q 3844 4750 4481 4106
Q 5119 3463 5119 2328
Q 5119 1197 4481 553
Q 3844 -91 2719 -91
Q 1597 -91 958 553
Q 319 1197 319 2328
Q 319 3463 958 4106
Q 1597 4750 2719 4750
z
" transform="scale(0.015625)"/>
      <path id="DejaVuSans-Bold-6e" d="M 4056 2131
L 4056 0
L 2931 0
L 2931 347
L 2931 1631
Q 2931 2084 2911 2256
Q 2891 2428 2841 2509
Q 2775 2619 2662 2680
Q 2550 2741 2406 2741
Q 2056 2741 1856 2470
Q 1656 2200 1656 1722
L 1656 0
L 538 0
L 538 3500
L 1656 3500
L 1656 2988
Q 1909 3294 2193 3439
Q 2478 3584 2822 3584
Q 3428 3584 3742 3212
Q 4056 2841 4056 2131
z
" transform="scale(0.015625)"/>
      <path id="DejaVuSans-Bold-4e" d="M 588 4666
L 1931 4666
L 3628 1466
L 3628 4666
L 4769 4666
L 4769 0
L 3425 0
L 1728 3200
L 1728 0
L 588 0
L 588 4666
z
" transform="scale(0.015625)"/>
     </defs>
     <use xlink:href="#DejaVuSans-Bold-4f"/>
     <use xlink:href="#DejaVuSans-Bold-70" x="85.009766"/>
     <use xlink:href="#DejaVuSans-Bold-65" x="156.591797"/>
     <use xlink:href="#DejaVuSans-Bold-6e" x="224.414062"/>
     <use xlink:href="#DejaVuSans-Bold-4e" x="295.605469"/>
     <use xlink:href="#DejaVuSans-Bold-65" x="379.296875"/>
     <use xlink:href="#DejaVuSans-Bold-75" x="447.119141"/>
     <use xlink:href="#DejaVuSans-Bold-72" x="518.310547"/>
     <use xlink:href="#DejaVuSans-Bold-6f" x="567.626953"/>
    </g>
   </g>
   <g id="text_11">
    <!-- source catalogue -->
    <g style="fill: #667789" transform="translate(51.710668 157.501101) scale(0.056 -0.056)">
     <use xlink:href="#DejaVuSans-73"/>
     <use xlink:href="#DejaVuSans-6f" x="52.099609"/>
     <use xlink:href="#DejaVuSans-75" x="113.28125"/>
     <use xlink:href="#DejaVuSans-72" x="176.660156"/>
     <use xlink:href="#DejaVuSans-63" x="215.523438"/>
     <use xlink:href="#DejaVuSans-65" x="270.503906"/>
     <use xlink:href="#DejaVuSans-20" x="332.027344"/>
     <use xlink:href="#DejaVuSans-63" x="363.814453"/>
     <use xlink:href="#DejaVuSans-61" x="418.794922"/>
     <use xlink:href="#DejaVuSans-74" x="480.074219"/>
     <use xlink:href="#DejaVuSans-61" x="519.283203"/>
     <use xlink:href="#DejaVuSans-6c" x="580.5625"/>
     <use xlink:href="#DejaVuSans-6f" x="608.345703"/>
     <use xlink:href="#DejaVuSans-67" x="669.527344"/>
     <use xlink:href="#DejaVuSans-75" x="733.003906"/>
     <use xlink:href="#DejaVuSans-65" x="796.382812"/>
    </g>
   </g>
   <g id="text_12">
    <!-- Dataset -->
    <g style="fill: #536273" transform="translate(160.629022 101.039958) scale(0.062 -0.062)">
     <defs>
      <path id="DejaVuSans-Bold-44" d="M 1791 3756
L 1791 909
L 2222 909
Q 2959 909 3348 1275
Q 3738 1641 3738 2338
Q 3738 3031 3350 3393
Q 2963 3756 2222 3756
L 1791 3756
z
M 588 4666
L 1856 4666
Q 2919 4666 3439 4514
Q 3959 4363 4331 4000
Q 4659 3684 4818 3271
Q 4978 2859 4978 2338
Q 4978 1809 4818 1395
Q 4659 981 4331 666
Q 3956 303 3431 151
Q 2906 0 1856 0
L 588 0
L 588 4666
z
" transform="scale(0.015625)"/>
     </defs>
     <use xlink:href="#DejaVuSans-Bold-44"/>
     <use xlink:href="#DejaVuSans-Bold-61" x="83.007812"/>
     <use xlink:href="#DejaVuSans-Bold-74" x="150.488281"/>
     <use xlink:href="#DejaVuSans-Bold-61" x="198.291016"/>
     <use xlink:href="#DejaVuSans-Bold-73" x="265.771484"/>
     <use xlink:href="#DejaVuSans-Bold-65" x="325.292969"/>
     <use xlink:href="#DejaVuSans-Bold-74" x="393.115234"/>
    </g>
   </g>
   <g id="text_13">
    <!-- Myconnectome -->
    <g style="fill: #101820" transform="translate(145.799045 128.767717) scale(0.067 -0.067)">
     <defs>
      <path id="DejaVuSans-Bold-63" d="M 3366 3391
L 3366 2478
Q 3138 2634 2908 2709
Q 2678 2784 2431 2784
Q 1963 2784 1702 2511
Q 1441 2238 1441 1747
Q 1441 1256 1702 982
Q 1963 709 2431 709
Q 2694 709 2930 787
Q 3166 866 3366 1019
L 3366 103
Q 3103 6 2833 -42
Q 2563 -91 2291 -91
Q 1344 -91 809 395
Q 275 881 275 1747
Q 275 2613 809 3098
Q 1344 3584 2291 3584
Q 2566 3584 2833 3536
Q 3100 3488 3366 3391
z
" transform="scale(0.015625)"/>
      <path id="DejaVuSans-Bold-6d" d="M 3781 2919
Q 3994 3244 4286 3414
Q 4578 3584 4928 3584
Q 5531 3584 5847 3212
Q 6163 2841 6163 2131
L 6163 0
L 5038 0
L 5038 1825
Q 5041 1866 5042 1909
Q 5044 1953 5044 2034
Q 5044 2406 4934 2573
Q 4825 2741 4581 2741
Q 4263 2741 4089 2478
Q 3916 2216 3909 1719
L 3909 0
L 2784 0
L 2784 1825
Q 2784 2406 2684 2573
Q 2584 2741 2328 2741
Q 2006 2741 1831 2477
Q 1656 2213 1656 1722
L 1656 0
L 531 0
L 531 3500
L 1656 3500
L 1656 2988
Q 1863 3284 2130 3434
Q 2397 3584 2719 3584
Q 3081 3584 3359 3409
Q 3638 3234 3781 2919
z
" transform="scale(0.015625)"/>
     </defs>
     <use xlink:href="#DejaVuSans-Bold-4d"/>
     <use xlink:href="#DejaVuSans-Bold-79" x="99.511719"/>
     <use xlink:href="#DejaVuSans-Bold-63" x="164.697266"/>
     <use xlink:href="#DejaVuSans-Bold-6f" x="223.974609"/>
     <use xlink:href="#DejaVuSans-Bold-6e" x="292.675781"/>
     <use xlink:href="#DejaVuSans-Bold-6e" x="363.867188"/>
     <use xlink:href="#DejaVuSans-Bold-65" x="435.058594"/>
     <use xlink:href="#DejaVuSans-Bold-63" x="502.880859"/>
     <use xlink:href="#DejaVuSans-Bold-74" x="562.158203"/>
     <use xlink:href="#DejaVuSans-Bold-6f" x="609.960938"/>
     <use xlink:href="#DejaVuSans-Bold-6d" x="678.662109"/>
     <use xlink:href="#DejaVuSans-Bold-65" x="782.861328"/>
    </g>
   </g>
   <g id="text_14">
    <!-- 1 subject; 108 -->
    <g style="fill: #667789" transform="translate(154.299913 157.501101) scale(0.056 -0.056)">
     <defs>
      <path id="DejaVuSans-31" d="M 794 531
L 1825 531
L 1825 4091
L 703 3866
L 703 4441
L 1819 4666
L 2450 4666
L 2450 531
L 3481 531
L 3481 0
L 794 0
L 794 531
z
" transform="scale(0.015625)"/>
      <path id="DejaVuSans-6a" d="M 603 3500
L 1178 3500
L 1178 -63
Q 1178 -731 923 -1031
Q 669 -1331 103 -1331
L -116 -1331
L -116 -844
L 38 -844
Q 366 -844 484 -692
Q 603 -541 603 -63
L 603 3500
z
M 603 4863
L 1178 4863
L 1178 4134
L 603 4134
L 603 4863
z
" transform="scale(0.015625)"/>
      <path id="DejaVuSans-3b" d="M 750 3309
L 1409 3309
L 1409 2516
L 750 2516
L 750 3309
z
M 750 794
L 1409 794
L 1409 256
L 897 -744
L 494 -744
L 750 256
L 750 794
z
" transform="scale(0.015625)"/>
      <path id="DejaVuSans-30" d="M 2034 4250
Q 1547 4250 1301 3770
Q 1056 3291 1056 2328
Q 1056 1369 1301 889
Q 1547 409 2034 409
Q 2525 409 2770 889
Q 3016 1369 3016 2328
Q 3016 3291 2770 3770
Q 2525 4250 2034 4250
z
M 2034 4750
Q 2819 4750 3233 4129
Q 3647 3509 3647 2328
Q 3647 1150 3233 529
Q 2819 -91 2034 -91
Q 1250 -91 836 529
Q 422 1150 422 2328
Q 422 3509 836 4129
Q 1250 4750 2034 4750
z
" transform="scale(0.015625)"/>
      <path id="DejaVuSans-38" d="M 2034 2216
Q 1584 2216 1326 1975
Q 1069 1734 1069 1313
Q 1069 891 1326 650
Q 1584 409 2034 409
Q 2484 409 2743 651
Q 3003 894 3003 1313
Q 3003 1734 2745 1975
Q 2488 2216 2034 2216
z
M 1403 2484
Q 997 2584 770 2862
Q 544 3141 544 3541
Q 544 4100 942 4425
Q 1341 4750 2034 4750
Q 2731 4750 3128 4425
Q 3525 4100 3525 3541
Q 3525 3141 3298 2862
Q 3072 2584 2669 2484
Q 3125 2378 3379 2068
Q 3634 1759 3634 1313
Q 3634 634 3220 271
Q 2806 -91 2034 -91
Q 1263 -91 848 271
Q 434 634 434 1313
Q 434 1759 690 2068
Q 947 2378 1403 2484
z
M 1172 3481
Q 1172 3119 1398 2916
Q 1625 2713 2034 2713
Q 2441 2713 2670 2916
Q 2900 3119 2900 3481
Q 2900 3844 2670 4047
Q 2441 4250 2034 4250
Q 1625 4250 1398 4047
Q 1172 3844 1172 3481
z
" transform="scale(0.015625)"/>
     </defs>
     <use xlink:href="#DejaVuSans-31"/>
     <use xlink:href="#DejaVuSans-20" x="63.623047"/>
     <use xlink:href="#DejaVuSans-73" x="95.410156"/>
     <use xlink:href="#DejaVuSans-75" x="147.509766"/>
     <use xlink:href="#DejaVuSans-62" x="210.888672"/>
     <use xlink:href="#DejaVuSans-6a" x="274.365234"/>
     <use xlink:href="#DejaVuSans-65" x="302.148438"/>
     <use xlink:href="#DejaVuSans-63" x="363.671875"/>
     <use xlink:href="#DejaVuSans-74" x="418.652344"/>
     <use xlink:href="#DejaVuSans-3b" x="457.861328"/>
     <use xlink:href="#DejaVuSans-20" x="491.552734"/>
     <use xlink:href="#DejaVuSans-31" x="523.339844"/>
     <use xlink:href="#DejaVuSans-30" x="586.962891"/>
     <use xlink:href="#DejaVuSans-38" x="650.585938"/>
    </g>
    <!-- sessions -->
    <g style="fill: #667789" transform="translate(162.4746 163.771876) scale(0.056 -0.056)">
     <use xlink:href="#DejaVuSans-73"/>
     <use xlink:href="#DejaVuSans-65" x="52.099609"/>
     <use xlink:href="#DejaVuSans-73" x="113.623047"/>
     <use xlink:href="#DejaVuSans-73" x="165.722656"/>
     <use xlink:href="#DejaVuSans-69" x="217.822266"/>
     <use xlink:href="#DejaVuSans-6f" x="245.605469"/>
     <use xlink:href="#DejaVuSans-6e" x="306.787109"/>
     <use xlink:href="#DejaVuSans-73" x="370.166016"/>
    </g>
   </g>
   <g id="text_15">
    <!-- Modality -->
    <g style="fill: #536273" transform="translate(159.143928 212.02056) scale(0.062 -0.062)">
     <defs>
      <path id="DejaVuSans-Bold-64" d="M 2919 2988
L 2919 4863
L 4044 4863
L 4044 0
L 2919 0
L 2919 506
Q 2688 197 2409 53
Q 2131 -91 1766 -91
Q 1119 -91 703 423
Q 288 938 288 1747
Q 288 2556 703 3070
Q 1119 3584 1766 3584
Q 2128 3584 2408 3439
Q 2688 3294 2919 2988
z
M 2181 722
Q 2541 722 2730 984
Q 2919 1247 2919 1747
Q 2919 2247 2730 2509
Q 2541 2772 2181 2772
Q 1825 2772 1636 2509
Q 1447 2247 1447 1747
Q 1447 1247 1636 984
Q 1825 722 2181 722
z
" transform="scale(0.015625)"/>
     </defs>
     <use xlink:href="#DejaVuSans-Bold-4d"/>
     <use xlink:href="#DejaVuSans-Bold-6f" x="99.511719"/>
     <use xlink:href="#DejaVuSans-Bold-64" x="168.212891"/>
     <use xlink:href="#DejaVuSans-Bold-61" x="239.794922"/>
     <use xlink:href="#DejaVuSans-Bold-6c" x="307.275391"/>
     <use xlink:href="#DejaVuSans-Bold-69" x="341.552734"/>
     <use xlink:href="#DejaVuSans-Bold-74" x="375.830078"/>
     <use xlink:href="#DejaVuSans-Bold-79" x="423.632812"/>
    </g>
   </g>
   <g id="text_16">
    <!-- fMRI -->
    <g style="fill: #101820" transform="translate(165.680772 239.849101) scale(0.067 -0.067)">
     <defs>
      <path id="DejaVuSans-Bold-66" d="M 2841 4863
L 2841 4128
L 2222 4128
Q 1984 4128 1890 4042
Q 1797 3956 1797 3744
L 1797 3500
L 2753 3500
L 2753 2700
L 1797 2700
L 1797 0
L 678 0
L 678 2700
L 122 2700
L 122 3500
L 678 3500
L 678 3744
Q 678 4316 997 4589
Q 1316 4863 1984 4863
L 2841 4863
z
" transform="scale(0.015625)"/>
      <path id="DejaVuSans-Bold-49" d="M 588 4666
L 1791 4666
L 1791 0
L 588 0
L 588 4666
z
" transform="scale(0.015625)"/>
     </defs>
     <use xlink:href="#DejaVuSans-Bold-66"/>
     <use xlink:href="#DejaVuSans-Bold-4d" x="43.505859"/>
     <use xlink:href="#DejaVuSans-Bold-52" x="143.017578"/>
     <use xlink:href="#DejaVuSans-Bold-49" x="220.019531"/>
    </g>
   </g>
   <g id="text_17">
    <!-- data type -->
    <g style="fill: #667789" transform="translate(160.84535 268.530141) scale(0.056 -0.056)">
     <use xlink:href="#DejaVuSans-64"/>
     <use xlink:href="#DejaVuSans-61" x="63.476562"/>
     <use xlink:href="#DejaVuSans-74" x="124.755859"/>
     <use xlink:href="#DejaVuSans-61" x="163.964844"/>
     <use xlink:href="#DejaVuSans-20" x="225.244141"/>
     <use xlink:href="#DejaVuSans-74" x="257.03125"/>
     <use xlink:href="#DejaVuSans-79" x="296.240234"/>
     <use xlink:href="#DejaVuSans-70" x="355.419922"/>
     <use xlink:href="#DejaVuSans-65" x="418.896484"/>
    </g>
   </g>
   <g id="text_18">
    <!-- Task -->
    <g style="fill: #536273" transform="translate(269.434004 101.039958) scale(0.062 -0.062)">
     <defs>
      <path id="DejaVuSans-Bold-54" d="M 31 4666
L 4331 4666
L 4331 3756
L 2784 3756
L 2784 0
L 1581 0
L 1581 3756
L 31 3756
L 31 4666
z
" transform="scale(0.015625)"/>
      <path id="DejaVuSans-Bold-6b" d="M 538 4863
L 1656 4863
L 1656 2216
L 2944 3500
L 4244 3500
L 2534 1894
L 4378 0
L 3022 0
L 1656 1459
L 1656 0
L 538 0
L 538 4863
z
" transform="scale(0.015625)"/>
     </defs>
     <use xlink:href="#DejaVuSans-Bold-54"/>
     <use xlink:href="#DejaVuSans-Bold-61" x="55.337891"/>
     <use xlink:href="#DejaVuSans-Bold-73" x="122.818359"/>
     <use xlink:href="#DejaVuSans-Bold-6b" x="182.339844"/>
    </g>
   </g>
   <g id="text_19">
    <!-- n-back task -->
    <g style="fill: #101820" transform="translate(255.251199 128.820061) scale(0.067 -0.067)">
     <defs>
      <path id="DejaVuSans-Bold-62" d="M 2400 722
Q 2759 722 2948 984
Q 3138 1247 3138 1747
Q 3138 2247 2948 2509
Q 2759 2772 2400 2772
Q 2041 2772 1848 2508
Q 1656 2244 1656 1747
Q 1656 1250 1848 986
Q 2041 722 2400 722
z
M 1656 2988
Q 1888 3294 2169 3439
Q 2450 3584 2816 3584
Q 3463 3584 3878 3070
Q 4294 2556 4294 1747
Q 4294 938 3878 423
Q 3463 -91 2816 -91
Q 2450 -91 2169 54
Q 1888 200 1656 506
L 1656 0
L 538 0
L 538 4863
L 1656 4863
L 1656 2988
z
" transform="scale(0.015625)"/>
     </defs>
     <use xlink:href="#DejaVuSans-Bold-6e"/>
     <use xlink:href="#DejaVuSans-Bold-2d" x="71.191406"/>
     <use xlink:href="#DejaVuSans-Bold-62" x="112.695312"/>
     <use xlink:href="#DejaVuSans-Bold-61" x="184.277344"/>
     <use xlink:href="#DejaVuSans-Bold-63" x="251.757812"/>
     <use xlink:href="#DejaVuSans-Bold-6b" x="311.035156"/>
     <use xlink:href="#DejaVuSans-Bold-20" x="377.539062"/>
     <use xlink:href="#DejaVuSans-Bold-74" x="412.353516"/>
     <use xlink:href="#DejaVuSans-Bold-61" x="460.15625"/>
     <use xlink:href="#DejaVuSans-Bold-73" x="527.636719"/>
     <use xlink:href="#DejaVuSans-Bold-6b" x="587.158203"/>
    </g>
   </g>
   <g id="text_20">
    <!-- Working Memory -->
    <g style="fill: #667789" transform="translate(253.450973 157.501101) scale(0.056 -0.056)">
     <defs>
      <path id="DejaVuSans-57" d="M 213 4666
L 850 4666
L 1831 722
L 2809 4666
L 3519 4666
L 4500 722
L 5478 4666
L 6119 4666
L 4947 0
L 4153 0
L 3169 4050
L 2175 0
L 1381 0
L 213 4666
z
" transform="scale(0.015625)"/>
     </defs>
     <use xlink:href="#DejaVuSans-57"/>
     <use xlink:href="#DejaVuSans-6f" x="93.001953"/>
     <use xlink:href="#DejaVuSans-72" x="154.183594"/>
     <use xlink:href="#DejaVuSans-6b" x="195.296875"/>
     <use xlink:href="#DejaVuSans-69" x="253.207031"/>
     <use xlink:href="#DejaVuSans-6e" x="280.990234"/>
     <use xlink:href="#DejaVuSans-67" x="344.369141"/>
     <use xlink:href="#DejaVuSans-20" x="407.845703"/>
     <use xlink:href="#DejaVuSans-4d" x="439.632812"/>
     <use xlink:href="#DejaVuSans-65" x="525.912109"/>
     <use xlink:href="#DejaVuSans-6d" x="587.435547"/>
     <use xlink:href="#DejaVuSans-6f" x="684.847656"/>
     <use xlink:href="#DejaVuSans-72" x="746.029297"/>
     <use xlink:href="#DejaVuSans-79" x="787.142578"/>
    </g>
   </g>
   <g id="text_21">
    <!-- Concept -->
    <g style="fill: #536273" transform="translate(361.460546 101.039958) scale(0.062 -0.062)">
     <defs>
      <path id="DejaVuSans-Bold-43" d="M 4288 256
Q 3956 84 3597 -3
Q 3238 -91 2847 -91
Q 1681 -91 1000 561
Q 319 1213 319 2328
Q 319 3447 1000 4098
Q 1681 4750 2847 4750
Q 3238 4750 3597 4662
Q 3956 4575 4288 4403
L 4288 3438
Q 3953 3666 3628 3772
Q 3303 3878 2944 3878
Q 2300 3878 1931 3465
Q 1563 3053 1563 2328
Q 1563 1606 1931 1193
Q 2300 781 2944 781
Q 3303 781 3628 887
Q 3953 994 4288 1222
L 4288 256
z
" transform="scale(0.015625)"/>
     </defs>
     <use xlink:href="#DejaVuSans-Bold-43"/>
     <use xlink:href="#DejaVuSans-Bold-6f" x="73.388672"/>
     <use xlink:href="#DejaVuSans-Bold-6e" x="142.089844"/>
     <use xlink:href="#DejaVuSans-Bold-63" x="213.28125"/>
     <use xlink:href="#DejaVuSans-Bold-65" x="272.558594"/>
     <use xlink:href="#DejaVuSans-Bold-70" x="340.380859"/>
     <use xlink:href="#DejaVuSans-Bold-74" x="411.962891"/>
    </g>
   </g>
   <g id="text_22">
    <!-- updating -->
    <g style="fill: #101820" transform="translate(358.739772 128.793889) scale(0.067 -0.067)">
     <use xlink:href="#DejaVuSans-Bold-75"/>
     <use xlink:href="#DejaVuSans-Bold-70" x="71.191406"/>
     <use xlink:href="#DejaVuSans-Bold-64" x="142.773438"/>
     <use xlink:href="#DejaVuSans-Bold-61" x="214.355469"/>
     <use xlink:href="#DejaVuSans-Bold-74" x="281.835938"/>
     <use xlink:href="#DejaVuSans-Bold-69" x="329.638672"/>
     <use xlink:href="#DejaVuSans-Bold-6e" x="363.916016"/>
     <use xlink:href="#DejaVuSans-Bold-67" x="435.107422"/>
    </g>
   </g>
   <g id="text_23">
    <!-- scientific construct -->
    <g style="fill: #667789" transform="translate(349.224843 157.501101) scale(0.056 -0.056)">
     <use xlink:href="#DejaVuSans-73"/>
     <use xlink:href="#DejaVuSans-63" x="52.099609"/>
     <use xlink:href="#DejaVuSans-69" x="107.080078"/>
     <use xlink:href="#DejaVuSans-65" x="134.863281"/>
     <use xlink:href="#DejaVuSans-6e" x="196.386719"/>
     <use xlink:href="#DejaVuSans-74" x="259.765625"/>
     <use xlink:href="#DejaVuSans-69" x="298.974609"/>
     <use xlink:href="#DejaVuSans-66" x="326.757812"/>
     <use xlink:href="#DejaVuSans-69" x="361.962891"/>
     <use xlink:href="#DejaVuSans-63" x="389.746094"/>
     <use xlink:href="#DejaVuSans-20" x="444.726562"/>
     <use xlink:href="#DejaVuSans-63" x="476.513672"/>
     <use xlink:href="#DejaVuSans-6f" x="531.494141"/>
     <use xlink:href="#DejaVuSans-6e" x="592.675781"/>
     <use xlink:href="#DejaVuSans-73" x="656.054688"/>
     <use xlink:href="#DejaVuSans-74" x="708.154297"/>
     <use xlink:href="#DejaVuSans-72" x="747.363281"/>
     <use xlink:href="#DejaVuSans-75" x="788.476562"/>
     <use xlink:href="#DejaVuSans-63" x="851.855469"/>
     <use xlink:href="#DejaVuSans-74" x="906.835938"/>
    </g>
   </g>
  </g>
 </g>
 <defs>
  <clipPath id="p318fc7fb7c">
   <rect x="2.88" y="2.88" width="428.544" height="326.556"/>
  </clipPath>
 </defs>
</svg>
