<?xml version="1.0" encoding="utf-8" standalone="no"?>
<!DOCTYPE svg PUBLIC "-//W3C//DTD SVG 1.1//EN"
  "http://www.w3.org/Graphics/SVG/1.1/DTD/svg11.dtd">
<svg xmlns:xlink="http://www.w3.org/1999/xlink" width="841.726788pt" height="625.692562pt" viewBox="0 0 841.726788 625.692562" xmlns="http://www.w3.org/2000/svg" version="1.1">
 <metadata>
  <rdf:RDF xmlns:dc="http://purl.org/dc/elements/1.1/" xmlns:cc="http://creativecommons.org/ns#" xmlns:rdf="http://www.w3.org/1999/02/22-rdf-syntax-ns#">
   <cc:Work>
    <dc:type rdf:resource="http://purl.org/dc/dcmitype/StillImage"/>
    <dc:date>2026-05-03T18:23:22.952392</dc:date>
    <dc:format>image/svg+xml</dc:format>
    <dc:creator>
     <cc:Agent>
      <dc:title>Matplotlib v3.9.4, https://matplotlib.org/</dc:title>
     </cc:Agent>
    </dc:creator>
   </cc:Work>
  </rdf:RDF>
 </metadata>
 <defs>
  <style type="text/css">*{stroke-linejoin: round; stroke-linecap: butt}</style>
 </defs>
 <g id="figure_1">
  <g id="patch_1">
   <path d="M 0 625.692562
L 841.726788 625.692562
L 841.726788 0
L 0 0
z
" style="fill: #f8fbff"/>
  </g>
  <g id="axes_1">
   <g id="patch_2">
    <path d="M 199.924163 529.490779
C 426.472163 529.490779 426.472163 525.021696 653.020162 525.021696
L 653.020162 521.68668
C 426.472163 521.68668 426.472163 526.022362 199.924163 526.022362
z
" clip-path="url(#p942791b548)" style="fill: #c77dff; opacity: 0.38"/>
   </g>
   <g id="patch_3">
    <path d="M 199.924163 526.022362
C 426.472163 526.022362 426.472163 463.389137 653.020162 463.389137
L 653.020162 462.897642
C 426.472163 462.897642 426.472163 525.511208 199.924163 525.511208
z
" clip-path="url(#p942791b548)" style="fill: #c77dff; opacity: 0.38"/>
   </g>
   <g id="patch_4">
    <path d="M 199.924163 495.066153
C 426.472163 495.066153 426.472163 505.547311 653.020162 505.547311
L 653.020162 493.284156
C 426.472163 493.284156 426.472163 482.312471 199.924163 482.312471
z
" clip-path="url(#p942791b548)" style="fill: #20d3b3; opacity: 0.38"/>
   </g>
   <g id="patch_5">
    <path d="M 199.924163 482.312471
C 426.472163 482.312471 426.472163 406.822632 653.020162 406.822632
L 653.020162 397.532066
C 426.472163 397.532066 426.472163 472.650282 199.924163 472.650282
z
" clip-path="url(#p942791b548)" style="fill: #20d3b3; opacity: 0.38"/>
   </g>
   <g id="patch_6">
    <path d="M 199.924163 472.650282
C 426.472163 472.650282 426.472163 521.68668 653.020162 521.68668
L 653.020162 521.652108
C 426.472163 521.652108 426.472163 472.614328 199.924163 472.614328
z
" clip-path="url(#p942791b548)" style="fill: #20d3b3; opacity: 0.38"/>
   </g>
   <g id="patch_7">
    <path d="M 199.924163 421.467835
C 426.472163 421.467835 426.472163 462.897642 653.020162 462.897642
L 653.020162 443.48506
C 426.472163 443.48506 426.472163 401.27875 199.924163 401.27875
z
" clip-path="url(#p942791b548)" style="fill: #6fb6ff; opacity: 0.38"/>
   </g>
   <g id="patch_8">
    <path d="M 199.924163 401.27875
C 426.472163 401.27875 426.472163 397.532066 653.020162 397.532066
L 653.020162 379.160092
C 426.472163 379.160092 426.472163 382.171897 199.924163 382.171897
z
" clip-path="url(#p942791b548)" style="fill: #6fb6ff; opacity: 0.38"/>
   </g>
   <g id="patch_9">
    <path d="M 199.924163 382.171897
C 426.472163 382.171897 426.472163 371.088028 653.020162 371.088028
L 653.020162 352.844545
C 426.472163 352.844545 426.472163 363.198675 199.924163 363.198675
z
" clip-path="url(#p942791b548)" style="fill: #6fb6ff; opacity: 0.38"/>
   </g>
   <g id="patch_10">
    <path d="M 199.924163 355.126611
C 426.472163 355.126611 426.472163 334.357183 653.020162 334.357183
L 653.020162 76.511122
C 426.472163 76.511122 426.472163 86.966709 199.924163 86.966709
z
" clip-path="url(#p942791b548)" style="fill: #4ea5ff; opacity: 0.38"/>
   </g>
   <g id="patch_11">
    <path d="M 199.924163 86.966709
C 426.472163 86.966709 426.472163 352.844545 653.020162 352.844545
L 653.020162 344.651054
C 426.472163 344.651054 426.472163 78.445478 199.924163 78.445478
z
" clip-path="url(#p942791b548)" style="fill: #4ea5ff; opacity: 0.38"/>
   </g>
   <g id="patch_12">
    <path d="M 199.924163 78.445478
C 426.472163 78.445478 426.472163 560.834962 653.020162 560.834962
L 653.020162 558.975005
C 426.472163 558.975005 426.472163 76.511122 199.924163 76.511122
z
" clip-path="url(#p942791b548)" style="fill: #4ea5ff; opacity: 0.38"/>
   </g>
   <g id="patch_13">
    <path d="M 199.924163 517.439144
C 426.472163 517.439144 426.472163 485.212092 653.020162 485.212092
L 653.020162 471.461201
C 426.472163 471.461201 426.472163 503.138217 199.924163 503.138217
z
" clip-path="url(#p942791b548)" style="fill: #66d9e8; opacity: 0.38"/>
   </g>
   <g id="patch_14">
    <path d="M 199.924163 560.834962
C 426.472163 560.834962 426.472163 521.652108 653.020162 521.652108
L 653.020162 520.352213
C 426.472163 520.352213 426.472163 559.483071 199.924163 559.483071
z
" clip-path="url(#p942791b548)" style="fill: #b47cff; opacity: 0.38"/>
   </g>
   <g id="patch_15">
    <path d="M 199.924163 464.542264
C 426.472163 464.542264 426.472163 435.199804 653.020162 435.199804
L 653.020162 414.929268
C 426.472163 414.929268 426.472163 443.460906 199.924163 443.460906
z
" clip-path="url(#p942791b548)" style="fill: #ffb000; opacity: 0.38"/>
   </g>
   <g id="patch_16">
    <path d="M 199.924163 443.460906
C 426.472163 443.460906 426.472163 538.440849 653.020162 538.440849
L 653.020162 533.15426
C 426.472163 533.15426 426.472163 437.962855 199.924163 437.962855
z
" clip-path="url(#p942791b548)" style="fill: #ffb000; opacity: 0.38"/>
   </g>
   <g id="patch_17">
    <path d="M 199.924163 437.962855
C 426.472163 437.962855 426.472163 550.902941 653.020162 550.902941
L 653.020162 546.512913
C 426.472163 546.512913 426.472163 433.397225 199.924163 433.397225
z
" clip-path="url(#p942791b548)" style="fill: #ffb000; opacity: 0.38"/>
   </g>
   <g id="patch_18">
    <path d="M 199.924163 433.397225
C 426.472163 433.397225 426.472163 520.352213 653.020162 520.352213
L 653.020162 516.676089
C 426.472163 516.676089 426.472163 429.574056 199.924163 429.574056
z
" clip-path="url(#p942791b548)" style="fill: #ffb000; opacity: 0.38"/>
   </g>
   <g id="patch_19">
    <path d="M 199.924163 429.574056
C 426.472163 429.574056 426.472163 344.651054 653.020162 344.651054
L 653.020162 344.622821
C 426.472163 344.622821 426.472163 429.544693 199.924163 429.544693
z
" clip-path="url(#p942791b548)" style="fill: #ffb000; opacity: 0.38"/>
   </g>
   <g id="patch_20">
    <path d="M 199.924163 429.544693
C 426.472163 429.544693 426.472163 443.48506 653.020162 443.48506
L 653.020162 443.480451
C 426.472163 443.480451 426.472163 429.539899 199.924163 429.539899
z
" clip-path="url(#p942791b548)" style="fill: #ffb000; opacity: 0.38"/>
   </g>
   <g id="patch_21">
    <path d="M 199.924163 540.883246
C 426.472163 540.883246 426.472163 516.676089 653.020162 516.676089
L 653.020162 513.787048
C 426.472163 513.787048 426.472163 537.878644 199.924163 537.878644
z
" clip-path="url(#p942791b548)" style="fill: #95a3b3; opacity: 0.38"/>
   </g>
   <g id="patch_22">
    <path d="M 199.924163 537.878644
C 426.472163 537.878644 426.472163 443.480451 653.020162 443.480451
L 653.020162 443.271868
C 426.472163 443.271868 426.472163 537.661718 199.924163 537.661718
z
" clip-path="url(#p942791b548)" style="fill: #95a3b3; opacity: 0.38"/>
   </g>
   <g id="patch_23">
    <path d="M 199.924163 537.661718
C 426.472163 537.661718 426.472163 533.15426 653.020162 533.15426
L 653.020162 533.09376
C 426.472163 533.09376 426.472163 537.598797 199.924163 537.598797
z
" clip-path="url(#p942791b548)" style="fill: #95a3b3; opacity: 0.38"/>
   </g>
   <g id="patch_24">
    <path d="M 199.924163 537.598797
C 426.472163 537.598797 426.472163 414.929268 653.020162 414.929268
L 653.020162 414.894696
C 426.472163 414.894696 426.472163 537.562843 199.924163 537.562843
z
" clip-path="url(#p942791b548)" style="fill: #95a3b3; opacity: 0.38"/>
   </g>
   <g id="patch_25">
    <path d="M 199.924163 551.411007
C 426.472163 551.411007 426.472163 344.622821 653.020162 344.622821
L 653.020162 342.429247
C 426.472163 342.429247 426.472163 549.12969 199.924163 549.12969
z
" clip-path="url(#p942791b548)" style="fill: #3b82f6; opacity: 0.38"/>
   </g>
   <g id="patch_26">
    <path d="M 199.924163 549.12969
C 426.472163 549.12969 426.472163 513.787048 653.020162 513.787048
L 653.020162 513.619375
C 426.472163 513.619375 426.472163 548.95531 199.924163 548.95531
z
" clip-path="url(#p942791b548)" style="fill: #3b82f6; opacity: 0.38"/>
   </g>
   <g id="patch_27">
    <path d="M 102.274163 355.126611
L 188.206163 355.126611
L 188.206163 76.511122
L 102.274163 76.511122
z
" clip-path="url(#p942791b548)" style="fill: #4ea5ff; opacity: 0.92; stroke: #ffffff; stroke-width: 0.6; stroke-linejoin: miter"/>
   </g>
   <g id="patch_28">
    <path d="M 102.274163 421.467835
L 188.206163 421.467835
L 188.206163 363.198675
L 102.274163 363.198675
z
" clip-path="url(#p942791b548)" style="fill: #6fb6ff; opacity: 0.92; stroke: #ffffff; stroke-width: 0.6; stroke-linejoin: miter"/>
   </g>
   <g id="patch_29">
    <path d="M 102.274163 464.542264
L 188.206163 464.542264
L 188.206163 429.539899
L 102.274163 429.539899
z
" clip-path="url(#p942791b548)" style="fill: #ffb000; opacity: 0.92; stroke: #ffffff; stroke-width: 0.6; stroke-linejoin: miter"/>
   </g>
   <g id="patch_30">
    <path d="M 102.274163 495.066153
L 188.206163 495.066153
L 188.206163 472.614328
L 102.274163 472.614328
z
" clip-path="url(#p942791b548)" style="fill: #20d3b3; opacity: 0.92; stroke: #ffffff; stroke-width: 0.6; stroke-linejoin: miter"/>
   </g>
   <g id="patch_31">
    <path d="M 102.274163 517.439144
L 188.206163 517.439144
L 188.206163 503.138217
L 102.274163 503.138217
z
" clip-path="url(#p942791b548)" style="fill: #66d9e8; opacity: 0.92; stroke: #ffffff; stroke-width: 0.6; stroke-linejoin: miter"/>
   </g>
   <g id="patch_32">
    <path d="M 102.274163 529.490779
L 188.206163 529.490779
L 188.206163 525.511208
L 102.274163 525.511208
z
" clip-path="url(#p942791b548)" style="fill: #c77dff; opacity: 0.92; stroke: #ffffff; stroke-width: 0.6; stroke-linejoin: miter"/>
   </g>
   <g id="patch_33">
    <path d="M 102.274163 540.883246
L 188.206163 540.883246
L 188.206163 537.562843
L 102.274163 537.562843
z
" clip-path="url(#p942791b548)" style="fill: #95a3b3; opacity: 0.92; stroke: #ffffff; stroke-width: 0.6; stroke-linejoin: miter"/>
   </g>
   <g id="patch_34">
    <path d="M 102.274163 551.411007
L 188.206163 551.411007
L 188.206163 548.95531
L 102.274163 548.95531
z
" clip-path="url(#p942791b548)" style="fill: #3b82f6; opacity: 0.92; stroke: #ffffff; stroke-width: 0.6; stroke-linejoin: miter"/>
   </g>
   <g id="patch_35">
    <path d="M 102.274163 560.834962
L 188.206163 560.834962
L 188.206163 559.483071
L 102.274163 559.483071
z
" clip-path="url(#p942791b548)" style="fill: #b47cff; opacity: 0.92; stroke: #ffffff; stroke-width: 0.6; stroke-linejoin: miter"/>
   </g>
   <g id="patch_36">
    <path d="M 664.738163 334.357183
L 758.482163 334.357183
L 758.482163 76.511122
L 664.738163 76.511122
z
" clip-path="url(#p942791b548)" style="fill: #263645; opacity: 0.82; stroke: #ffffff; stroke-width: 0.6; stroke-linejoin: miter"/>
   </g>
   <g id="patch_37">
    <path d="M 664.738163 371.088028
L 758.482163 371.088028
L 758.482163 342.429247
L 664.738163 342.429247
z
" clip-path="url(#p942791b548)" style="fill: #263645; opacity: 0.82; stroke: #ffffff; stroke-width: 0.6; stroke-linejoin: miter"/>
   </g>
   <g id="patch_38">
    <path d="M 664.738163 406.822632
L 758.482163 406.822632
L 758.482163 379.160092
L 664.738163 379.160092
z
" clip-path="url(#p942791b548)" style="fill: #263645; opacity: 0.82; stroke: #ffffff; stroke-width: 0.6; stroke-linejoin: miter"/>
   </g>
   <g id="patch_39">
    <path d="M 664.738163 435.199804
L 758.482163 435.199804
L 758.482163 414.894696
L 664.738163 414.894696
z
" clip-path="url(#p942791b548)" style="fill: #263645; opacity: 0.82; stroke: #ffffff; stroke-width: 0.6; stroke-linejoin: miter"/>
   </g>
   <g id="patch_40">
    <path d="M 664.738163 463.389137
L 758.482163 463.389137
L 758.482163 443.271868
L 664.738163 443.271868
z
" clip-path="url(#p942791b548)" style="fill: #263645; opacity: 0.82; stroke: #ffffff; stroke-width: 0.6; stroke-linejoin: miter"/>
   </g>
   <g id="patch_41">
    <path d="M 664.738163 485.212092
L 758.482163 485.212092
L 758.482163 471.461201
L 664.738163 471.461201
z
" clip-path="url(#p942791b548)" style="fill: #263645; opacity: 0.82; stroke: #ffffff; stroke-width: 0.6; stroke-linejoin: miter"/>
   </g>
   <g id="patch_42">
    <path d="M 664.738163 505.547311
L 758.482163 505.547311
L 758.482163 493.284156
L 664.738163 493.284156
z
" clip-path="url(#p942791b548)" style="fill: #263645; opacity: 0.82; stroke: #ffffff; stroke-width: 0.6; stroke-linejoin: miter"/>
   </g>
   <g id="patch_43">
    <path d="M 664.738163 525.021696
L 758.482163 525.021696
L 758.482163 513.619375
L 664.738163 513.619375
z
" clip-path="url(#p942791b548)" style="fill: #263645; opacity: 0.82; stroke: #ffffff; stroke-width: 0.6; stroke-linejoin: miter"/>
   </g>
   <g id="patch_44">
    <path d="M 664.738163 538.440849
L 758.482163 538.440849
L 758.482163 533.09376
L 664.738163 533.09376
z
" clip-path="url(#p942791b548)" style="fill: #263645; opacity: 0.82; stroke: #ffffff; stroke-width: 0.6; stroke-linejoin: miter"/>
   </g>
   <g id="patch_45">
    <path d="M 664.738163 550.902941
L 758.482163 550.902941
L 758.482163 546.512913
L 664.738163 546.512913
z
" clip-path="url(#p942791b548)" style="fill: #263645; opacity: 0.82; stroke: #ffffff; stroke-width: 0.6; stroke-linejoin: miter"/>
   </g>
   <g id="patch_46">
    <path d="M 664.738163 560.834962
L 758.482163 560.834962
L 758.482163 558.975005
L 664.738163 558.975005
z
" clip-path="url(#p942791b548)" style="fill: #263645; opacity: 0.82; stroke: #ffffff; stroke-width: 0.6; stroke-linejoin: miter"/>
   </g>
   <g id="text_1">
    <!-- Neurosynth -->
    <g style="fill: #263645" transform="translate(46.402563 211.454736) scale(0.086 -0.086)">
     <defs>
      <path id="DejaVuSans-4e" d="M 628 4666
L 1478 4666
L 3547 763
L 3547 4666
L 4159 4666
L 4159 0
L 3309 0
L 1241 3903
L 1241 0
L 628 0
L 628 4666
z
" transform="scale(0.015625)"/>
      <path id="DejaVuSans-65" d="M 3597 1894
L 3597 1613
L 953 1613
Q 991 1019 1311 708
Q 1631 397 2203 397
Q 2534 397 2845 478
Q 3156 559 3463 722
L 3463 178
Q 3153 47 2828 -22
Q 2503 -91 2169 -91
Q 1331 -91 842 396
Q 353 884 353 1716
Q 353 2575 817 3079
Q 1281 3584 2069 3584
Q 2775 3584 3186 3129
Q 3597 2675 3597 1894
z
M 3022 2063
Q 3016 2534 2758 2815
Q 2500 3097 2075 3097
Q 1594 3097 1305 2825
Q 1016 2553 972 2059
L 3022 2063
z
" transform="scale(0.015625)"/>
      <path id="DejaVuSans-75" d="M 544 1381
L 544 3500
L 1119 3500
L 1119 1403
Q 1119 906 1312 657
Q 1506 409 1894 409
Q 2359 409 2629 706
Q 2900 1003 2900 1516
L 2900 3500
L 3475 3500
L 3475 0
L 2900 0
L 2900 538
Q 2691 219 2414 64
Q 2138 -91 1772 -91
Q 1169 -91 856 284
Q 544 659 544 1381
z
M 1991 3584
L 1991 3584
z
" transform="scale(0.015625)"/>
      <path id="DejaVuSans-72" d="M 2631 2963
Q 2534 3019 2420 3045
Q 2306 3072 2169 3072
Q 1681 3072 1420 2755
Q 1159 2438 1159 1844
L 1159 0
L 581 0
L 581 3500
L 1159 3500
L 1159 2956
Q 1341 3275 1631 3429
Q 1922 3584 2338 3584
Q 2397 3584 2469 3576
Q 2541 3569 2628 3553
L 2631 2963
z
" transform="scale(0.015625)"/>
      <path id="DejaVuSans-6f" d="M 1959 3097
Q 1497 3097 1228 2736
Q 959 2375 959 1747
Q 959 1119 1226 758
Q 1494 397 1959 397
Q 2419 397 2687 759
Q 2956 1122 2956 1747
Q 2956 2369 2687 2733
Q 2419 3097 1959 3097
z
M 1959 3584
Q 2709 3584 3137 3096
Q 3566 2609 3566 1747
Q 3566 888 3137 398
Q 2709 -91 1959 -91
Q 1206 -91 779 398
Q 353 888 353 1747
Q 353 2609 779 3096
Q 1206 3584 1959 3584
z
" transform="scale(0.015625)"/>
      <path id="DejaVuSans-73" d="M 2834 3397
L 2834 2853
Q 2591 2978 2328 3040
Q 2066 3103 1784 3103
Q 1356 3103 1142 2972
Q 928 2841 928 2578
Q 928 2378 1081 2264
Q 1234 2150 1697 2047
L 1894 2003
Q 2506 1872 2764 1633
Q 3022 1394 3022 966
Q 3022 478 2636 193
Q 2250 -91 1575 -91
Q 1294 -91 989 -36
Q 684 19 347 128
L 347 722
Q 666 556 975 473
Q 1284 391 1588 391
Q 1994 391 2212 530
Q 2431 669 2431 922
Q 2431 1156 2273 1281
Q 2116 1406 1581 1522
L 1381 1569
Q 847 1681 609 1914
Q 372 2147 372 2553
Q 372 3047 722 3315
Q 1072 3584 1716 3584
Q 2034 3584 2315 3537
Q 2597 3491 2834 3397
z
" transform="scale(0.015625)"/>
      <path id="DejaVuSans-79" d="M 2059 -325
Q 1816 -950 1584 -1140
Q 1353 -1331 966 -1331
L 506 -1331
L 506 -850
L 844 -850
Q 1081 -850 1212 -737
Q 1344 -625 1503 -206
L 1606 56
L 191 3500
L 800 3500
L 1894 763
L 2988 3500
L 3597 3500
L 2059 -325
z
" transform="scale(0.015625)"/>
      <path id="DejaVuSans-6e" d="M 3513 2113
L 3513 0
L 2938 0
L 2938 2094
Q 2938 2591 2744 2837
Q 2550 3084 2163 3084
Q 1697 3084 1428 2787
Q 1159 2491 1159 1978
L 1159 0
L 581 0
L 581 3500
L 1159 3500
L 1159 2956
Q 1366 3272 1645 3428
Q 1925 3584 2291 3584
Q 2894 3584 3203 3211
Q 3513 2838 3513 2113
z
" transform="scale(0.015625)"/>
      <path id="DejaVuSans-74" d="M 1172 4494
L 1172 3500
L 2356 3500
L 2356 3053
L 1172 3053
L 1172 1153
Q 1172 725 1289 603
Q 1406 481 1766 481
L 2356 481
L 2356 0
L 1766 0
Q 1100 0 847 248
Q 594 497 594 1153
L 594 3053
L 172 3053
L 172 3500
L 594 3500
L 594 4494
L 1172 4494
z
" transform="scale(0.015625)"/>
      <path id="DejaVuSans-68" d="M 3513 2113
L 3513 0
L 2938 0
L 2938 2094
Q 2938 2591 2744 2837
Q 2550 3084 2163 3084
Q 1697 3084 1428 2787
Q 1159 2491 1159 1978
L 1159 0
L 581 0
L 581 4863
L 1159 4863
L 1159 2956
Q 1366 3272 1645 3428
Q 1925 3584 2291 3584
Q 2894 3584 3203 3211
Q 3513 2838 3513 2113
z
" transform="scale(0.015625)"/>
     </defs>
     <use xlink:href="#DejaVuSans-4e"/>
     <use xlink:href="#DejaVuSans-65" x="74.804688"/>
     <use xlink:href="#DejaVuSans-75" x="136.328125"/>
     <use xlink:href="#DejaVuSans-72" x="199.707031"/>
     <use xlink:href="#DejaVuSans-6f" x="238.570312"/>
     <use xlink:href="#DejaVuSans-73" x="299.751953"/>
     <use xlink:href="#DejaVuSans-79" x="351.851562"/>
     <use xlink:href="#DejaVuSans-6e" x="411.03125"/>
     <use xlink:href="#DejaVuSans-74" x="474.410156"/>
     <use xlink:href="#DejaVuSans-68" x="513.619141"/>
    </g>
    <!-- 465k -->
    <g style="fill: #263645" transform="translate(74.629375 221.084855) scale(0.086 -0.086)">
     <defs>
      <path id="DejaVuSans-34" d="M 2419 4116
L 825 1625
L 2419 1625
L 2419 4116
z
M 2253 4666
L 3047 4666
L 3047 1625
L 3713 1625
L 3713 1100
L 3047 1100
L 3047 0
L 2419 0
L 2419 1100
L 313 1100
L 313 1709
L 2253 4666
z
" transform="scale(0.015625)"/>
      <path id="DejaVuSans-36" d="M 2113 2584
Q 1688 2584 1439 2293
Q 1191 2003 1191 1497
Q 1191 994 1439 701
Q 1688 409 2113 409
Q 2538 409 2786 701
Q 3034 994 3034 1497
Q 3034 2003 2786 2293
Q 2538 2584 2113 2584
z
M 3366 4563
L 3366 3988
Q 3128 4100 2886 4159
Q 2644 4219 2406 4219
Q 1781 4219 1451 3797
Q 1122 3375 1075 2522
Q 1259 2794 1537 2939
Q 1816 3084 2150 3084
Q 2853 3084 3261 2657
Q 3669 2231 3669 1497
Q 3669 778 3244 343
Q 2819 -91 2113 -91
Q 1303 -91 875 529
Q 447 1150 447 2328
Q 447 3434 972 4092
Q 1497 4750 2381 4750
Q 2619 4750 2861 4703
Q 3103 4656 3366 4563
z
" transform="scale(0.015625)"/>
      <path id="DejaVuSans-35" d="M 691 4666
L 3169 4666
L 3169 4134
L 1269 4134
L 1269 2991
Q 1406 3038 1543 3061
Q 1681 3084 1819 3084
Q 2600 3084 3056 2656
Q 3513 2228 3513 1497
Q 3513 744 3044 326
Q 2575 -91 1722 -91
Q 1428 -91 1123 -41
Q 819 9 494 109
L 494 744
Q 775 591 1075 516
Q 1375 441 1709 441
Q 2250 441 2565 725
Q 2881 1009 2881 1497
Q 2881 1984 2565 2268
Q 2250 2553 1709 2553
Q 1456 2553 1204 2497
Q 953 2441 691 2322
L 691 4666
z
" transform="scale(0.015625)"/>
      <path id="DejaVuSans-6b" d="M 581 4863
L 1159 4863
L 1159 1991
L 2875 3500
L 3609 3500
L 1753 1863
L 3688 0
L 2938 0
L 1159 1709
L 1159 0
L 581 0
L 581 4863
z
" transform="scale(0.015625)"/>
     </defs>
     <use xlink:href="#DejaVuSans-34"/>
     <use xlink:href="#DejaVuSans-36" x="63.623047"/>
     <use xlink:href="#DejaVuSans-35" x="127.246094"/>
     <use xlink:href="#DejaVuSans-6b" x="190.869141"/>
    </g>
   </g>
   <g id="text_2">
    <!-- Neurostore -->
    <g style="fill: #263645" transform="translate(48.497469 387.969124) scale(0.086 -0.086)">
     <use xlink:href="#DejaVuSans-4e"/>
     <use xlink:href="#DejaVuSans-65" x="74.804688"/>
     <use xlink:href="#DejaVuSans-75" x="136.328125"/>
     <use xlink:href="#DejaVuSans-72" x="199.707031"/>
     <use xlink:href="#DejaVuSans-6f" x="238.570312"/>
     <use xlink:href="#DejaVuSans-73" x="299.751953"/>
     <use xlink:href="#DejaVuSans-74" x="351.851562"/>
     <use xlink:href="#DejaVuSans-6f" x="391.060547"/>
     <use xlink:href="#DejaVuSans-72" x="452.242188"/>
     <use xlink:href="#DejaVuSans-65" x="491.105469"/>
    </g>
    <!-- 97k -->
    <g style="fill: #263645" transform="translate(80.101125 397.599243) scale(0.086 -0.086)">
     <defs>
      <path id="DejaVuSans-39" d="M 703 97
L 703 672
Q 941 559 1184 500
Q 1428 441 1663 441
Q 2288 441 2617 861
Q 2947 1281 2994 2138
Q 2813 1869 2534 1725
Q 2256 1581 1919 1581
Q 1219 1581 811 2004
Q 403 2428 403 3163
Q 403 3881 828 4315
Q 1253 4750 1959 4750
Q 2769 4750 3195 4129
Q 3622 3509 3622 2328
Q 3622 1225 3098 567
Q 2575 -91 1691 -91
Q 1453 -91 1209 -44
Q 966 3 703 97
z
M 1959 2075
Q 2384 2075 2632 2365
Q 2881 2656 2881 3163
Q 2881 3666 2632 3958
Q 2384 4250 1959 4250
Q 1534 4250 1286 3958
Q 1038 3666 1038 3163
Q 1038 2656 1286 2365
Q 1534 2075 1959 2075
z
" transform="scale(0.015625)"/>
      <path id="DejaVuSans-37" d="M 525 4666
L 3525 4666
L 3525 4397
L 1831 0
L 1172 0
L 2766 4134
L 525 4134
L 525 4666
z
" transform="scale(0.015625)"/>
     </defs>
     <use xlink:href="#DejaVuSans-39"/>
     <use xlink:href="#DejaVuSans-37" x="63.623047"/>
     <use xlink:href="#DejaVuSans-6b" x="127.246094"/>
    </g>
   </g>
   <g id="text_3">
    <!-- OpenNeuro / GLM -->
    <g style="fill: #263645" transform="translate(20.034156 442.67695) scale(0.086 -0.086)">
     <defs>
      <path id="DejaVuSans-4f" d="M 2522 4238
Q 1834 4238 1429 3725
Q 1025 3213 1025 2328
Q 1025 1447 1429 934
Q 1834 422 2522 422
Q 3209 422 3611 934
Q 4013 1447 4013 2328
Q 4013 3213 3611 3725
Q 3209 4238 2522 4238
z
M 2522 4750
Q 3503 4750 4090 4092
Q 4678 3434 4678 2328
Q 4678 1225 4090 567
Q 3503 -91 2522 -91
Q 1538 -91 948 565
Q 359 1222 359 2328
Q 359 3434 948 4092
Q 1538 4750 2522 4750
z
" transform="scale(0.015625)"/>
      <path id="DejaVuSans-70" d="M 1159 525
L 1159 -1331
L 581 -1331
L 581 3500
L 1159 3500
L 1159 2969
Q 1341 3281 1617 3432
Q 1894 3584 2278 3584
Q 2916 3584 3314 3078
Q 3713 2572 3713 1747
Q 3713 922 3314 415
Q 2916 -91 2278 -91
Q 1894 -91 1617 61
Q 1341 213 1159 525
z
M 3116 1747
Q 3116 2381 2855 2742
Q 2594 3103 2138 3103
Q 1681 3103 1420 2742
Q 1159 2381 1159 1747
Q 1159 1113 1420 752
Q 1681 391 2138 391
Q 2594 391 2855 752
Q 3116 1113 3116 1747
z
" transform="scale(0.015625)"/>
      <path id="DejaVuSans-20" transform="scale(0.015625)"/>
      <path id="DejaVuSans-2f" d="M 1625 4666
L 2156 4666
L 531 -594
L 0 -594
L 1625 4666
z
" transform="scale(0.015625)"/>
      <path id="DejaVuSans-47" d="M 3809 666
L 3809 1919
L 2778 1919
L 2778 2438
L 4434 2438
L 4434 434
Q 4069 175 3628 42
Q 3188 -91 2688 -91
Q 1594 -91 976 548
Q 359 1188 359 2328
Q 359 3472 976 4111
Q 1594 4750 2688 4750
Q 3144 4750 3555 4637
Q 3966 4525 4313 4306
L 4313 3634
Q 3963 3931 3569 4081
Q 3175 4231 2741 4231
Q 1884 4231 1454 3753
Q 1025 3275 1025 2328
Q 1025 1384 1454 906
Q 1884 428 2741 428
Q 3075 428 3337 486
Q 3600 544 3809 666
z
" transform="scale(0.015625)"/>
      <path id="DejaVuSans-4c" d="M 628 4666
L 1259 4666
L 1259 531
L 3531 531
L 3531 0
L 628 0
L 628 4666
z
" transform="scale(0.015625)"/>
      <path id="DejaVuSans-4d" d="M 628 4666
L 1569 4666
L 2759 1491
L 3956 4666
L 4897 4666
L 4897 0
L 4281 0
L 4281 4097
L 3078 897
L 2444 897
L 1241 4097
L 1241 0
L 628 0
L 628 4666
z
" transform="scale(0.015625)"/>
     </defs>
     <use xlink:href="#DejaVuSans-4f"/>
     <use xlink:href="#DejaVuSans-70" x="78.710938"/>
     <use xlink:href="#DejaVuSans-65" x="142.1875"/>
     <use xlink:href="#DejaVuSans-6e" x="203.710938"/>
     <use xlink:href="#DejaVuSans-4e" x="267.089844"/>
     <use xlink:href="#DejaVuSans-65" x="341.894531"/>
     <use xlink:href="#DejaVuSans-75" x="403.417969"/>
     <use xlink:href="#DejaVuSans-72" x="466.796875"/>
     <use xlink:href="#DejaVuSans-6f" x="505.660156"/>
     <use xlink:href="#DejaVuSans-20" x="566.841797"/>
     <use xlink:href="#DejaVuSans-2f" x="598.628906"/>
     <use xlink:href="#DejaVuSans-20" x="632.320312"/>
     <use xlink:href="#DejaVuSans-47" x="664.107422"/>
     <use xlink:href="#DejaVuSans-4c" x="741.597656"/>
     <use xlink:href="#DejaVuSans-4d" x="797.310547"/>
    </g>
    <!-- 58k -->
    <g style="fill: #263645" transform="translate(80.101125 452.307069) scale(0.086 -0.086)">
     <defs>
      <path id="DejaVuSans-38" d="M 2034 2216
Q 1584 2216 1326 1975
Q 1069 1734 1069 1313
Q 1069 891 1326 650
Q 1584 409 2034 409
Q 2484 409 2743 651
Q 3003 894 3003 1313
Q 3003 1734 2745 1975
Q 2488 2216 2034 2216
z
M 1403 2484
Q 997 2584 770 2862
Q 544 3141 544 3541
Q 544 4100 942 4425
Q 1341 4750 2034 4750
Q 2731 4750 3128 4425
Q 3525 4100 3525 3541
Q 3525 3141 3298 2862
Q 3072 2584 2669 2484
Q 3125 2378 3379 2068
Q 3634 1759 3634 1313
Q 3634 634 3220 271
Q 2806 -91 2034 -91
Q 1263 -91 848 271
Q 434 634 434 1313
Q 434 1759 690 2068
Q 947 2378 1403 2484
z
M 1172 3481
Q 1172 3119 1398 2916
Q 1625 2713 2034 2713
Q 2441 2713 2670 2916
Q 2900 3119 2900 3481
Q 2900 3844 2670 4047
Q 2441 4250 2034 4250
Q 1625 4250 1398 4047
Q 1172 3844 1172 3481
z
" transform="scale(0.015625)"/>
     </defs>
     <use xlink:href="#DejaVuSans-35"/>
     <use xlink:href="#DejaVuSans-38" x="63.623047"/>
     <use xlink:href="#DejaVuSans-6b" x="127.246094"/>
    </g>
   </g>
   <g id="text_4">
    <!-- NeuroVault -->
    <g style="fill: #263645" transform="translate(48.547188 479.476109) scale(0.086 -0.086)">
     <defs>
      <path id="DejaVuSans-56" d="M 1831 0
L 50 4666
L 709 4666
L 2188 738
L 3669 4666
L 4325 4666
L 2547 0
L 1831 0
z
" transform="scale(0.015625)"/>
      <path id="DejaVuSans-61" d="M 2194 1759
Q 1497 1759 1228 1600
Q 959 1441 959 1056
Q 959 750 1161 570
Q 1363 391 1709 391
Q 2188 391 2477 730
Q 2766 1069 2766 1631
L 2766 1759
L 2194 1759
z
M 3341 1997
L 3341 0
L 2766 0
L 2766 531
Q 2569 213 2275 61
Q 1981 -91 1556 -91
Q 1019 -91 701 211
Q 384 513 384 1019
Q 384 1609 779 1909
Q 1175 2209 1959 2209
L 2766 2209
L 2766 2266
Q 2766 2663 2505 2880
Q 2244 3097 1772 3097
Q 1472 3097 1187 3025
Q 903 2953 641 2809
L 641 3341
Q 956 3463 1253 3523
Q 1550 3584 1831 3584
Q 2591 3584 2966 3190
Q 3341 2797 3341 1997
z
" transform="scale(0.015625)"/>
      <path id="DejaVuSans-6c" d="M 603 4863
L 1178 4863
L 1178 0
L 603 0
L 603 4863
z
" transform="scale(0.015625)"/>
     </defs>
     <use xlink:href="#DejaVuSans-4e"/>
     <use xlink:href="#DejaVuSans-65" x="74.804688"/>
     <use xlink:href="#DejaVuSans-75" x="136.328125"/>
     <use xlink:href="#DejaVuSans-72" x="199.707031"/>
     <use xlink:href="#DejaVuSans-6f" x="238.570312"/>
     <use xlink:href="#DejaVuSans-56" x="299.751953"/>
     <use xlink:href="#DejaVuSans-61" x="360.410156"/>
     <use xlink:href="#DejaVuSans-75" x="421.689453"/>
     <use xlink:href="#DejaVuSans-6c" x="485.068359"/>
     <use xlink:href="#DejaVuSans-74" x="512.851562"/>
    </g>
    <!-- 37k -->
    <g style="fill: #263645" transform="translate(80.101125 489.106228) scale(0.086 -0.086)">
     <defs>
      <path id="DejaVuSans-33" d="M 2597 2516
Q 3050 2419 3304 2112
Q 3559 1806 3559 1356
Q 3559 666 3084 287
Q 2609 -91 1734 -91
Q 1441 -91 1130 -33
Q 819 25 488 141
L 488 750
Q 750 597 1062 519
Q 1375 441 1716 441
Q 2309 441 2620 675
Q 2931 909 2931 1356
Q 2931 1769 2642 2001
Q 2353 2234 1838 2234
L 1294 2234
L 1294 2753
L 1863 2753
Q 2328 2753 2575 2939
Q 2822 3125 2822 3475
Q 2822 3834 2567 4026
Q 2313 4219 1838 4219
Q 1578 4219 1281 4162
Q 984 4106 628 3988
L 628 4550
Q 988 4650 1302 4700
Q 1616 4750 1894 4750
Q 2613 4750 3031 4423
Q 3450 4097 3450 3541
Q 3450 3153 3228 2886
Q 3006 2619 2597 2516
z
" transform="scale(0.015625)"/>
     </defs>
     <use xlink:href="#DejaVuSans-33"/>
     <use xlink:href="#DejaVuSans-37" x="63.623047"/>
     <use xlink:href="#DejaVuSans-6b" x="127.246094"/>
    </g>
   </g>
   <g id="text_5">
    <!-- NiCLIP / embeddings -->
    <g style="fill: #263645" transform="translate(7.2 505.92455) scale(0.086 -0.086)">
     <defs>
      <path id="DejaVuSans-69" d="M 603 3500
L 1178 3500
L 1178 0
L 603 0
L 603 3500
z
M 603 4863
L 1178 4863
L 1178 4134
L 603 4134
L 603 4863
z
" transform="scale(0.015625)"/>
      <path id="DejaVuSans-43" d="M 4122 4306
L 4122 3641
Q 3803 3938 3442 4084
Q 3081 4231 2675 4231
Q 1875 4231 1450 3742
Q 1025 3253 1025 2328
Q 1025 1406 1450 917
Q 1875 428 2675 428
Q 3081 428 3442 575
Q 3803 722 4122 1019
L 4122 359
Q 3791 134 3420 21
Q 3050 -91 2638 -91
Q 1578 -91 968 557
Q 359 1206 359 2328
Q 359 3453 968 4101
Q 1578 4750 2638 4750
Q 3056 4750 3426 4639
Q 3797 4528 4122 4306
z
" transform="scale(0.015625)"/>
      <path id="DejaVuSans-49" d="M 628 4666
L 1259 4666
L 1259 0
L 628 0
L 628 4666
z
" transform="scale(0.015625)"/>
      <path id="DejaVuSans-50" d="M 1259 4147
L 1259 2394
L 2053 2394
Q 2494 2394 2734 2622
Q 2975 2850 2975 3272
Q 2975 3691 2734 3919
Q 2494 4147 2053 4147
L 1259 4147
z
M 628 4666
L 2053 4666
Q 2838 4666 3239 4311
Q 3641 3956 3641 3272
Q 3641 2581 3239 2228
Q 2838 1875 2053 1875
L 1259 1875
L 1259 0
L 628 0
L 628 4666
z
" transform="scale(0.015625)"/>
      <path id="DejaVuSans-6d" d="M 3328 2828
Q 3544 3216 3844 3400
Q 4144 3584 4550 3584
Q 5097 3584 5394 3201
Q 5691 2819 5691 2113
L 5691 0
L 5113 0
L 5113 2094
Q 5113 2597 4934 2840
Q 4756 3084 4391 3084
Q 3944 3084 3684 2787
Q 3425 2491 3425 1978
L 3425 0
L 2847 0
L 2847 2094
Q 2847 2600 2669 2842
Q 2491 3084 2119 3084
Q 1678 3084 1418 2786
Q 1159 2488 1159 1978
L 1159 0
L 581 0
L 581 3500
L 1159 3500
L 1159 2956
Q 1356 3278 1631 3431
Q 1906 3584 2284 3584
Q 2666 3584 2933 3390
Q 3200 3197 3328 2828
z
" transform="scale(0.015625)"/>
      <path id="DejaVuSans-62" d="M 3116 1747
Q 3116 2381 2855 2742
Q 2594 3103 2138 3103
Q 1681 3103 1420 2742
Q 1159 2381 1159 1747
Q 1159 1113 1420 752
Q 1681 391 2138 391
Q 2594 391 2855 752
Q 3116 1113 3116 1747
z
M 1159 2969
Q 1341 3281 1617 3432
Q 1894 3584 2278 3584
Q 2916 3584 3314 3078
Q 3713 2572 3713 1747
Q 3713 922 3314 415
Q 2916 -91 2278 -91
Q 1894 -91 1617 61
Q 1341 213 1159 525
L 1159 0
L 581 0
L 581 4863
L 1159 4863
L 1159 2969
z
" transform="scale(0.015625)"/>
      <path id="DejaVuSans-64" d="M 2906 2969
L 2906 4863
L 3481 4863
L 3481 0
L 2906 0
L 2906 525
Q 2725 213 2448 61
Q 2172 -91 1784 -91
Q 1150 -91 751 415
Q 353 922 353 1747
Q 353 2572 751 3078
Q 1150 3584 1784 3584
Q 2172 3584 2448 3432
Q 2725 3281 2906 2969
z
M 947 1747
Q 947 1113 1208 752
Q 1469 391 1925 391
Q 2381 391 2643 752
Q 2906 1113 2906 1747
Q 2906 2381 2643 2742
Q 2381 3103 1925 3103
Q 1469 3103 1208 2742
Q 947 2381 947 1747
z
" transform="scale(0.015625)"/>
      <path id="DejaVuSans-67" d="M 2906 1791
Q 2906 2416 2648 2759
Q 2391 3103 1925 3103
Q 1463 3103 1205 2759
Q 947 2416 947 1791
Q 947 1169 1205 825
Q 1463 481 1925 481
Q 2391 481 2648 825
Q 2906 1169 2906 1791
z
M 3481 434
Q 3481 -459 3084 -895
Q 2688 -1331 1869 -1331
Q 1566 -1331 1297 -1286
Q 1028 -1241 775 -1147
L 775 -588
Q 1028 -725 1275 -790
Q 1522 -856 1778 -856
Q 2344 -856 2625 -561
Q 2906 -266 2906 331
L 2906 616
Q 2728 306 2450 153
Q 2172 0 1784 0
Q 1141 0 747 490
Q 353 981 353 1791
Q 353 2603 747 3093
Q 1141 3584 1784 3584
Q 2172 3584 2450 3431
Q 2728 3278 2906 2969
L 2906 3500
L 3481 3500
L 3481 434
z
" transform="scale(0.015625)"/>
     </defs>
     <use xlink:href="#DejaVuSans-4e"/>
     <use xlink:href="#DejaVuSans-69" x="74.804688"/>
     <use xlink:href="#DejaVuSans-43" x="102.587891"/>
     <use xlink:href="#DejaVuSans-4c" x="172.412109"/>
     <use xlink:href="#DejaVuSans-49" x="228.125"/>
     <use xlink:href="#DejaVuSans-50" x="257.617188"/>
     <use xlink:href="#DejaVuSans-20" x="317.919922"/>
     <use xlink:href="#DejaVuSans-2f" x="349.707031"/>
     <use xlink:href="#DejaVuSans-20" x="383.398438"/>
     <use xlink:href="#DejaVuSans-65" x="415.185547"/>
     <use xlink:href="#DejaVuSans-6d" x="476.708984"/>
     <use xlink:href="#DejaVuSans-62" x="574.121094"/>
     <use xlink:href="#DejaVuSans-65" x="637.597656"/>
     <use xlink:href="#DejaVuSans-64" x="699.121094"/>
     <use xlink:href="#DejaVuSans-64" x="762.597656"/>
     <use xlink:href="#DejaVuSans-69" x="826.074219"/>
     <use xlink:href="#DejaVuSans-6e" x="853.857422"/>
     <use xlink:href="#DejaVuSans-67" x="917.236328"/>
     <use xlink:href="#DejaVuSans-73" x="980.712891"/>
    </g>
    <!-- 24k -->
    <g style="fill: #263645" transform="translate(80.101125 515.554668) scale(0.086 -0.086)">
     <defs>
      <path id="DejaVuSans-32" d="M 1228 531
L 3431 531
L 3431 0
L 469 0
L 469 531
Q 828 903 1448 1529
Q 2069 2156 2228 2338
Q 2531 2678 2651 2914
Q 2772 3150 2772 3378
Q 2772 3750 2511 3984
Q 2250 4219 1831 4219
Q 1534 4219 1204 4116
Q 875 4013 500 3803
L 500 4441
Q 881 4594 1212 4672
Q 1544 4750 1819 4750
Q 2544 4750 2975 4387
Q 3406 4025 3406 3419
Q 3406 3131 3298 2873
Q 3191 2616 2906 2266
Q 2828 2175 2409 1742
Q 1991 1309 1228 531
z
" transform="scale(0.015625)"/>
     </defs>
     <use xlink:href="#DejaVuSans-32"/>
     <use xlink:href="#DejaVuSans-34" x="63.623047"/>
     <use xlink:href="#DejaVuSans-6b" x="127.246094"/>
    </g>
   </g>
   <g id="text_6">
    <!-- Cognitive Atlas 7k -->
    <g style="fill: #263645" transform="translate(27.208938 530.067255) scale(0.076 -0.076)">
     <defs>
      <path id="DejaVuSans-76" d="M 191 3500
L 800 3500
L 1894 563
L 2988 3500
L 3597 3500
L 2284 0
L 1503 0
L 191 3500
z
" transform="scale(0.015625)"/>
      <path id="DejaVuSans-41" d="M 2188 4044
L 1331 1722
L 3047 1722
L 2188 4044
z
M 1831 4666
L 2547 4666
L 4325 0
L 3669 0
L 3244 1197
L 1141 1197
L 716 0
L 50 0
L 1831 4666
z
" transform="scale(0.015625)"/>
     </defs>
     <use xlink:href="#DejaVuSans-43"/>
     <use xlink:href="#DejaVuSans-6f" x="69.824219"/>
     <use xlink:href="#DejaVuSans-67" x="131.005859"/>
     <use xlink:href="#DejaVuSans-6e" x="194.482422"/>
     <use xlink:href="#DejaVuSans-69" x="257.861328"/>
     <use xlink:href="#DejaVuSans-74" x="285.644531"/>
     <use xlink:href="#DejaVuSans-69" x="324.853516"/>
     <use xlink:href="#DejaVuSans-76" x="352.636719"/>
     <use xlink:href="#DejaVuSans-65" x="411.816406"/>
     <use xlink:href="#DejaVuSans-20" x="473.339844"/>
     <use xlink:href="#DejaVuSans-41" x="505.126953"/>
     <use xlink:href="#DejaVuSans-74" x="571.785156"/>
     <use xlink:href="#DejaVuSans-6c" x="610.994141"/>
     <use xlink:href="#DejaVuSans-61" x="638.777344"/>
     <use xlink:href="#DejaVuSans-73" x="700.056641"/>
     <use xlink:href="#DejaVuSans-20" x="752.15625"/>
     <use xlink:href="#DejaVuSans-37" x="783.943359"/>
     <use xlink:href="#DejaVuSans-6b" x="847.566406"/>
    </g>
   </g>
   <g id="text_7">
    <!-- Other sources 6k -->
    <g style="fill: #263645" transform="translate(31.184688 549.670839) scale(0.076 -0.076)">
     <defs>
      <path id="DejaVuSans-63" d="M 3122 3366
L 3122 2828
Q 2878 2963 2633 3030
Q 2388 3097 2138 3097
Q 1578 3097 1268 2742
Q 959 2388 959 1747
Q 959 1106 1268 751
Q 1578 397 2138 397
Q 2388 397 2633 464
Q 2878 531 3122 666
L 3122 134
Q 2881 22 2623 -34
Q 2366 -91 2075 -91
Q 1284 -91 818 406
Q 353 903 353 1747
Q 353 2603 823 3093
Q 1294 3584 2113 3584
Q 2378 3584 2631 3529
Q 2884 3475 3122 3366
z
" transform="scale(0.015625)"/>
     </defs>
     <use xlink:href="#DejaVuSans-4f"/>
     <use xlink:href="#DejaVuSans-74" x="78.710938"/>
     <use xlink:href="#DejaVuSans-68" x="117.919922"/>
     <use xlink:href="#DejaVuSans-65" x="181.298828"/>
     <use xlink:href="#DejaVuSans-72" x="242.822266"/>
     <use xlink:href="#DejaVuSans-20" x="283.935547"/>
     <use xlink:href="#DejaVuSans-73" x="315.722656"/>
     <use xlink:href="#DejaVuSans-6f" x="367.822266"/>
     <use xlink:href="#DejaVuSans-75" x="429.003906"/>
     <use xlink:href="#DejaVuSans-72" x="492.382812"/>
     <use xlink:href="#DejaVuSans-63" x="531.246094"/>
     <use xlink:href="#DejaVuSans-65" x="586.226562"/>
     <use xlink:href="#DejaVuSans-73" x="647.75"/>
     <use xlink:href="#DejaVuSans-20" x="699.849609"/>
     <use xlink:href="#DejaVuSans-36" x="731.636719"/>
     <use xlink:href="#DejaVuSans-6b" x="795.259766"/>
    </g>
   </g>
   <g id="text_8">
    <!-- PubMed / scholarly 4k -->
    <g style="fill: #263645" transform="translate(12.725 569.274423) scale(0.076 -0.076)">
     <use xlink:href="#DejaVuSans-50"/>
     <use xlink:href="#DejaVuSans-75" x="58.552734"/>
     <use xlink:href="#DejaVuSans-62" x="121.931641"/>
     <use xlink:href="#DejaVuSans-4d" x="185.408203"/>
     <use xlink:href="#DejaVuSans-65" x="271.6875"/>
     <use xlink:href="#DejaVuSans-64" x="333.210938"/>
     <use xlink:href="#DejaVuSans-20" x="396.6875"/>
     <use xlink:href="#DejaVuSans-2f" x="428.474609"/>
     <use xlink:href="#DejaVuSans-20" x="462.166016"/>
     <use xlink:href="#DejaVuSans-73" x="493.953125"/>
     <use xlink:href="#DejaVuSans-63" x="546.052734"/>
     <use xlink:href="#DejaVuSans-68" x="601.033203"/>
     <use xlink:href="#DejaVuSans-6f" x="664.412109"/>
     <use xlink:href="#DejaVuSans-6c" x="725.59375"/>
     <use xlink:href="#DejaVuSans-61" x="753.376953"/>
     <use xlink:href="#DejaVuSans-72" x="814.65625"/>
     <use xlink:href="#DejaVuSans-6c" x="855.769531"/>
     <use xlink:href="#DejaVuSans-79" x="883.552734"/>
     <use xlink:href="#DejaVuSans-20" x="942.732422"/>
     <use xlink:href="#DejaVuSans-34" x="974.519531"/>
     <use xlink:href="#DejaVuSans-6b" x="1038.142578"/>
    </g>
   </g>
   <g id="text_9">
    <!-- ONVOC / ontology 2k -->
    <g style="fill: #263645" transform="translate(15.776875 588.878007) scale(0.076 -0.076)">
     <use xlink:href="#DejaVuSans-4f"/>
     <use xlink:href="#DejaVuSans-4e" x="78.710938"/>
     <use xlink:href="#DejaVuSans-56" x="153.515625"/>
     <use xlink:href="#DejaVuSans-4f" x="220.173828"/>
     <use xlink:href="#DejaVuSans-43" x="298.884766"/>
     <use xlink:href="#DejaVuSans-20" x="368.708984"/>
     <use xlink:href="#DejaVuSans-2f" x="400.496094"/>
     <use xlink:href="#DejaVuSans-20" x="434.1875"/>
     <use xlink:href="#DejaVuSans-6f" x="465.974609"/>
     <use xlink:href="#DejaVuSans-6e" x="527.15625"/>
     <use xlink:href="#DejaVuSans-74" x="590.535156"/>
     <use xlink:href="#DejaVuSans-6f" x="629.744141"/>
     <use xlink:href="#DejaVuSans-6c" x="690.925781"/>
     <use xlink:href="#DejaVuSans-6f" x="718.708984"/>
     <use xlink:href="#DejaVuSans-67" x="779.890625"/>
     <use xlink:href="#DejaVuSans-79" x="843.367188"/>
     <use xlink:href="#DejaVuSans-20" x="902.546875"/>
     <use xlink:href="#DejaVuSans-32" x="934.333984"/>
     <use xlink:href="#DejaVuSans-6b" x="997.957031"/>
    </g>
   </g>
   <g id="text_10">
    <!-- Coordinate -->
    <g style="fill: #263645" transform="translate(766.294163 201.972138) scale(0.083 -0.083)">
     <use xlink:href="#DejaVuSans-43"/>
     <use xlink:href="#DejaVuSans-6f" x="69.824219"/>
     <use xlink:href="#DejaVuSans-6f" x="131.005859"/>
     <use xlink:href="#DejaVuSans-72" x="192.1875"/>
     <use xlink:href="#DejaVuSans-64" x="231.550781"/>
     <use xlink:href="#DejaVuSans-69" x="295.027344"/>
     <use xlink:href="#DejaVuSans-6e" x="322.810547"/>
     <use xlink:href="#DejaVuSans-61" x="386.189453"/>
     <use xlink:href="#DejaVuSans-74" x="447.46875"/>
     <use xlink:href="#DejaVuSans-65" x="486.677734"/>
    </g>
    <!-- 447k -->
    <g style="fill: #263645" transform="translate(766.294163 211.266322) scale(0.083 -0.083)">
     <use xlink:href="#DejaVuSans-34"/>
     <use xlink:href="#DejaVuSans-34" x="63.623047"/>
     <use xlink:href="#DejaVuSans-37" x="127.246094"/>
     <use xlink:href="#DejaVuSans-6b" x="190.869141"/>
    </g>
   </g>
   <g id="text_11">
    <!-- Publication -->
    <g style="fill: #263645" transform="translate(766.294163 353.296623) scale(0.083 -0.083)">
     <use xlink:href="#DejaVuSans-50"/>
     <use xlink:href="#DejaVuSans-75" x="58.552734"/>
     <use xlink:href="#DejaVuSans-62" x="121.931641"/>
     <use xlink:href="#DejaVuSans-6c" x="185.408203"/>
     <use xlink:href="#DejaVuSans-69" x="213.191406"/>
     <use xlink:href="#DejaVuSans-63" x="240.974609"/>
     <use xlink:href="#DejaVuSans-61" x="295.955078"/>
     <use xlink:href="#DejaVuSans-74" x="357.234375"/>
     <use xlink:href="#DejaVuSans-69" x="396.443359"/>
     <use xlink:href="#DejaVuSans-6f" x="424.226562"/>
     <use xlink:href="#DejaVuSans-6e" x="485.408203"/>
    </g>
    <!-- 50k -->
    <g style="fill: #263645" transform="translate(766.294163 362.590807) scale(0.083 -0.083)">
     <defs>
      <path id="DejaVuSans-30" d="M 2034 4250
Q 1547 4250 1301 3770
Q 1056 3291 1056 2328
Q 1056 1369 1301 889
Q 1547 409 2034 409
Q 2525 409 2770 889
Q 3016 1369 3016 2328
Q 3016 3291 2770 3770
Q 2525 4250 2034 4250
z
M 2034 4750
Q 2819 4750 3233 4129
Q 3647 3509 3647 2328
Q 3647 1150 3233 529
Q 2819 -91 2034 -91
Q 1250 -91 836 529
Q 422 1150 422 2328
Q 422 3509 836 4129
Q 1250 4750 2034 4750
z
" transform="scale(0.015625)"/>
     </defs>
     <use xlink:href="#DejaVuSans-35"/>
     <use xlink:href="#DejaVuSans-30" x="63.623047"/>
     <use xlink:href="#DejaVuSans-6b" x="127.246094"/>
    </g>
   </g>
   <g id="text_12">
    <!-- Collection -->
    <g style="fill: #263645" transform="translate(766.294163 389.529348) scale(0.083 -0.083)">
     <use xlink:href="#DejaVuSans-43"/>
     <use xlink:href="#DejaVuSans-6f" x="69.824219"/>
     <use xlink:href="#DejaVuSans-6c" x="131.005859"/>
     <use xlink:href="#DejaVuSans-6c" x="158.789062"/>
     <use xlink:href="#DejaVuSans-65" x="186.572266"/>
     <use xlink:href="#DejaVuSans-63" x="248.095703"/>
     <use xlink:href="#DejaVuSans-74" x="303.076172"/>
     <use xlink:href="#DejaVuSans-69" x="342.285156"/>
     <use xlink:href="#DejaVuSans-6f" x="370.068359"/>
     <use xlink:href="#DejaVuSans-6e" x="431.25"/>
    </g>
    <!-- 48k -->
    <g style="fill: #263645" transform="translate(766.294163 398.823532) scale(0.083 -0.083)">
     <use xlink:href="#DejaVuSans-34"/>
     <use xlink:href="#DejaVuSans-38" x="63.623047"/>
     <use xlink:href="#DejaVuSans-6b" x="127.246094"/>
    </g>
   </g>
   <g id="text_13">
    <!-- StatsMap -->
    <g style="fill: #263645" transform="translate(766.294163 421.585236) scale(0.083 -0.083)">
     <defs>
      <path id="DejaVuSans-53" d="M 3425 4513
L 3425 3897
Q 3066 4069 2747 4153
Q 2428 4238 2131 4238
Q 1616 4238 1336 4038
Q 1056 3838 1056 3469
Q 1056 3159 1242 3001
Q 1428 2844 1947 2747
L 2328 2669
Q 3034 2534 3370 2195
Q 3706 1856 3706 1288
Q 3706 609 3251 259
Q 2797 -91 1919 -91
Q 1588 -91 1214 -16
Q 841 59 441 206
L 441 856
Q 825 641 1194 531
Q 1563 422 1919 422
Q 2459 422 2753 634
Q 3047 847 3047 1241
Q 3047 1584 2836 1778
Q 2625 1972 2144 2069
L 1759 2144
Q 1053 2284 737 2584
Q 422 2884 422 3419
Q 422 4038 858 4394
Q 1294 4750 2059 4750
Q 2388 4750 2728 4690
Q 3069 4631 3425 4513
z
" transform="scale(0.015625)"/>
     </defs>
     <use xlink:href="#DejaVuSans-53"/>
     <use xlink:href="#DejaVuSans-74" x="63.476562"/>
     <use xlink:href="#DejaVuSans-61" x="102.685547"/>
     <use xlink:href="#DejaVuSans-74" x="163.964844"/>
     <use xlink:href="#DejaVuSans-73" x="203.173828"/>
     <use xlink:href="#DejaVuSans-4d" x="255.273438"/>
     <use xlink:href="#DejaVuSans-61" x="341.552734"/>
     <use xlink:href="#DejaVuSans-70" x="402.832031"/>
    </g>
    <!-- 35k -->
    <g style="fill: #263645" transform="translate(766.294163 430.87942) scale(0.083 -0.083)">
     <use xlink:href="#DejaVuSans-33"/>
     <use xlink:href="#DejaVuSans-35" x="63.623047"/>
     <use xlink:href="#DejaVuSans-6b" x="127.246094"/>
    </g>
   </g>
   <g id="text_14">
    <!-- Task -->
    <g style="fill: #263645" transform="translate(766.294163 449.868488) scale(0.083 -0.083)">
     <defs>
      <path id="DejaVuSans-54" d="M -19 4666
L 3928 4666
L 3928 4134
L 2272 4134
L 2272 0
L 1638 0
L 1638 4134
L -19 4134
L -19 4666
z
" transform="scale(0.015625)"/>
     </defs>
     <use xlink:href="#DejaVuSans-54"/>
     <use xlink:href="#DejaVuSans-61" x="44.583984"/>
     <use xlink:href="#DejaVuSans-73" x="105.863281"/>
     <use xlink:href="#DejaVuSans-6b" x="157.962891"/>
    </g>
    <!-- 35k -->
    <g style="fill: #263645" transform="translate(766.294163 459.162672) scale(0.083 -0.083)">
     <use xlink:href="#DejaVuSans-33"/>
     <use xlink:href="#DejaVuSans-35" x="63.623047"/>
     <use xlink:href="#DejaVuSans-6b" x="127.246094"/>
    </g>
   </g>
   <g id="text_15">
    <!-- Embedding 24k -->
    <g style="fill: #263645" transform="translate(766.294163 479.27338) scale(0.074 -0.074)">
     <defs>
      <path id="DejaVuSans-45" d="M 628 4666
L 3578 4666
L 3578 4134
L 1259 4134
L 1259 2753
L 3481 2753
L 3481 2222
L 1259 2222
L 1259 531
L 3634 531
L 3634 0
L 628 0
L 628 4666
z
" transform="scale(0.015625)"/>
     </defs>
     <use xlink:href="#DejaVuSans-45"/>
     <use xlink:href="#DejaVuSans-6d" x="63.183594"/>
     <use xlink:href="#DejaVuSans-62" x="160.595703"/>
     <use xlink:href="#DejaVuSans-65" x="224.072266"/>
     <use xlink:href="#DejaVuSans-64" x="285.595703"/>
     <use xlink:href="#DejaVuSans-64" x="349.072266"/>
     <use xlink:href="#DejaVuSans-69" x="412.548828"/>
     <use xlink:href="#DejaVuSans-6e" x="440.332031"/>
     <use xlink:href="#DejaVuSans-67" x="503.710938"/>
     <use xlink:href="#DejaVuSans-20" x="567.1875"/>
     <use xlink:href="#DejaVuSans-32" x="598.974609"/>
     <use xlink:href="#DejaVuSans-34" x="662.597656"/>
     <use xlink:href="#DejaVuSans-6b" x="726.220703"/>
    </g>
   </g>
   <g id="text_16">
    <!-- StatisticalMap 21k -->
    <g style="fill: #263645" transform="translate(766.294163 501.183268) scale(0.074 -0.074)">
     <defs>
      <path id="DejaVuSans-31" d="M 794 531
L 1825 531
L 1825 4091
L 703 3866
L 703 4441
L 1819 4666
L 2450 4666
L 2450 531
L 3481 531
L 3481 0
L 794 0
L 794 531
z
" transform="scale(0.015625)"/>
     </defs>
     <use xlink:href="#DejaVuSans-53"/>
     <use xlink:href="#DejaVuSans-74" x="63.476562"/>
     <use xlink:href="#DejaVuSans-61" x="102.685547"/>
     <use xlink:href="#DejaVuSans-74" x="163.964844"/>
     <use xlink:href="#DejaVuSans-69" x="203.173828"/>
     <use xlink:href="#DejaVuSans-73" x="230.957031"/>
     <use xlink:href="#DejaVuSans-74" x="283.056641"/>
     <use xlink:href="#DejaVuSans-69" x="322.265625"/>
     <use xlink:href="#DejaVuSans-63" x="350.048828"/>
     <use xlink:href="#DejaVuSans-61" x="405.029297"/>
     <use xlink:href="#DejaVuSans-6c" x="466.308594"/>
     <use xlink:href="#DejaVuSans-4d" x="494.091797"/>
     <use xlink:href="#DejaVuSans-61" x="580.371094"/>
     <use xlink:href="#DejaVuSans-70" x="641.650391"/>
     <use xlink:href="#DejaVuSans-20" x="705.126953"/>
     <use xlink:href="#DejaVuSans-32" x="736.914062"/>
     <use xlink:href="#DejaVuSans-31" x="800.537109"/>
     <use xlink:href="#DejaVuSans-6b" x="864.160156"/>
    </g>
   </g>
   <g id="text_17">
    <!-- Other labels 20k -->
    <g style="fill: #263645" transform="translate(766.294163 523.093156) scale(0.074 -0.074)">
     <use xlink:href="#DejaVuSans-4f"/>
     <use xlink:href="#DejaVuSans-74" x="78.710938"/>
     <use xlink:href="#DejaVuSans-68" x="117.919922"/>
     <use xlink:href="#DejaVuSans-65" x="181.298828"/>
     <use xlink:href="#DejaVuSans-72" x="242.822266"/>
     <use xlink:href="#DejaVuSans-20" x="283.935547"/>
     <use xlink:href="#DejaVuSans-6c" x="315.722656"/>
     <use xlink:href="#DejaVuSans-61" x="343.505859"/>
     <use xlink:href="#DejaVuSans-62" x="404.785156"/>
     <use xlink:href="#DejaVuSans-65" x="468.261719"/>
     <use xlink:href="#DejaVuSans-6c" x="529.785156"/>
     <use xlink:href="#DejaVuSans-73" x="557.568359"/>
     <use xlink:href="#DejaVuSans-20" x="609.667969"/>
     <use xlink:href="#DejaVuSans-32" x="641.455078"/>
     <use xlink:href="#DejaVuSans-30" x="705.078125"/>
     <use xlink:href="#DejaVuSans-6b" x="768.701172"/>
    </g>
   </g>
   <g id="text_18">
    <!-- DataResource 9k -->
    <g style="fill: #263645" transform="translate(766.294163 545.003044) scale(0.074 -0.074)">
     <defs>
      <path id="DejaVuSans-44" d="M 1259 4147
L 1259 519
L 2022 519
Q 2988 519 3436 956
Q 3884 1394 3884 2338
Q 3884 3275 3436 3711
Q 2988 4147 2022 4147
L 1259 4147
z
M 628 4666
L 1925 4666
Q 3281 4666 3915 4102
Q 4550 3538 4550 2338
Q 4550 1131 3912 565
Q 3275 0 1925 0
L 628 0
L 628 4666
z
" transform="scale(0.015625)"/>
      <path id="DejaVuSans-52" d="M 2841 2188
Q 3044 2119 3236 1894
Q 3428 1669 3622 1275
L 4263 0
L 3584 0
L 2988 1197
Q 2756 1666 2539 1819
Q 2322 1972 1947 1972
L 1259 1972
L 1259 0
L 628 0
L 628 4666
L 2053 4666
Q 2853 4666 3247 4331
Q 3641 3997 3641 3322
Q 3641 2881 3436 2590
Q 3231 2300 2841 2188
z
M 1259 4147
L 1259 2491
L 2053 2491
Q 2509 2491 2742 2702
Q 2975 2913 2975 3322
Q 2975 3731 2742 3939
Q 2509 4147 2053 4147
L 1259 4147
z
" transform="scale(0.015625)"/>
     </defs>
     <use xlink:href="#DejaVuSans-44"/>
     <use xlink:href="#DejaVuSans-61" x="77.001953"/>
     <use xlink:href="#DejaVuSans-74" x="138.28125"/>
     <use xlink:href="#DejaVuSans-61" x="177.490234"/>
     <use xlink:href="#DejaVuSans-52" x="238.769531"/>
     <use xlink:href="#DejaVuSans-65" x="303.751953"/>
     <use xlink:href="#DejaVuSans-73" x="365.275391"/>
     <use xlink:href="#DejaVuSans-6f" x="417.375"/>
     <use xlink:href="#DejaVuSans-75" x="478.556641"/>
     <use xlink:href="#DejaVuSans-72" x="541.935547"/>
     <use xlink:href="#DejaVuSans-63" x="580.798828"/>
     <use xlink:href="#DejaVuSans-65" x="635.779297"/>
     <use xlink:href="#DejaVuSans-20" x="697.302734"/>
     <use xlink:href="#DejaVuSans-39" x="729.089844"/>
     <use xlink:href="#DejaVuSans-6b" x="792.712891"/>
    </g>
   </g>
   <g id="text_19">
    <!-- OpenNeuro 8k -->
    <g style="fill: #263645" transform="translate(766.294163 566.912932) scale(0.074 -0.074)">
     <use xlink:href="#DejaVuSans-4f"/>
     <use xlink:href="#DejaVuSans-70" x="78.710938"/>
     <use xlink:href="#DejaVuSans-65" x="142.1875"/>
     <use xlink:href="#DejaVuSans-6e" x="203.710938"/>
     <use xlink:href="#DejaVuSans-4e" x="267.089844"/>
     <use xlink:href="#DejaVuSans-65" x="341.894531"/>
     <use xlink:href="#DejaVuSans-75" x="403.417969"/>
     <use xlink:href="#DejaVuSans-72" x="466.796875"/>
     <use xlink:href="#DejaVuSans-6f" x="505.660156"/>
     <use xlink:href="#DejaVuSans-20" x="566.841797"/>
     <use xlink:href="#DejaVuSans-38" x="598.628906"/>
     <use xlink:href="#DejaVuSans-6b" x="662.251953"/>
    </g>
   </g>
   <g id="text_20">
    <!-- Term 3k -->
    <g style="fill: #263645" transform="translate(766.294163 588.82282) scale(0.074 -0.074)">
     <use xlink:href="#DejaVuSans-54"/>
     <use xlink:href="#DejaVuSans-65" x="44.083984"/>
     <use xlink:href="#DejaVuSans-72" x="105.607422"/>
     <use xlink:href="#DejaVuSans-6d" x="144.970703"/>
     <use xlink:href="#DejaVuSans-20" x="242.382812"/>
     <use xlink:href="#DejaVuSans-33" x="274.169922"/>
     <use xlink:href="#DejaVuSans-6b" x="337.792969"/>
    </g>
   </g>
   <g id="text_21">
    <!-- Upstream source -->
    <g style="fill: #262626" transform="translate(87.666413 48.069577) scale(0.12 -0.12)">
     <defs>
      <path id="DejaVuSans-Bold-55" d="M 588 4666
L 1791 4666
L 1791 1869
Q 1791 1291 1980 1042
Q 2169 794 2597 794
Q 3028 794 3217 1042
Q 3406 1291 3406 1869
L 3406 4666
L 4609 4666
L 4609 1869
Q 4609 878 4112 393
Q 3616 -91 2597 -91
Q 1581 -91 1084 393
Q 588 878 588 1869
L 588 4666
z
" transform="scale(0.015625)"/>
      <path id="DejaVuSans-Bold-70" d="M 1656 506
L 1656 -1331
L 538 -1331
L 538 3500
L 1656 3500
L 1656 2988
Q 1888 3294 2169 3439
Q 2450 3584 2816 3584
Q 3463 3584 3878 3070
Q 4294 2556 4294 1747
Q 4294 938 3878 423
Q 3463 -91 2816 -91
Q 2450 -91 2169 54
Q 1888 200 1656 506
z
M 2400 2772
Q 2041 2772 1848 2508
Q 1656 2244 1656 1747
Q 1656 1250 1848 986
Q 2041 722 2400 722
Q 2759 722 2948 984
Q 3138 1247 3138 1747
Q 3138 2247 2948 2509
Q 2759 2772 2400 2772
z
" transform="scale(0.015625)"/>
      <path id="DejaVuSans-Bold-73" d="M 3272 3391
L 3272 2541
Q 2913 2691 2578 2766
Q 2244 2841 1947 2841
Q 1628 2841 1473 2761
Q 1319 2681 1319 2516
Q 1319 2381 1436 2309
Q 1553 2238 1856 2203
L 2053 2175
Q 2913 2066 3209 1816
Q 3506 1566 3506 1031
Q 3506 472 3093 190
Q 2681 -91 1863 -91
Q 1516 -91 1145 -36
Q 775 19 384 128
L 384 978
Q 719 816 1070 734
Q 1422 653 1784 653
Q 2113 653 2278 743
Q 2444 834 2444 1013
Q 2444 1163 2330 1236
Q 2216 1309 1875 1350
L 1678 1375
Q 931 1469 631 1722
Q 331 1975 331 2491
Q 331 3047 712 3315
Q 1094 3584 1881 3584
Q 2191 3584 2531 3537
Q 2872 3491 3272 3391
z
" transform="scale(0.015625)"/>
      <path id="DejaVuSans-Bold-74" d="M 1759 4494
L 1759 3500
L 2913 3500
L 2913 2700
L 1759 2700
L 1759 1216
Q 1759 972 1856 886
Q 1953 800 2241 800
L 2816 800
L 2816 0
L 1856 0
Q 1194 0 917 276
Q 641 553 641 1216
L 641 2700
L 84 2700
L 84 3500
L 641 3500
L 641 4494
L 1759 4494
z
" transform="scale(0.015625)"/>
      <path id="DejaVuSans-Bold-72" d="M 3138 2547
Q 2991 2616 2845 2648
Q 2700 2681 2553 2681
Q 2122 2681 1889 2404
Q 1656 2128 1656 1613
L 1656 0
L 538 0
L 538 3500
L 1656 3500
L 1656 2925
Q 1872 3269 2151 3426
Q 2431 3584 2822 3584
Q 2878 3584 2943 3579
Q 3009 3575 3134 3559
L 3138 2547
z
" transform="scale(0.015625)"/>
      <path id="DejaVuSans-Bold-65" d="M 4031 1759
L 4031 1441
L 1416 1441
Q 1456 1047 1700 850
Q 1944 653 2381 653
Q 2734 653 3104 758
Q 3475 863 3866 1075
L 3866 213
Q 3469 63 3072 -14
Q 2675 -91 2278 -91
Q 1328 -91 801 392
Q 275 875 275 1747
Q 275 2603 792 3093
Q 1309 3584 2216 3584
Q 3041 3584 3536 3087
Q 4031 2591 4031 1759
z
M 2881 2131
Q 2881 2450 2695 2645
Q 2509 2841 2209 2841
Q 1884 2841 1681 2658
Q 1478 2475 1428 2131
L 2881 2131
z
" transform="scale(0.015625)"/>
      <path id="DejaVuSans-Bold-61" d="M 2106 1575
Q 1756 1575 1579 1456
Q 1403 1338 1403 1106
Q 1403 894 1545 773
Q 1688 653 1941 653
Q 2256 653 2472 879
Q 2688 1106 2688 1447
L 2688 1575
L 2106 1575
z
M 3816 1997
L 3816 0
L 2688 0
L 2688 519
Q 2463 200 2181 54
Q 1900 -91 1497 -91
Q 953 -91 614 226
Q 275 544 275 1050
Q 275 1666 698 1953
Q 1122 2241 2028 2241
L 2688 2241
L 2688 2328
Q 2688 2594 2478 2717
Q 2269 2841 1825 2841
Q 1466 2841 1156 2769
Q 847 2697 581 2553
L 581 3406
Q 941 3494 1303 3539
Q 1666 3584 2028 3584
Q 2975 3584 3395 3211
Q 3816 2838 3816 1997
z
" transform="scale(0.015625)"/>
      <path id="DejaVuSans-Bold-6d" d="M 3781 2919
Q 3994 3244 4286 3414
Q 4578 3584 4928 3584
Q 5531 3584 5847 3212
Q 6163 2841 6163 2131
L 6163 0
L 5038 0
L 5038 1825
Q 5041 1866 5042 1909
Q 5044 1953 5044 2034
Q 5044 2406 4934 2573
Q 4825 2741 4581 2741
Q 4263 2741 4089 2478
Q 3916 2216 3909 1719
L 3909 0
L 2784 0
L 2784 1825
Q 2784 2406 2684 2573
Q 2584 2741 2328 2741
Q 2006 2741 1831 2477
Q 1656 2213 1656 1722
L 1656 0
L 531 0
L 531 3500
L 1656 3500
L 1656 2988
Q 1863 3284 2130 3434
Q 2397 3584 2719 3584
Q 3081 3584 3359 3409
Q 3638 3234 3781 2919
z
" transform="scale(0.015625)"/>
      <path id="DejaVuSans-Bold-20" transform="scale(0.015625)"/>
      <path id="DejaVuSans-Bold-6f" d="M 2203 2784
Q 1831 2784 1636 2517
Q 1441 2250 1441 1747
Q 1441 1244 1636 976
Q 1831 709 2203 709
Q 2569 709 2762 976
Q 2956 1244 2956 1747
Q 2956 2250 2762 2517
Q 2569 2784 2203 2784
z
M 2203 3584
Q 3106 3584 3614 3096
Q 4122 2609 4122 1747
Q 4122 884 3614 396
Q 3106 -91 2203 -91
Q 1297 -91 786 396
Q 275 884 275 1747
Q 275 2609 786 3096
Q 1297 3584 2203 3584
z
" transform="scale(0.015625)"/>
      <path id="DejaVuSans-Bold-75" d="M 500 1363
L 500 3500
L 1625 3500
L 1625 3150
Q 1625 2866 1622 2436
Q 1619 2006 1619 1863
Q 1619 1441 1641 1255
Q 1663 1069 1716 984
Q 1784 875 1895 815
Q 2006 756 2150 756
Q 2500 756 2700 1025
Q 2900 1294 2900 1772
L 2900 3500
L 4019 3500
L 4019 0
L 2900 0
L 2900 506
Q 2647 200 2364 54
Q 2081 -91 1741 -91
Q 1134 -91 817 281
Q 500 653 500 1363
z
" transform="scale(0.015625)"/>
      <path id="DejaVuSans-Bold-63" d="M 3366 3391
L 3366 2478
Q 3138 2634 2908 2709
Q 2678 2784 2431 2784
Q 1963 2784 1702 2511
Q 1441 2238 1441 1747
Q 1441 1256 1702 982
Q 1963 709 2431 709
Q 2694 709 2930 787
Q 3166 866 3366 1019
L 3366 103
Q 3103 6 2833 -42
Q 2563 -91 2291 -91
Q 1344 -91 809 395
Q 275 881 275 1747
Q 275 2613 809 3098
Q 1344 3584 2291 3584
Q 2566 3584 2833 3536
Q 3100 3488 3366 3391
z
" transform="scale(0.015625)"/>
     </defs>
     <use xlink:href="#DejaVuSans-Bold-55"/>
     <use xlink:href="#DejaVuSans-Bold-70" x="81.201172"/>
     <use xlink:href="#DejaVuSans-Bold-73" x="152.783203"/>
     <use xlink:href="#DejaVuSans-Bold-74" x="212.304688"/>
     <use xlink:href="#DejaVuSans-Bold-72" x="260.107422"/>
     <use xlink:href="#DejaVuSans-Bold-65" x="309.423828"/>
     <use xlink:href="#DejaVuSans-Bold-61" x="377.246094"/>
     <use xlink:href="#DejaVuSans-Bold-6d" x="444.726562"/>
     <use xlink:href="#DejaVuSans-Bold-20" x="548.925781"/>
     <use xlink:href="#DejaVuSans-Bold-73" x="583.740234"/>
     <use xlink:href="#DejaVuSans-Bold-6f" x="643.261719"/>
     <use xlink:href="#DejaVuSans-Bold-75" x="711.962891"/>
     <use xlink:href="#DejaVuSans-Bold-72" x="783.154297"/>
     <use xlink:href="#DejaVuSans-Bold-63" x="832.470703"/>
     <use xlink:href="#DejaVuSans-Bold-65" x="891.748047"/>
    </g>
   </g>
   <g id="text_22">
    <!-- Node label -->
    <g style="fill: #262626" transform="translate(675.486413 48.069577) scale(0.12 -0.12)">
     <defs>
      <path id="DejaVuSans-Bold-4e" d="M 588 4666
L 1931 4666
L 3628 1466
L 3628 4666
L 4769 4666
L 4769 0
L 3425 0
L 1728 3200
L 1728 0
L 588 0
L 588 4666
z
" transform="scale(0.015625)"/>
      <path id="DejaVuSans-Bold-64" d="M 2919 2988
L 2919 4863
L 4044 4863
L 4044 0
L 2919 0
L 2919 506
Q 2688 197 2409 53
Q 2131 -91 1766 -91
Q 1119 -91 703 423
Q 288 938 288 1747
Q 288 2556 703 3070
Q 1119 3584 1766 3584
Q 2128 3584 2408 3439
Q 2688 3294 2919 2988
z
M 2181 722
Q 2541 722 2730 984
Q 2919 1247 2919 1747
Q 2919 2247 2730 2509
Q 2541 2772 2181 2772
Q 1825 2772 1636 2509
Q 1447 2247 1447 1747
Q 1447 1247 1636 984
Q 1825 722 2181 722
z
" transform="scale(0.015625)"/>
      <path id="DejaVuSans-Bold-6c" d="M 538 4863
L 1656 4863
L 1656 0
L 538 0
L 538 4863
z
" transform="scale(0.015625)"/>
      <path id="DejaVuSans-Bold-62" d="M 2400 722
Q 2759 722 2948 984
Q 3138 1247 3138 1747
Q 3138 2247 2948 2509
Q 2759 2772 2400 2772
Q 2041 2772 1848 2508
Q 1656 2244 1656 1747
Q 1656 1250 1848 986
Q 2041 722 2400 722
z
M 1656 2988
Q 1888 3294 2169 3439
Q 2450 3584 2816 3584
Q 3463 3584 3878 3070
Q 4294 2556 4294 1747
Q 4294 938 3878 423
Q 3463 -91 2816 -91
Q 2450 -91 2169 54
Q 1888 200 1656 506
L 1656 0
L 538 0
L 538 4863
L 1656 4863
L 1656 2988
z
" transform="scale(0.015625)"/>
     </defs>
     <use xlink:href="#DejaVuSans-Bold-4e"/>
     <use xlink:href="#DejaVuSans-Bold-6f" x="83.691406"/>
     <use xlink:href="#DejaVuSans-Bold-64" x="152.392578"/>
     <use xlink:href="#DejaVuSans-Bold-65" x="223.974609"/>
     <use xlink:href="#DejaVuSans-Bold-20" x="291.796875"/>
     <use xlink:href="#DejaVuSans-Bold-6c" x="326.611328"/>
     <use xlink:href="#DejaVuSans-Bold-61" x="360.888672"/>
     <use xlink:href="#DejaVuSans-Bold-62" x="428.369141"/>
     <use xlink:href="#DejaVuSans-Bold-65" x="499.951172"/>
     <use xlink:href="#DejaVuSans-Bold-6c" x="567.773438"/>
    </g>
   </g>
   <g id="text_23">
    <!-- Flows use measured node `source`/`provenance`/`data_origin`-like properties from prod; small flows are grouped into Other. -->
    <g style="fill: #526272" transform="translate(104.662092 604.078162) scale(0.105 -0.105)">
     <defs>
      <path id="DejaVuSans-46" d="M 628 4666
L 3309 4666
L 3309 4134
L 1259 4134
L 1259 2759
L 3109 2759
L 3109 2228
L 1259 2228
L 1259 0
L 628 0
L 628 4666
z
" transform="scale(0.015625)"/>
      <path id="DejaVuSans-77" d="M 269 3500
L 844 3500
L 1563 769
L 2278 3500
L 2956 3500
L 3675 769
L 4391 3500
L 4966 3500
L 4050 0
L 3372 0
L 2619 2869
L 1863 0
L 1184 0
L 269 3500
z
" transform="scale(0.015625)"/>
      <path id="DejaVuSans-60" d="M 1147 5119
L 2028 3950
L 1550 3950
L 531 5119
L 1147 5119
z
" transform="scale(0.015625)"/>
      <path id="DejaVuSans-5f" d="M 3263 -1063
L 3263 -1509
L -63 -1509
L -63 -1063
L 3263 -1063
z
" transform="scale(0.015625)"/>
      <path id="DejaVuSans-2d" d="M 313 2009
L 1997 2009
L 1997 1497
L 313 1497
L 313 2009
z
" transform="scale(0.015625)"/>
      <path id="DejaVuSans-66" d="M 2375 4863
L 2375 4384
L 1825 4384
Q 1516 4384 1395 4259
Q 1275 4134 1275 3809
L 1275 3500
L 2222 3500
L 2222 3053
L 1275 3053
L 1275 0
L 697 0
L 697 3053
L 147 3053
L 147 3500
L 697 3500
L 697 3744
Q 697 4328 969 4595
Q 1241 4863 1831 4863
L 2375 4863
z
" transform="scale(0.015625)"/>
      <path id="DejaVuSans-3b" d="M 750 3309
L 1409 3309
L 1409 2516
L 750 2516
L 750 3309
z
M 750 794
L 1409 794
L 1409 256
L 897 -744
L 494 -744
L 750 256
L 750 794
z
" transform="scale(0.015625)"/>
      <path id="DejaVuSans-2e" d="M 684 794
L 1344 794
L 1344 0
L 684 0
L 684 794
z
" transform="scale(0.015625)"/>
     </defs>
     <use xlink:href="#DejaVuSans-46"/>
     <use xlink:href="#DejaVuSans-6c" x="57.519531"/>
     <use xlink:href="#DejaVuSans-6f" x="85.302734"/>
     <use xlink:href="#DejaVuSans-77" x="146.484375"/>
     <use xlink:href="#DejaVuSans-73" x="228.271484"/>
     <use xlink:href="#DejaVuSans-20" x="280.371094"/>
     <use xlink:href="#DejaVuSans-75" x="312.158203"/>
     <use xlink:href="#DejaVuSans-73" x="375.537109"/>
     <use xlink:href="#DejaVuSans-65" x="427.636719"/>
     <use xlink:href="#DejaVuSans-20" x="489.160156"/>
     <use xlink:href="#DejaVuSans-6d" x="520.947266"/>
     <use xlink:href="#DejaVuSans-65" x="618.359375"/>
     <use xlink:href="#DejaVuSans-61" x="679.882812"/>
     <use xlink:href="#DejaVuSans-73" x="741.162109"/>
     <use xlink:href="#DejaVuSans-75" x="793.261719"/>
     <use xlink:href="#DejaVuSans-72" x="856.640625"/>
     <use xlink:href="#DejaVuSans-65" x="895.503906"/>
     <use xlink:href="#DejaVuSans-64" x="957.027344"/>
     <use xlink:href="#DejaVuSans-20" x="1020.503906"/>
     <use xlink:href="#DejaVuSans-6e" x="1052.291016"/>
     <use xlink:href="#DejaVuSans-6f" x="1115.669922"/>
     <use xlink:href="#DejaVuSans-64" x="1176.851562"/>
     <use xlink:href="#DejaVuSans-65" x="1240.328125"/>
     <use xlink:href="#DejaVuSans-20" x="1301.851562"/>
     <use xlink:href="#DejaVuSans-60" x="1333.638672"/>
     <use xlink:href="#DejaVuSans-73" x="1383.638672"/>
     <use xlink:href="#DejaVuSans-6f" x="1435.738281"/>
     <use xlink:href="#DejaVuSans-75" x="1496.919922"/>
     <use xlink:href="#DejaVuSans-72" x="1560.298828"/>
     <use xlink:href="#DejaVuSans-63" x="1599.162109"/>
     <use xlink:href="#DejaVuSans-65" x="1654.142578"/>
     <use xlink:href="#DejaVuSans-60" x="1715.666016"/>
     <use xlink:href="#DejaVuSans-2f" x="1765.666016"/>
     <use xlink:href="#DejaVuSans-60" x="1799.357422"/>
     <use xlink:href="#DejaVuSans-70" x="1849.357422"/>
     <use xlink:href="#DejaVuSans-72" x="1912.833984"/>
     <use xlink:href="#DejaVuSans-6f" x="1951.697266"/>
     <use xlink:href="#DejaVuSans-76" x="2012.878906"/>
     <use xlink:href="#DejaVuSans-65" x="2072.058594"/>
     <use xlink:href="#DejaVuSans-6e" x="2133.582031"/>
     <use xlink:href="#DejaVuSans-61" x="2196.960938"/>
     <use xlink:href="#DejaVuSans-6e" x="2258.240234"/>
     <use xlink:href="#DejaVuSans-63" x="2321.619141"/>
     <use xlink:href="#DejaVuSans-65" x="2376.599609"/>
     <use xlink:href="#DejaVuSans-60" x="2438.123047"/>
     <use xlink:href="#DejaVuSans-2f" x="2488.123047"/>
     <use xlink:href="#DejaVuSans-60" x="2521.814453"/>
     <use xlink:href="#DejaVuSans-64" x="2571.814453"/>
     <use xlink:href="#DejaVuSans-61" x="2635.291016"/>
     <use xlink:href="#DejaVuSans-74" x="2696.570312"/>
     <use xlink:href="#DejaVuSans-61" x="2735.779297"/>
     <use xlink:href="#DejaVuSans-5f" x="2797.058594"/>
     <use xlink:href="#DejaVuSans-6f" x="2847.058594"/>
     <use xlink:href="#DejaVuSans-72" x="2908.240234"/>
     <use xlink:href="#DejaVuSans-69" x="2949.353516"/>
     <use xlink:href="#DejaVuSans-67" x="2977.136719"/>
     <use xlink:href="#DejaVuSans-69" x="3040.613281"/>
     <use xlink:href="#DejaVuSans-6e" x="3068.396484"/>
     <use xlink:href="#DejaVuSans-60" x="3131.775391"/>
     <use xlink:href="#DejaVuSans-2d" x="3181.775391"/>
     <use xlink:href="#DejaVuSans-6c" x="3217.859375"/>
     <use xlink:href="#DejaVuSans-69" x="3245.642578"/>
     <use xlink:href="#DejaVuSans-6b" x="3273.425781"/>
     <use xlink:href="#DejaVuSans-65" x="3327.710938"/>
     <use xlink:href="#DejaVuSans-20" x="3389.234375"/>
     <use xlink:href="#DejaVuSans-70" x="3421.021484"/>
     <use xlink:href="#DejaVuSans-72" x="3484.498047"/>
     <use xlink:href="#DejaVuSans-6f" x="3523.361328"/>
     <use xlink:href="#DejaVuSans-70" x="3584.542969"/>
     <use xlink:href="#DejaVuSans-65" x="3648.019531"/>
     <use xlink:href="#DejaVuSans-72" x="3709.542969"/>
     <use xlink:href="#DejaVuSans-74" x="3750.65625"/>
     <use xlink:href="#DejaVuSans-69" x="3789.865234"/>
     <use xlink:href="#DejaVuSans-65" x="3817.648438"/>
     <use xlink:href="#DejaVuSans-73" x="3879.171875"/>
     <use xlink:href="#DejaVuSans-20" x="3931.271484"/>
     <use xlink:href="#DejaVuSans-66" x="3963.058594"/>
     <use xlink:href="#DejaVuSans-72" x="3998.263672"/>
     <use xlink:href="#DejaVuSans-6f" x="4037.126953"/>
     <use xlink:href="#DejaVuSans-6d" x="4098.308594"/>
     <use xlink:href="#DejaVuSans-20" x="4195.720703"/>
     <use xlink:href="#DejaVuSans-70" x="4227.507812"/>
     <use xlink:href="#DejaVuSans-72" x="4290.984375"/>
     <use xlink:href="#DejaVuSans-6f" x="4329.847656"/>
     <use xlink:href="#DejaVuSans-64" x="4391.029297"/>
     <use xlink:href="#DejaVuSans-3b" x="4454.505859"/>
     <use xlink:href="#DejaVuSans-20" x="4488.197266"/>
     <use xlink:href="#DejaVuSans-73" x="4519.984375"/>
     <use xlink:href="#DejaVuSans-6d" x="4572.083984"/>
     <use xlink:href="#DejaVuSans-61" x="4669.496094"/>
     <use xlink:href="#DejaVuSans-6c" x="4730.775391"/>
     <use xlink:href="#DejaVuSans-6c" x="4758.558594"/>
     <use xlink:href="#DejaVuSans-20" x="4786.341797"/>
     <use xlink:href="#DejaVuSans-66" x="4818.128906"/>
     <use xlink:href="#DejaVuSans-6c" x="4853.333984"/>
     <use xlink:href="#DejaVuSans-6f" x="4881.117188"/>
     <use xlink:href="#DejaVuSans-77" x="4942.298828"/>
     <use xlink:href="#DejaVuSans-73" x="5024.085938"/>
     <use xlink:href="#DejaVuSans-20" x="5076.185547"/>
     <use xlink:href="#DejaVuSans-61" x="5107.972656"/>
     <use xlink:href="#DejaVuSans-72" x="5169.251953"/>
     <use xlink:href="#DejaVuSans-65" x="5208.115234"/>
     <use xlink:href="#DejaVuSans-20" x="5269.638672"/>
     <use xlink:href="#DejaVuSans-67" x="5301.425781"/>
     <use xlink:href="#DejaVuSans-72" x="5364.902344"/>
     <use xlink:href="#DejaVuSans-6f" x="5403.765625"/>
     <use xlink:href="#DejaVuSans-75" x="5464.947266"/>
     <use xlink:href="#DejaVuSans-70" x="5528.326172"/>
     <use xlink:href="#DejaVuSans-65" x="5591.802734"/>
     <use xlink:href="#DejaVuSans-64" x="5653.326172"/>
     <use xlink:href="#DejaVuSans-20" x="5716.802734"/>
     <use xlink:href="#DejaVuSans-69" x="5748.589844"/>
     <use xlink:href="#DejaVuSans-6e" x="5776.373047"/>
     <use xlink:href="#DejaVuSans-74" x="5839.751953"/>
     <use xlink:href="#DejaVuSans-6f" x="5878.960938"/>
     <use xlink:href="#DejaVuSans-20" x="5940.142578"/>
     <use xlink:href="#DejaVuSans-4f" x="5971.929688"/>
     <use xlink:href="#DejaVuSans-74" x="6050.640625"/>
     <use xlink:href="#DejaVuSans-68" x="6089.849609"/>
     <use xlink:href="#DejaVuSans-65" x="6153.228516"/>
     <use xlink:href="#DejaVuSans-72" x="6214.751953"/>
     <use xlink:href="#DejaVuSans-2e" x="6246.740234"/>
    </g>
   </g>
   <g id="text_24">
    <!-- BR-KG source provenance Sankey -->
    <g style="fill: #262626" transform="translate(225.096819 23.916562) scale(0.22 -0.22)">
     <defs>
      <path id="DejaVuSans-Bold-42" d="M 2456 2859
Q 2741 2859 2887 2984
Q 3034 3109 3034 3353
Q 3034 3594 2887 3720
Q 2741 3847 2456 3847
L 1791 3847
L 1791 2859
L 2456 2859
z
M 2497 819
Q 2859 819 3042 972
Q 3225 1125 3225 1434
Q 3225 1738 3044 1889
Q 2863 2041 2497 2041
L 1791 2041
L 1791 819
L 2497 819
z
M 3616 2497
Q 4003 2384 4215 2081
Q 4428 1778 4428 1338
Q 4428 663 3972 331
Q 3516 0 2584 0
L 588 0
L 588 4666
L 2394 4666
Q 3366 4666 3802 4372
Q 4238 4078 4238 3431
Q 4238 3091 4078 2852
Q 3919 2613 3616 2497
z
" transform="scale(0.015625)"/>
      <path id="DejaVuSans-Bold-52" d="M 2297 2597
Q 2675 2597 2839 2737
Q 3003 2878 3003 3200
Q 3003 3519 2839 3656
Q 2675 3794 2297 3794
L 1791 3794
L 1791 2597
L 2297 2597
z
M 1791 1766
L 1791 0
L 588 0
L 588 4666
L 2425 4666
Q 3347 4666 3776 4356
Q 4206 4047 4206 3378
Q 4206 2916 3982 2619
Q 3759 2322 3309 2181
Q 3556 2125 3751 1926
Q 3947 1728 4147 1325
L 4800 0
L 3519 0
L 2950 1159
Q 2778 1509 2601 1637
Q 2425 1766 2131 1766
L 1791 1766
z
" transform="scale(0.015625)"/>
      <path id="DejaVuSans-Bold-2d" d="M 347 2297
L 2309 2297
L 2309 1388
L 347 1388
L 347 2297
z
" transform="scale(0.015625)"/>
      <path id="DejaVuSans-Bold-4b" d="M 588 4666
L 1791 4666
L 1791 2963
L 3525 4666
L 4922 4666
L 2675 2456
L 5153 0
L 3647 0
L 1791 1838
L 1791 0
L 588 0
L 588 4666
z
" transform="scale(0.015625)"/>
      <path id="DejaVuSans-Bold-47" d="M 4781 347
Q 4331 128 3847 18
Q 3363 -91 2847 -91
Q 1681 -91 1000 561
Q 319 1213 319 2328
Q 319 3456 1012 4103
Q 1706 4750 2913 4750
Q 3378 4750 3804 4662
Q 4231 4575 4609 4403
L 4609 3438
Q 4219 3659 3833 3768
Q 3447 3878 3059 3878
Q 2341 3878 1952 3476
Q 1563 3075 1563 2328
Q 1563 1588 1938 1184
Q 2313 781 3003 781
Q 3191 781 3352 804
Q 3513 828 3641 878
L 3641 1784
L 2906 1784
L 2906 2591
L 4781 2591
L 4781 347
z
" transform="scale(0.015625)"/>
      <path id="DejaVuSans-Bold-76" d="M 97 3500
L 1216 3500
L 2088 1081
L 2956 3500
L 4078 3500
L 2700 0
L 1472 0
L 97 3500
z
" transform="scale(0.015625)"/>
      <path id="DejaVuSans-Bold-6e" d="M 4056 2131
L 4056 0
L 2931 0
L 2931 347
L 2931 1631
Q 2931 2084 2911 2256
Q 2891 2428 2841 2509
Q 2775 2619 2662 2680
Q 2550 2741 2406 2741
Q 2056 2741 1856 2470
Q 1656 2200 1656 1722
L 1656 0
L 538 0
L 538 3500
L 1656 3500
L 1656 2988
Q 1909 3294 2193 3439
Q 2478 3584 2822 3584
Q 3428 3584 3742 3212
Q 4056 2841 4056 2131
z
" transform="scale(0.015625)"/>
      <path id="DejaVuSans-Bold-53" d="M 3834 4519
L 3834 3531
Q 3450 3703 3084 3790
Q 2719 3878 2394 3878
Q 1963 3878 1756 3759
Q 1550 3641 1550 3391
Q 1550 3203 1689 3098
Q 1828 2994 2194 2919
L 2706 2816
Q 3484 2659 3812 2340
Q 4141 2022 4141 1434
Q 4141 663 3683 286
Q 3225 -91 2284 -91
Q 1841 -91 1394 -6
Q 947 78 500 244
L 500 1259
Q 947 1022 1364 901
Q 1781 781 2169 781
Q 2563 781 2772 912
Q 2981 1044 2981 1288
Q 2981 1506 2839 1625
Q 2697 1744 2272 1838
L 1806 1941
Q 1106 2091 782 2419
Q 459 2747 459 3303
Q 459 4000 909 4375
Q 1359 4750 2203 4750
Q 2588 4750 2994 4692
Q 3400 4634 3834 4519
z
" transform="scale(0.015625)"/>
      <path id="DejaVuSans-Bold-6b" d="M 538 4863
L 1656 4863
L 1656 2216
L 2944 3500
L 4244 3500
L 2534 1894
L 4378 0
L 3022 0
L 1656 1459
L 1656 0
L 538 0
L 538 4863
z
" transform="scale(0.015625)"/>
      <path id="DejaVuSans-Bold-79" d="M 78 3500
L 1197 3500
L 2138 1125
L 2938 3500
L 4056 3500
L 2584 -331
Q 2363 -916 2067 -1148
Q 1772 -1381 1288 -1381
L 641 -1381
L 641 -647
L 991 -647
Q 1275 -647 1404 -556
Q 1534 -466 1606 -231
L 1638 -134
L 78 3500
z
" transform="scale(0.015625)"/>
     </defs>
     <use xlink:href="#DejaVuSans-Bold-42"/>
     <use xlink:href="#DejaVuSans-Bold-52" x="76.220703"/>
     <use xlink:href="#DejaVuSans-Bold-2d" x="153.222656"/>
     <use xlink:href="#DejaVuSans-Bold-4b" x="194.726562"/>
     <use xlink:href="#DejaVuSans-Bold-47" x="272.216797"/>
     <use xlink:href="#DejaVuSans-Bold-20" x="354.296875"/>
     <use xlink:href="#DejaVuSans-Bold-73" x="389.111328"/>
     <use xlink:href="#DejaVuSans-Bold-6f" x="448.632812"/>
     <use xlink:href="#DejaVuSans-Bold-75" x="517.333984"/>
     <use xlink:href="#DejaVuSans-Bold-72" x="588.525391"/>
     <use xlink:href="#DejaVuSans-Bold-63" x="637.841797"/>
     <use xlink:href="#DejaVuSans-Bold-65" x="697.119141"/>
     <use xlink:href="#DejaVuSans-Bold-20" x="764.941406"/>
     <use xlink:href="#DejaVuSans-Bold-70" x="799.755859"/>
     <use xlink:href="#DejaVuSans-Bold-72" x="871.337891"/>
     <use xlink:href="#DejaVuSans-Bold-6f" x="920.654297"/>
     <use xlink:href="#DejaVuSans-Bold-76" x="989.355469"/>
     <use xlink:href="#DejaVuSans-Bold-65" x="1054.541016"/>
     <use xlink:href="#DejaVuSans-Bold-6e" x="1122.363281"/>
     <use xlink:href="#DejaVuSans-Bold-61" x="1193.554688"/>
     <use xlink:href="#DejaVuSans-Bold-6e" x="1261.035156"/>
     <use xlink:href="#DejaVuSans-Bold-63" x="1332.226562"/>
     <use xlink:href="#DejaVuSans-Bold-65" x="1391.503906"/>
     <use xlink:href="#DejaVuSans-Bold-20" x="1459.326172"/>
     <use xlink:href="#DejaVuSans-Bold-53" x="1494.140625"/>
     <use xlink:href="#DejaVuSans-Bold-61" x="1566.162109"/>
     <use xlink:href="#DejaVuSans-Bold-6e" x="1633.642578"/>
     <use xlink:href="#DejaVuSans-Bold-6b" x="1704.833984"/>
     <use xlink:href="#DejaVuSans-Bold-65" x="1768.712891"/>
     <use xlink:href="#DejaVuSans-Bold-79" x="1836.535156"/>
    </g>
   </g>
  </g>
 </g>
 <defs>
  <clipPath id="p942791b548">
   <rect x="43.684162" y="41.916562" width="781.2" height="576.576"/>
  </clipPath>
 </defs>
</svg>
