<?xml version="1.0" encoding="utf-8" standalone="no"?>
<!DOCTYPE svg PUBLIC "-//W3C//DTD SVG 1.1//EN"
  "http://www.w3.org/Graphics/SVG/1.1/DTD/svg11.dtd">
<svg xmlns:xlink="http://www.w3.org/1999/xlink" width="434.304pt" height="332.316pt" viewBox="0 0 434.304 332.316" xmlns="http://www.w3.org/2000/svg" version="1.1">
 <metadata>
  <rdf:RDF xmlns:dc="http://purl.org/dc/elements/1.1/" xmlns:cc="http://creativecommons.org/ns#" xmlns:rdf="http://www.w3.org/1999/02/22-rdf-syntax-ns#">
   <cc:Work>
    <dc:type rdf:resource="http://purl.org/dc/dcmitype/StillImage"/>
    <dc:date>2026-05-03T21:20:16.156594</dc:date>
    <dc:format>image/svg+xml</dc:format>
    <dc:creator>
     <cc:Agent>
      <dc:title>Matplotlib v3.9.4, https://matplotlib.org/</dc:title>
     </cc:Agent>
    </dc:creator>
   </cc:Work>
  </rdf:RDF>
 </metadata>
 <defs>
  <style type="text/css">*{stroke-linejoin: round; stroke-linecap: butt}</style>
 </defs>
 <g id="figure_1">
  <g id="patch_1">
   <path d="M 0 332.316
L 434.304 332.316
L 434.304 0
L 0 0
z
" style="fill: #ffffff"/>
  </g>
  <g id="axes_1">
   <g id="patch_2">
    <path d="M 10.593792 323.557992
L 423.710208 323.557992
L 423.710208 8.758008
L 10.593792 8.758008
z
" clip-path="url(#p2469c1d968)" style="fill: #ffffff; stroke: #c9d3de; stroke-linejoin: miter"/>
   </g>
   <g id="patch_3">
    <path d="M 10.593792 37.16838
L 423.710208 37.16838
L 423.710208 8.758008
L 10.593792 8.758008
z
" clip-path="url(#p2469c1d968)" style="fill: #f1f6fa"/>
   </g>
   <g id="patch_4">
    <path d="M 188.377005 141.52203
Q 155.383663 122.030651 121.571729 107.476422
" clip-path="url(#p2469c1d968)" style="fill: none; opacity: 0.88; stroke: #e88888; stroke-width: 1.35; stroke-linecap: round"/>
    <path d="M 124.455063 110.894958
L 121.571729 107.476422
L 126.036558 107.220876
z
" clip-path="url(#p2469c1d968)" style="fill: #e88888; opacity: 0.88; stroke: #e88888; stroke-width: 1.35; stroke-linecap: round"/>
   </g>
   <g id="patch_5">
    <path d="M 248.743015 147.065283
Q 283.941487 131.91464 315.635478 113.191302
" clip-path="url(#p2469c1d968)" style="fill: none; opacity: 0.88; stroke: #d99000; stroke-width: 1.35; stroke-linecap: round"/>
    <path d="M 311.174278 113.503852
L 315.635478 113.191302
L 313.208798 116.947792
z
" clip-path="url(#p2469c1d968)" style="fill: #d99000; opacity: 0.88; stroke: #d99000; stroke-width: 1.35; stroke-linecap: round"/>
   </g>
   <g id="patch_6">
    <path d="M 187.43822 176.149011
Q 149.379705 198.620037 115.891408 225.092491
" clip-path="url(#p2469c1d968)" style="fill: none; opacity: 0.88; stroke: #e5ae38; stroke-width: 1.35; stroke-linecap: round"/>
    <path d="M 120.269653 224.180916
L 115.891408 225.092491
L 117.789095 221.04295
z
" clip-path="url(#p2469c1d968)" style="fill: #e5ae38; opacity: 0.88; stroke: #e5ae38; stroke-width: 1.35; stroke-linecap: round"/>
   </g>
   <g id="patch_7">
    <path d="M 243.268735 181.393958
Q 277.941014 208.802546 314.699736 230.506305
" clip-path="url(#p2469c1d968)" style="fill: none; opacity: 0.62; stroke-dasharray: 4.05,4.05; stroke-dashoffset: 0; stroke: #7f8b99; stroke-width: 1.35; stroke-linecap: round"/>
    <path d="M 312.272178 226.750382
L 314.699736 230.506305
L 310.238463 230.194798
z
" clip-path="url(#p2469c1d968)" style="fill: #7f8b99; opacity: 0.62; stroke-dasharray: 4.05,4.05; stroke-dashoffset: 0; stroke: #7f8b99; stroke-width: 1.35; stroke-linecap: round"/>
   </g>
   <g id="text_1">
    <!-- f -->
    <g style="fill: #23527c" transform="translate(20.02176 20.334395) scale(0.1 -0.1)">
     <defs>
      <path id="DejaVuSans-Bold-66" d="M 2841 4863
L 2841 4128
L 2222 4128
Q 1984 4128 1890 4042
Q 1797 3956 1797 3744
L 1797 3500
L 2753 3500
L 2753 2700
L 1797 2700
L 1797 0
L 678 0
L 678 2700
L 122 2700
L 122 3500
L 678 3500
L 678 3744
Q 678 4316 997 4589
Q 1316 4863 1984 4863
L 2841 4863
z
" transform="scale(0.015625)"/>
     </defs>
     <use xlink:href="#DejaVuSans-Bold-66"/>
    </g>
   </g>
   <g id="text_2">
    <!-- Tool / workflow contract -->
    <g style="fill: #1c2733" transform="translate(43.59168 19.925058) scale(0.097 -0.097)">
     <defs>
      <path id="DejaVuSans-Bold-54" d="M 31 4666
L 4331 4666
L 4331 3756
L 2784 3756
L 2784 0
L 1581 0
L 1581 3756
L 31 3756
L 31 4666
z
" transform="scale(0.015625)"/>
      <path id="DejaVuSans-Bold-6f" d="M 2203 2784
Q 1831 2784 1636 2517
Q 1441 2250 1441 1747
Q 1441 1244 1636 976
Q 1831 709 2203 709
Q 2569 709 2762 976
Q 2956 1244 2956 1747
Q 2956 2250 2762 2517
Q 2569 2784 2203 2784
z
M 2203 3584
Q 3106 3584 3614 3096
Q 4122 2609 4122 1747
Q 4122 884 3614 396
Q 3106 -91 2203 -91
Q 1297 -91 786 396
Q 275 884 275 1747
Q 275 2609 786 3096
Q 1297 3584 2203 3584
z
" transform="scale(0.015625)"/>
      <path id="DejaVuSans-Bold-6c" d="M 538 4863
L 1656 4863
L 1656 0
L 538 0
L 538 4863
z
" transform="scale(0.015625)"/>
      <path id="DejaVuSans-Bold-20" transform="scale(0.015625)"/>
      <path id="DejaVuSans-Bold-2f" d="M 1644 4666
L 2338 4666
L 691 -594
L 0 -594
L 1644 4666
z
" transform="scale(0.015625)"/>
      <path id="DejaVuSans-Bold-77" d="M 225 3500
L 1313 3500
L 1900 1088
L 2491 3500
L 3425 3500
L 4013 1113
L 4603 3500
L 5691 3500
L 4769 0
L 3547 0
L 2956 2406
L 2369 0
L 1147 0
L 225 3500
z
" transform="scale(0.015625)"/>
      <path id="DejaVuSans-Bold-72" d="M 3138 2547
Q 2991 2616 2845 2648
Q 2700 2681 2553 2681
Q 2122 2681 1889 2404
Q 1656 2128 1656 1613
L 1656 0
L 538 0
L 538 3500
L 1656 3500
L 1656 2925
Q 1872 3269 2151 3426
Q 2431 3584 2822 3584
Q 2878 3584 2943 3579
Q 3009 3575 3134 3559
L 3138 2547
z
" transform="scale(0.015625)"/>
      <path id="DejaVuSans-Bold-6b" d="M 538 4863
L 1656 4863
L 1656 2216
L 2944 3500
L 4244 3500
L 2534 1894
L 4378 0
L 3022 0
L 1656 1459
L 1656 0
L 538 0
L 538 4863
z
" transform="scale(0.015625)"/>
      <path id="DejaVuSans-Bold-63" d="M 3366 3391
L 3366 2478
Q 3138 2634 2908 2709
Q 2678 2784 2431 2784
Q 1963 2784 1702 2511
Q 1441 2238 1441 1747
Q 1441 1256 1702 982
Q 1963 709 2431 709
Q 2694 709 2930 787
Q 3166 866 3366 1019
L 3366 103
Q 3103 6 2833 -42
Q 2563 -91 2291 -91
Q 1344 -91 809 395
Q 275 881 275 1747
Q 275 2613 809 3098
Q 1344 3584 2291 3584
Q 2566 3584 2833 3536
Q 3100 3488 3366 3391
z
" transform="scale(0.015625)"/>
      <path id="DejaVuSans-Bold-6e" d="M 4056 2131
L 4056 0
L 2931 0
L 2931 347
L 2931 1631
Q 2931 2084 2911 2256
Q 2891 2428 2841 2509
Q 2775 2619 2662 2680
Q 2550 2741 2406 2741
Q 2056 2741 1856 2470
Q 1656 2200 1656 1722
L 1656 0
L 538 0
L 538 3500
L 1656 3500
L 1656 2988
Q 1909 3294 2193 3439
Q 2478 3584 2822 3584
Q 3428 3584 3742 3212
Q 4056 2841 4056 2131
z
" transform="scale(0.015625)"/>
      <path id="DejaVuSans-Bold-74" d="M 1759 4494
L 1759 3500
L 2913 3500
L 2913 2700
L 1759 2700
L 1759 1216
Q 1759 972 1856 886
Q 1953 800 2241 800
L 2816 800
L 2816 0
L 1856 0
Q 1194 0 917 276
Q 641 553 641 1216
L 641 2700
L 84 2700
L 84 3500
L 641 3500
L 641 4494
L 1759 4494
z
" transform="scale(0.015625)"/>
      <path id="DejaVuSans-Bold-61" d="M 2106 1575
Q 1756 1575 1579 1456
Q 1403 1338 1403 1106
Q 1403 894 1545 773
Q 1688 653 1941 653
Q 2256 653 2472 879
Q 2688 1106 2688 1447
L 2688 1575
L 2106 1575
z
M 3816 1997
L 3816 0
L 2688 0
L 2688 519
Q 2463 200 2181 54
Q 1900 -91 1497 -91
Q 953 -91 614 226
Q 275 544 275 1050
Q 275 1666 698 1953
Q 1122 2241 2028 2241
L 2688 2241
L 2688 2328
Q 2688 2594 2478 2717
Q 2269 2841 1825 2841
Q 1466 2841 1156 2769
Q 847 2697 581 2553
L 581 3406
Q 941 3494 1303 3539
Q 1666 3584 2028 3584
Q 2975 3584 3395 3211
Q 3816 2838 3816 1997
z
" transform="scale(0.015625)"/>
     </defs>
     <use xlink:href="#DejaVuSans-Bold-54"/>
     <use xlink:href="#DejaVuSans-Bold-6f" x="54.962891"/>
     <use xlink:href="#DejaVuSans-Bold-6f" x="123.664062"/>
     <use xlink:href="#DejaVuSans-Bold-6c" x="192.365234"/>
     <use xlink:href="#DejaVuSans-Bold-20" x="226.642578"/>
     <use xlink:href="#DejaVuSans-Bold-2f" x="261.457031"/>
     <use xlink:href="#DejaVuSans-Bold-20" x="297.980469"/>
     <use xlink:href="#DejaVuSans-Bold-77" x="332.794922"/>
     <use xlink:href="#DejaVuSans-Bold-6f" x="425.177734"/>
     <use xlink:href="#DejaVuSans-Bold-72" x="493.878906"/>
     <use xlink:href="#DejaVuSans-Bold-6b" x="543.195312"/>
     <use xlink:href="#DejaVuSans-Bold-66" x="609.699219"/>
     <use xlink:href="#DejaVuSans-Bold-6c" x="653.205078"/>
     <use xlink:href="#DejaVuSans-Bold-6f" x="687.482422"/>
     <use xlink:href="#DejaVuSans-Bold-77" x="756.183594"/>
     <use xlink:href="#DejaVuSans-Bold-20" x="848.566406"/>
     <use xlink:href="#DejaVuSans-Bold-63" x="883.380859"/>
     <use xlink:href="#DejaVuSans-Bold-6f" x="942.658203"/>
     <use xlink:href="#DejaVuSans-Bold-6e" x="1011.359375"/>
     <use xlink:href="#DejaVuSans-Bold-74" x="1082.550781"/>
     <use xlink:href="#DejaVuSans-Bold-72" x="1130.353516"/>
     <use xlink:href="#DejaVuSans-Bold-61" x="1179.669922"/>
     <use xlink:href="#DejaVuSans-Bold-63" x="1247.150391"/>
     <use xlink:href="#DejaVuSans-Bold-74" x="1306.427734"/>
    </g>
   </g>
   <g id="text_3">
    <!-- Tool nodes expose runtime family, modality support, and version anchors. -->
    <g style="fill: #5c6b7a" transform="translate(43.59168 32.785004) scale(0.066 -0.066)">
     <defs>
      <path id="DejaVuSans-54" d="M -19 4666
L 3928 4666
L 3928 4134
L 2272 4134
L 2272 0
L 1638 0
L 1638 4134
L -19 4134
L -19 4666
z
" transform="scale(0.015625)"/>
      <path id="DejaVuSans-6f" d="M 1959 3097
Q 1497 3097 1228 2736
Q 959 2375 959 1747
Q 959 1119 1226 758
Q 1494 397 1959 397
Q 2419 397 2687 759
Q 2956 1122 2956 1747
Q 2956 2369 2687 2733
Q 2419 3097 1959 3097
z
M 1959 3584
Q 2709 3584 3137 3096
Q 3566 2609 3566 1747
Q 3566 888 3137 398
Q 2709 -91 1959 -91
Q 1206 -91 779 398
Q 353 888 353 1747
Q 353 2609 779 3096
Q 1206 3584 1959 3584
z
" transform="scale(0.015625)"/>
      <path id="DejaVuSans-6c" d="M 603 4863
L 1178 4863
L 1178 0
L 603 0
L 603 4863
z
" transform="scale(0.015625)"/>
      <path id="DejaVuSans-20" transform="scale(0.015625)"/>
      <path id="DejaVuSans-6e" d="M 3513 2113
L 3513 0
L 2938 0
L 2938 2094
Q 2938 2591 2744 2837
Q 2550 3084 2163 3084
Q 1697 3084 1428 2787
Q 1159 2491 1159 1978
L 1159 0
L 581 0
L 581 3500
L 1159 3500
L 1159 2956
Q 1366 3272 1645 3428
Q 1925 3584 2291 3584
Q 2894 3584 3203 3211
Q 3513 2838 3513 2113
z
" transform="scale(0.015625)"/>
      <path id="DejaVuSans-64" d="M 2906 2969
L 2906 4863
L 3481 4863
L 3481 0
L 2906 0
L 2906 525
Q 2725 213 2448 61
Q 2172 -91 1784 -91
Q 1150 -91 751 415
Q 353 922 353 1747
Q 353 2572 751 3078
Q 1150 3584 1784 3584
Q 2172 3584 2448 3432
Q 2725 3281 2906 2969
z
M 947 1747
Q 947 1113 1208 752
Q 1469 391 1925 391
Q 2381 391 2643 752
Q 2906 1113 2906 1747
Q 2906 2381 2643 2742
Q 2381 3103 1925 3103
Q 1469 3103 1208 2742
Q 947 2381 947 1747
z
" transform="scale(0.015625)"/>
      <path id="DejaVuSans-65" d="M 3597 1894
L 3597 1613
L 953 1613
Q 991 1019 1311 708
Q 1631 397 2203 397
Q 2534 397 2845 478
Q 3156 559 3463 722
L 3463 178
Q 3153 47 2828 -22
Q 2503 -91 2169 -91
Q 1331 -91 842 396
Q 353 884 353 1716
Q 353 2575 817 3079
Q 1281 3584 2069 3584
Q 2775 3584 3186 3129
Q 3597 2675 3597 1894
z
M 3022 2063
Q 3016 2534 2758 2815
Q 2500 3097 2075 3097
Q 1594 3097 1305 2825
Q 1016 2553 972 2059
L 3022 2063
z
" transform="scale(0.015625)"/>
      <path id="DejaVuSans-73" d="M 2834 3397
L 2834 2853
Q 2591 2978 2328 3040
Q 2066 3103 1784 3103
Q 1356 3103 1142 2972
Q 928 2841 928 2578
Q 928 2378 1081 2264
Q 1234 2150 1697 2047
L 1894 2003
Q 2506 1872 2764 1633
Q 3022 1394 3022 966
Q 3022 478 2636 193
Q 2250 -91 1575 -91
Q 1294 -91 989 -36
Q 684 19 347 128
L 347 722
Q 666 556 975 473
Q 1284 391 1588 391
Q 1994 391 2212 530
Q 2431 669 2431 922
Q 2431 1156 2273 1281
Q 2116 1406 1581 1522
L 1381 1569
Q 847 1681 609 1914
Q 372 2147 372 2553
Q 372 3047 722 3315
Q 1072 3584 1716 3584
Q 2034 3584 2315 3537
Q 2597 3491 2834 3397
z
" transform="scale(0.015625)"/>
      <path id="DejaVuSans-78" d="M 3513 3500
L 2247 1797
L 3578 0
L 2900 0
L 1881 1375
L 863 0
L 184 0
L 1544 1831
L 300 3500
L 978 3500
L 1906 2253
L 2834 3500
L 3513 3500
z
" transform="scale(0.015625)"/>
      <path id="DejaVuSans-70" d="M 1159 525
L 1159 -1331
L 581 -1331
L 581 3500
L 1159 3500
L 1159 2969
Q 1341 3281 1617 3432
Q 1894 3584 2278 3584
Q 2916 3584 3314 3078
Q 3713 2572 3713 1747
Q 3713 922 3314 415
Q 2916 -91 2278 -91
Q 1894 -91 1617 61
Q 1341 213 1159 525
z
M 3116 1747
Q 3116 2381 2855 2742
Q 2594 3103 2138 3103
Q 1681 3103 1420 2742
Q 1159 2381 1159 1747
Q 1159 1113 1420 752
Q 1681 391 2138 391
Q 2594 391 2855 752
Q 3116 1113 3116 1747
z
" transform="scale(0.015625)"/>
      <path id="DejaVuSans-72" d="M 2631 2963
Q 2534 3019 2420 3045
Q 2306 3072 2169 3072
Q 1681 3072 1420 2755
Q 1159 2438 1159 1844
L 1159 0
L 581 0
L 581 3500
L 1159 3500
L 1159 2956
Q 1341 3275 1631 3429
Q 1922 3584 2338 3584
Q 2397 3584 2469 3576
Q 2541 3569 2628 3553
L 2631 2963
z
" transform="scale(0.015625)"/>
      <path id="DejaVuSans-75" d="M 544 1381
L 544 3500
L 1119 3500
L 1119 1403
Q 1119 906 1312 657
Q 1506 409 1894 409
Q 2359 409 2629 706
Q 2900 1003 2900 1516
L 2900 3500
L 3475 3500
L 3475 0
L 2900 0
L 2900 538
Q 2691 219 2414 64
Q 2138 -91 1772 -91
Q 1169 -91 856 284
Q 544 659 544 1381
z
M 1991 3584
L 1991 3584
z
" transform="scale(0.015625)"/>
      <path id="DejaVuSans-74" d="M 1172 4494
L 1172 3500
L 2356 3500
L 2356 3053
L 1172 3053
L 1172 1153
Q 1172 725 1289 603
Q 1406 481 1766 481
L 2356 481
L 2356 0
L 1766 0
Q 1100 0 847 248
Q 594 497 594 1153
L 594 3053
L 172 3053
L 172 3500
L 594 3500
L 594 4494
L 1172 4494
z
" transform="scale(0.015625)"/>
      <path id="DejaVuSans-69" d="M 603 3500
L 1178 3500
L 1178 0
L 603 0
L 603 3500
z
M 603 4863
L 1178 4863
L 1178 4134
L 603 4134
L 603 4863
z
" transform="scale(0.015625)"/>
      <path id="DejaVuSans-6d" d="M 3328 2828
Q 3544 3216 3844 3400
Q 4144 3584 4550 3584
Q 5097 3584 5394 3201
Q 5691 2819 5691 2113
L 5691 0
L 5113 0
L 5113 2094
Q 5113 2597 4934 2840
Q 4756 3084 4391 3084
Q 3944 3084 3684 2787
Q 3425 2491 3425 1978
L 3425 0
L 2847 0
L 2847 2094
Q 2847 2600 2669 2842
Q 2491 3084 2119 3084
Q 1678 3084 1418 2786
Q 1159 2488 1159 1978
L 1159 0
L 581 0
L 581 3500
L 1159 3500
L 1159 2956
Q 1356 3278 1631 3431
Q 1906 3584 2284 3584
Q 2666 3584 2933 3390
Q 3200 3197 3328 2828
z
" transform="scale(0.015625)"/>
      <path id="DejaVuSans-66" d="M 2375 4863
L 2375 4384
L 1825 4384
Q 1516 4384 1395 4259
Q 1275 4134 1275 3809
L 1275 3500
L 2222 3500
L 2222 3053
L 1275 3053
L 1275 0
L 697 0
L 697 3053
L 147 3053
L 147 3500
L 697 3500
L 697 3744
Q 697 4328 969 4595
Q 1241 4863 1831 4863
L 2375 4863
z
" transform="scale(0.015625)"/>
      <path id="DejaVuSans-61" d="M 2194 1759
Q 1497 1759 1228 1600
Q 959 1441 959 1056
Q 959 750 1161 570
Q 1363 391 1709 391
Q 2188 391 2477 730
Q 2766 1069 2766 1631
L 2766 1759
L 2194 1759
z
M 3341 1997
L 3341 0
L 2766 0
L 2766 531
Q 2569 213 2275 61
Q 1981 -91 1556 -91
Q 1019 -91 701 211
Q 384 513 384 1019
Q 384 1609 779 1909
Q 1175 2209 1959 2209
L 2766 2209
L 2766 2266
Q 2766 2663 2505 2880
Q 2244 3097 1772 3097
Q 1472 3097 1187 3025
Q 903 2953 641 2809
L 641 3341
Q 956 3463 1253 3523
Q 1550 3584 1831 3584
Q 2591 3584 2966 3190
Q 3341 2797 3341 1997
z
" transform="scale(0.015625)"/>
      <path id="DejaVuSans-79" d="M 2059 -325
Q 1816 -950 1584 -1140
Q 1353 -1331 966 -1331
L 506 -1331
L 506 -850
L 844 -850
Q 1081 -850 1212 -737
Q 1344 -625 1503 -206
L 1606 56
L 191 3500
L 800 3500
L 1894 763
L 2988 3500
L 3597 3500
L 2059 -325
z
" transform="scale(0.015625)"/>
      <path id="DejaVuSans-2c" d="M 750 794
L 1409 794
L 1409 256
L 897 -744
L 494 -744
L 750 256
L 750 794
z
" transform="scale(0.015625)"/>
      <path id="DejaVuSans-76" d="M 191 3500
L 800 3500
L 1894 563
L 2988 3500
L 3597 3500
L 2284 0
L 1503 0
L 191 3500
z
" transform="scale(0.015625)"/>
      <path id="DejaVuSans-63" d="M 3122 3366
L 3122 2828
Q 2878 2963 2633 3030
Q 2388 3097 2138 3097
Q 1578 3097 1268 2742
Q 959 2388 959 1747
Q 959 1106 1268 751
Q 1578 397 2138 397
Q 2388 397 2633 464
Q 2878 531 3122 666
L 3122 134
Q 2881 22 2623 -34
Q 2366 -91 2075 -91
Q 1284 -91 818 406
Q 353 903 353 1747
Q 353 2603 823 3093
Q 1294 3584 2113 3584
Q 2378 3584 2631 3529
Q 2884 3475 3122 3366
z
" transform="scale(0.015625)"/>
      <path id="DejaVuSans-68" d="M 3513 2113
L 3513 0
L 2938 0
L 2938 2094
Q 2938 2591 2744 2837
Q 2550 3084 2163 3084
Q 1697 3084 1428 2787
Q 1159 2491 1159 1978
L 1159 0
L 581 0
L 581 4863
L 1159 4863
L 1159 2956
Q 1366 3272 1645 3428
Q 1925 3584 2291 3584
Q 2894 3584 3203 3211
Q 3513 2838 3513 2113
z
" transform="scale(0.015625)"/>
      <path id="DejaVuSans-2e" d="M 684 794
L 1344 794
L 1344 0
L 684 0
L 684 794
z
" transform="scale(0.015625)"/>
     </defs>
     <use xlink:href="#DejaVuSans-54"/>
     <use xlink:href="#DejaVuSans-6f" x="44.083984"/>
     <use xlink:href="#DejaVuSans-6f" x="105.265625"/>
     <use xlink:href="#DejaVuSans-6c" x="166.447266"/>
     <use xlink:href="#DejaVuSans-20" x="194.230469"/>
     <use xlink:href="#DejaVuSans-6e" x="226.017578"/>
     <use xlink:href="#DejaVuSans-6f" x="289.396484"/>
     <use xlink:href="#DejaVuSans-64" x="350.578125"/>
     <use xlink:href="#DejaVuSans-65" x="414.054688"/>
     <use xlink:href="#DejaVuSans-73" x="475.578125"/>
     <use xlink:href="#DejaVuSans-20" x="527.677734"/>
     <use xlink:href="#DejaVuSans-65" x="559.464844"/>
     <use xlink:href="#DejaVuSans-78" x="619.238281"/>
     <use xlink:href="#DejaVuSans-70" x="678.417969"/>
     <use xlink:href="#DejaVuSans-6f" x="741.894531"/>
     <use xlink:href="#DejaVuSans-73" x="803.076172"/>
     <use xlink:href="#DejaVuSans-65" x="855.175781"/>
     <use xlink:href="#DejaVuSans-20" x="916.699219"/>
     <use xlink:href="#DejaVuSans-72" x="948.486328"/>
     <use xlink:href="#DejaVuSans-75" x="989.599609"/>
     <use xlink:href="#DejaVuSans-6e" x="1052.978516"/>
     <use xlink:href="#DejaVuSans-74" x="1116.357422"/>
     <use xlink:href="#DejaVuSans-69" x="1155.566406"/>
     <use xlink:href="#DejaVuSans-6d" x="1183.349609"/>
     <use xlink:href="#DejaVuSans-65" x="1280.761719"/>
     <use xlink:href="#DejaVuSans-20" x="1342.285156"/>
     <use xlink:href="#DejaVuSans-66" x="1374.072266"/>
     <use xlink:href="#DejaVuSans-61" x="1409.277344"/>
     <use xlink:href="#DejaVuSans-6d" x="1470.556641"/>
     <use xlink:href="#DejaVuSans-69" x="1567.96875"/>
     <use xlink:href="#DejaVuSans-6c" x="1595.751953"/>
     <use xlink:href="#DejaVuSans-79" x="1623.535156"/>
     <use xlink:href="#DejaVuSans-2c" x="1682.714844"/>
     <use xlink:href="#DejaVuSans-20" x="1714.501953"/>
     <use xlink:href="#DejaVuSans-6d" x="1746.289062"/>
     <use xlink:href="#DejaVuSans-6f" x="1843.701172"/>
     <use xlink:href="#DejaVuSans-64" x="1904.882812"/>
     <use xlink:href="#DejaVuSans-61" x="1968.359375"/>
     <use xlink:href="#DejaVuSans-6c" x="2029.638672"/>
     <use xlink:href="#DejaVuSans-69" x="2057.421875"/>
     <use xlink:href="#DejaVuSans-74" x="2085.205078"/>
     <use xlink:href="#DejaVuSans-79" x="2124.414062"/>
     <use xlink:href="#DejaVuSans-20" x="2183.59375"/>
     <use xlink:href="#DejaVuSans-73" x="2215.380859"/>
     <use xlink:href="#DejaVuSans-75" x="2267.480469"/>
     <use xlink:href="#DejaVuSans-70" x="2330.859375"/>
     <use xlink:href="#DejaVuSans-70" x="2394.335938"/>
     <use xlink:href="#DejaVuSans-6f" x="2457.8125"/>
     <use xlink:href="#DejaVuSans-72" x="2518.994141"/>
     <use xlink:href="#DejaVuSans-74" x="2560.107422"/>
     <use xlink:href="#DejaVuSans-2c" x="2599.316406"/>
     <use xlink:href="#DejaVuSans-20" x="2631.103516"/>
     <use xlink:href="#DejaVuSans-61" x="2662.890625"/>
     <use xlink:href="#DejaVuSans-6e" x="2724.169922"/>
     <use xlink:href="#DejaVuSans-64" x="2787.548828"/>
     <use xlink:href="#DejaVuSans-20" x="2851.025391"/>
     <use xlink:href="#DejaVuSans-76" x="2882.8125"/>
     <use xlink:href="#DejaVuSans-65" x="2941.992188"/>
     <use xlink:href="#DejaVuSans-72" x="3003.515625"/>
     <use xlink:href="#DejaVuSans-73" x="3044.628906"/>
     <use xlink:href="#DejaVuSans-69" x="3096.728516"/>
     <use xlink:href="#DejaVuSans-6f" x="3124.511719"/>
     <use xlink:href="#DejaVuSans-6e" x="3185.693359"/>
     <use xlink:href="#DejaVuSans-20" x="3249.072266"/>
     <use xlink:href="#DejaVuSans-61" x="3280.859375"/>
     <use xlink:href="#DejaVuSans-6e" x="3342.138672"/>
     <use xlink:href="#DejaVuSans-63" x="3405.517578"/>
     <use xlink:href="#DejaVuSans-68" x="3460.498047"/>
     <use xlink:href="#DejaVuSans-6f" x="3523.876953"/>
     <use xlink:href="#DejaVuSans-72" x="3585.058594"/>
     <use xlink:href="#DejaVuSans-73" x="3626.171875"/>
     <use xlink:href="#DejaVuSans-2e" x="3678.271484"/>
    </g>
   </g>
   <g id="PathCollection_1">
    <defs>
     <path id="m6f8832b270" d="M 0 54.091878
C 14.345334 54.091878 28.105051 48.392416 38.248734 38.248734
C 48.392416 28.105051 54.091878 14.345334 54.091878 0
C 54.091878 -14.345334 48.392416 -28.105051 38.248734 -38.248734
C 28.105051 -48.392416 14.345334 -54.091878 0 -54.091878
C -14.345334 -54.091878 -28.105051 -48.392416 -38.248734 -38.248734
C -48.392416 -28.105051 -54.091878 -14.345334 -54.091878 0
C -54.091878 14.345334 -48.392416 28.105051 -38.248734 38.248734
C -28.105051 48.392416 -14.345334 54.091878 0 54.091878
z
"/>
    </defs>
    <g clip-path="url(#p2469c1d968)">
     <use xlink:href="#m6f8832b270" x="217.152" y="159.62688" style="fill: #d65f5f; fill-opacity: 0.12"/>
    </g>
   </g>
   <g id="PathCollection_2">
    <defs>
     <path id="mb94529d096" d="M 0 49.174434
C 13.041212 49.174434 25.550046 43.993106 34.771576 34.771576
C 43.993106 25.550046 49.174434 13.041212 49.174434 0
C 49.174434 -13.041212 43.993106 -25.550046 34.771576 -34.771576
C 25.550046 -43.993106 13.041212 -49.174434 0 -49.174434
C -13.041212 -49.174434 -25.550046 -43.993106 -34.771576 -34.771576
C -43.993106 -25.550046 -49.174434 -13.041212 -49.174434 0
C -49.174434 13.041212 -43.993106 25.550046 -34.771576 34.771576
C -25.550046 43.993106 -13.041212 49.174434 0 49.174434
z
"/>
    </defs>
    <g clip-path="url(#p2469c1d968)">
     <use xlink:href="#mb94529d096" x="88.5888" y="94.31568" style="fill: #e88888; fill-opacity: 0.12"/>
    </g>
   </g>
   <g id="PathCollection_3">
    <defs>
     <path id="mc7bb131011" d="M 0 49.174434
C 13.041212 49.174434 25.550046 43.993106 34.771576 34.771576
C 43.993106 25.550046 49.174434 13.041212 49.174434 0
C 49.174434 -13.041212 43.993106 -25.550046 34.771576 -34.771576
C 25.550046 -43.993106 13.041212 -49.174434 0 -49.174434
C -13.041212 -49.174434 -25.550046 -43.993106 -34.771576 -34.771576
C -43.993106 -25.550046 -49.174434 -13.041212 -49.174434 0
C -49.174434 13.041212 -43.993106 25.550046 -34.771576 34.771576
C -25.550046 43.993106 -13.041212 49.174434 0 49.174434
z
"/>
    </defs>
    <g clip-path="url(#p2469c1d968)">
     <use xlink:href="#mc7bb131011" x="345.7152" y="94.31568" style="fill: #d99000; fill-opacity: 0.12"/>
    </g>
   </g>
   <g id="PathCollection_4">
    <defs>
     <path id="mbd2cb00583" d="M 0 49.174434
C 13.041212 49.174434 25.550046 43.993106 34.771576 34.771576
C 43.993106 25.550046 49.174434 13.041212 49.174434 0
C 49.174434 -13.041212 43.993106 -25.550046 34.771576 -34.771576
C 25.550046 -43.993106 13.041212 -49.174434 0 -49.174434
C -13.041212 -49.174434 -25.550046 -43.993106 -34.771576 -34.771576
C -43.993106 -25.550046 -49.174434 -13.041212 -49.174434 0
C -49.174434 13.041212 -43.993106 25.550046 -34.771576 34.771576
C -25.550046 43.993106 -13.041212 49.174434 0 49.174434
z
"/>
    </defs>
    <g clip-path="url(#p2469c1d968)">
     <use xlink:href="#mbd2cb00583" x="88.5888" y="247.797" style="fill: #e5ae38; fill-opacity: 0.12"/>
    </g>
   </g>
   <g id="PathCollection_5">
    <defs>
     <path id="mf3369747b3" d="M 0 36.095256
C 9.572574 36.095256 18.754368 32.292032 25.5232 25.5232
C 32.292032 18.754368 36.095256 9.572574 36.095256 0
C 36.095256 -9.572574 32.292032 -18.754368 25.5232 -25.5232
C 18.754368 -32.292032 9.572574 -36.095256 0 -36.095256
C -9.572574 -36.095256 -18.754368 -32.292032 -25.5232 -25.5232
C -32.292032 -18.754368 -36.095256 -9.572574 -36.095256 0
C -36.095256 9.572574 -32.292032 18.754368 -25.5232 25.5232
C -18.754368 32.292032 -9.572574 36.095256 0 36.095256
z
" style="stroke: #d65f5f; stroke-width: 2.2"/>
    </defs>
    <g clip-path="url(#p2469c1d968)">
     <use xlink:href="#mf3369747b3" x="217.152" y="159.62688" style="fill: #ffffff; stroke: #d65f5f; stroke-width: 2.2"/>
    </g>
   </g>
   <g id="PathCollection_6">
    <defs>
     <path id="m0219389f78" d="M 0 32.813869
C 8.70234 32.813869 17.049426 29.356393 23.202909 23.202909
C 29.356393 17.049426 32.813869 8.70234 32.813869 0
C 32.813869 -8.70234 29.356393 -17.049426 23.202909 -23.202909
C 17.049426 -29.356393 8.70234 -32.813869 0 -32.813869
C -8.70234 -32.813869 -17.049426 -29.356393 -23.202909 -23.202909
C -29.356393 -17.049426 -32.813869 -8.70234 -32.813869 0
C -32.813869 8.70234 -29.356393 17.049426 -23.202909 23.202909
C -17.049426 29.356393 -8.70234 32.813869 0 32.813869
z
" style="stroke: #e88888; stroke-width: 2.2"/>
    </defs>
    <g clip-path="url(#p2469c1d968)">
     <use xlink:href="#m0219389f78" x="88.5888" y="94.31568" style="fill: #ffffff; stroke: #e88888; stroke-width: 2.2"/>
    </g>
   </g>
   <g id="PathCollection_7">
    <defs>
     <path id="me2feb2fca5" d="M 0 32.813869
C 8.70234 32.813869 17.049426 29.356393 23.202909 23.202909
C 29.356393 17.049426 32.813869 8.70234 32.813869 0
C 32.813869 -8.70234 29.356393 -17.049426 23.202909 -23.202909
C 17.049426 -29.356393 8.70234 -32.813869 0 -32.813869
C -8.70234 -32.813869 -17.049426 -29.356393 -23.202909 -23.202909
C -29.356393 -17.049426 -32.813869 -8.70234 -32.813869 0
C -32.813869 8.70234 -29.356393 17.049426 -23.202909 23.202909
C -17.049426 29.356393 -8.70234 32.813869 0 32.813869
z
" style="stroke: #d99000; stroke-width: 2.2"/>
    </defs>
    <g clip-path="url(#p2469c1d968)">
     <use xlink:href="#me2feb2fca5" x="345.7152" y="94.31568" style="fill: #ffffff; stroke: #d99000; stroke-width: 2.2"/>
    </g>
   </g>
   <g id="PathCollection_8">
    <defs>
     <path id="mbe80745f0c" d="M 0 32.813869
C 8.70234 32.813869 17.049426 29.356393 23.202909 23.202909
C 29.356393 17.049426 32.813869 8.70234 32.813869 0
C 32.813869 -8.70234 29.356393 -17.049426 23.202909 -23.202909
C 17.049426 -29.356393 8.70234 -32.813869 0 -32.813869
C -8.70234 -32.813869 -17.049426 -29.356393 -23.202909 -23.202909
C -29.356393 -17.049426 -32.813869 -8.70234 -32.813869 0
C -32.813869 8.70234 -29.356393 17.049426 -23.202909 23.202909
C -17.049426 29.356393 -8.70234 32.813869 0 32.813869
z
" style="stroke: #e5ae38; stroke-width: 2.2"/>
    </defs>
    <g clip-path="url(#p2469c1d968)">
     <use xlink:href="#mbe80745f0c" x="88.5888" y="247.797" style="fill: #ffffff; stroke: #e5ae38; stroke-width: 2.2"/>
    </g>
   </g>
   <g id="PathCollection_9">
    <defs>
     <path id="mfafc4fbc3c" d="M 0 32.813869
C 8.70234 32.813869 17.049426 29.356393 23.202909 23.202909
C 29.356393 17.049426 32.813869 8.70234 32.813869 0
C 32.813869 -8.70234 29.356393 -17.049426 23.202909 -23.202909
C 17.049426 -29.356393 8.70234 -32.813869 0 -32.813869
C -8.70234 -32.813869 -17.049426 -29.356393 -23.202909 -23.202909
C -29.356393 -17.049426 -32.813869 -8.70234 -32.813869 0
C -32.813869 8.70234 -29.356393 17.049426 -23.202909 23.202909
C -17.049426 29.356393 -8.70234 32.813869 0 32.813869
z
" style="stroke: #a9b4c1; stroke-width: 1.8"/>
    </defs>
    <g clip-path="url(#p2469c1d968)">
     <use xlink:href="#mfafc4fbc3c" x="345.7152" y="247.797" style="fill: #ffffff; stroke: #a9b4c1; stroke-width: 1.8"/>
    </g>
   </g>
   <g id="PathCollection_10">
    <defs>
     <path id="m70a96f781a" d="M 0 30.814729
C 8.172162 30.814729 16.010713 27.567894 21.789304 21.789304
C 27.567894 16.010713 30.814729 8.172162 30.814729 0
C 30.814729 -8.172162 27.567894 -16.010713 21.789304 -21.789304
C 16.010713 -27.567894 8.172162 -30.814729 0 -30.814729
C -8.172162 -30.814729 -16.010713 -27.567894 -21.789304 -21.789304
C -27.567894 -16.010713 -30.814729 -8.172162 -30.814729 0
C -30.814729 8.172162 -27.567894 16.010713 -21.789304 21.789304
C -16.010713 27.567894 -8.172162 30.814729 0 30.814729
z
" style="stroke: #ffffff; stroke-opacity: 0.96"/>
    </defs>
    <g clip-path="url(#p2469c1d968)">
     <use xlink:href="#m70a96f781a" x="217.152" y="159.62688" style="fill: #d65f5f; fill-opacity: 0.96; stroke: #ffffff; stroke-opacity: 0.96"/>
    </g>
   </g>
   <g id="PathCollection_11">
    <defs>
     <path id="m67e0ac7458" d="M 0 28.01339
C 7.429238 28.01339 14.555193 25.061722 19.808458 19.808458
C 25.061722 14.555193 28.01339 7.429238 28.01339 0
C 28.01339 -7.429238 25.061722 -14.555193 19.808458 -19.808458
C 14.555193 -25.061722 7.429238 -28.01339 0 -28.01339
C -7.429238 -28.01339 -14.555193 -25.061722 -19.808458 -19.808458
C -25.061722 -14.555193 -28.01339 -7.429238 -28.01339 0
C -28.01339 7.429238 -25.061722 14.555193 -19.808458 19.808458
C -14.555193 25.061722 -7.429238 28.01339 0 28.01339
z
" style="stroke: #ffffff; stroke-opacity: 0.96"/>
    </defs>
    <g clip-path="url(#p2469c1d968)">
     <use xlink:href="#m67e0ac7458" x="88.5888" y="94.31568" style="fill: #e88888; fill-opacity: 0.96; stroke: #ffffff; stroke-opacity: 0.96"/>
    </g>
   </g>
   <g id="PathCollection_12">
    <defs>
     <path id="m7ce678e3ec" d="M 0 28.01339
C 7.429238 28.01339 14.555193 25.061722 19.808458 19.808458
C 25.061722 14.555193 28.01339 7.429238 28.01339 0
C 28.01339 -7.429238 25.061722 -14.555193 19.808458 -19.808458
C 14.555193 -25.061722 7.429238 -28.01339 0 -28.01339
C -7.429238 -28.01339 -14.555193 -25.061722 -19.808458 -19.808458
C -25.061722 -14.555193 -28.01339 -7.429238 -28.01339 0
C -28.01339 7.429238 -25.061722 14.555193 -19.808458 19.808458
C -14.555193 25.061722 -7.429238 28.01339 0 28.01339
z
" style="stroke: #ffffff; stroke-opacity: 0.96"/>
    </defs>
    <g clip-path="url(#p2469c1d968)">
     <use xlink:href="#m7ce678e3ec" x="345.7152" y="94.31568" style="fill: #d99000; fill-opacity: 0.96; stroke: #ffffff; stroke-opacity: 0.96"/>
    </g>
   </g>
   <g id="PathCollection_13">
    <defs>
     <path id="ma98e03bc89" d="M 0 28.01339
C 7.429238 28.01339 14.555193 25.061722 19.808458 19.808458
C 25.061722 14.555193 28.01339 7.429238 28.01339 0
C 28.01339 -7.429238 25.061722 -14.555193 19.808458 -19.808458
C 14.555193 -25.061722 7.429238 -28.01339 0 -28.01339
C -7.429238 -28.01339 -14.555193 -25.061722 -19.808458 -19.808458
C -25.061722 -14.555193 -28.01339 -7.429238 -28.01339 0
C -28.01339 7.429238 -25.061722 14.555193 -19.808458 19.808458
C -14.555193 25.061722 -7.429238 28.01339 0 28.01339
z
" style="stroke: #ffffff; stroke-opacity: 0.96"/>
    </defs>
    <g clip-path="url(#p2469c1d968)">
     <use xlink:href="#ma98e03bc89" x="88.5888" y="247.797" style="fill: #e5ae38; fill-opacity: 0.96; stroke: #ffffff; stroke-opacity: 0.96"/>
    </g>
   </g>
   <g id="PathCollection_14">
    <defs>
     <path id="m4c3818538d" d="M 0 28.65746
C 7.600047 28.65746 14.889839 25.637929 20.263884 20.263884
C 25.637929 14.889839 28.65746 7.600047 28.65746 0
C 28.65746 -7.600047 25.637929 -14.889839 20.263884 -20.263884
C 14.889839 -25.637929 7.600047 -28.65746 0 -28.65746
C -7.600047 -28.65746 -14.889839 -25.637929 -20.263884 -20.263884
C -25.637929 -14.889839 -28.65746 -7.600047 -28.65746 0
C -28.65746 7.600047 -25.637929 14.889839 -20.263884 20.263884
C -14.889839 25.637929 -7.600047 28.65746 0 28.65746
z
" style="stroke: #7f8b99"/>
    </defs>
    <g clip-path="url(#p2469c1d968)">
     <use xlink:href="#m4c3818538d" x="345.7152" y="247.797" style="fill: #eef2f6; stroke: #7f8b99"/>
    </g>
   </g>
   <g id="text_4">
    <g id="patch_8">
     <path d="M 135.969455 130.663811
L 169.771345 130.663811
Q 170.626345 130.663811 170.626345 129.808811
L 170.626345 124.133749
Q 170.626345 123.278749 169.771345 123.278749
L 135.969455 123.278749
Q 135.114455 123.278749 135.114455 124.133749
L 135.114455 129.808811
Q 135.114455 130.663811 135.969455 130.663811
z
" style="fill: #ffffff; opacity: 0.94; stroke: #d7dfe8; stroke-width: 0.55; stroke-linejoin: miter"/>
    </g>
    <!-- has_version -->
    <g style="fill: #27313c" transform="translate(135.969455 128.464858) scale(0.057 -0.057)">
     <defs>
      <path id="DejaVuSans-5f" d="M 3263 -1063
L 3263 -1509
L -63 -1509
L -63 -1063
L 3263 -1063
z
" transform="scale(0.015625)"/>
     </defs>
     <use xlink:href="#DejaVuSans-68"/>
     <use xlink:href="#DejaVuSans-61" x="63.378906"/>
     <use xlink:href="#DejaVuSans-73" x="124.658203"/>
     <use xlink:href="#DejaVuSans-5f" x="176.757812"/>
     <use xlink:href="#DejaVuSans-76" x="226.757812"/>
     <use xlink:href="#DejaVuSans-65" x="285.9375"/>
     <use xlink:href="#DejaVuSans-72" x="347.460938"/>
     <use xlink:href="#DejaVuSans-73" x="388.574219"/>
     <use xlink:href="#DejaVuSans-69" x="440.673828"/>
     <use xlink:href="#DejaVuSans-6f" x="468.457031"/>
     <use xlink:href="#DejaVuSans-6e" x="529.638672"/>
    </g>
   </g>
   <g id="text_5">
    <g id="patch_9">
     <path d="M 254.35192 130.663811
L 308.51528 130.663811
Q 309.37028 130.663811 309.37028 129.808811
L 309.37028 124.133749
Q 309.37028 123.278749 308.51528 123.278749
L 254.35192 123.278749
Q 253.49692 123.278749 253.49692 124.133749
L 253.49692 129.808811
Q 253.49692 130.663811 254.35192 130.663811
z
" style="fill: #ffffff; opacity: 0.94; stroke: #d7dfe8; stroke-width: 0.55; stroke-linejoin: miter"/>
    </g>
    <!-- implements_family -->
    <g style="fill: #27313c" transform="translate(254.35192 128.464858) scale(0.057 -0.057)">
     <use xlink:href="#DejaVuSans-69"/>
     <use xlink:href="#DejaVuSans-6d" x="27.783203"/>
     <use xlink:href="#DejaVuSans-70" x="125.195312"/>
     <use xlink:href="#DejaVuSans-6c" x="188.671875"/>
     <use xlink:href="#DejaVuSans-65" x="216.455078"/>
     <use xlink:href="#DejaVuSans-6d" x="277.978516"/>
     <use xlink:href="#DejaVuSans-65" x="375.390625"/>
     <use xlink:href="#DejaVuSans-6e" x="436.914062"/>
     <use xlink:href="#DejaVuSans-74" x="500.292969"/>
     <use xlink:href="#DejaVuSans-73" x="539.501953"/>
     <use xlink:href="#DejaVuSans-5f" x="591.601562"/>
     <use xlink:href="#DejaVuSans-66" x="641.601562"/>
     <use xlink:href="#DejaVuSans-61" x="676.806641"/>
     <use xlink:href="#DejaVuSans-6d" x="738.085938"/>
     <use xlink:href="#DejaVuSans-69" x="835.498047"/>
     <use xlink:href="#DejaVuSans-6c" x="863.28125"/>
     <use xlink:href="#DejaVuSans-79" x="891.064453"/>
    </g>
   </g>
   <g id="text_6">
    <g id="patch_10">
     <path d="M 126.555103 207.404471
L 179.185697 207.404471
Q 180.040697 207.404471 180.040697 206.549471
L 180.040697 200.874409
Q 180.040697 200.019409 179.185697 200.019409
L 126.555103 200.019409
Q 125.700103 200.019409 125.700103 200.874409
L 125.700103 206.549471
Q 125.700103 207.404471 126.555103 207.404471
z
" style="fill: #ffffff; opacity: 0.94; stroke: #d7dfe8; stroke-width: 0.55; stroke-linejoin: miter"/>
    </g>
    <!-- supports_modality -->
    <g style="fill: #27313c" transform="translate(126.555103 205.205518) scale(0.057 -0.057)">
     <use xlink:href="#DejaVuSans-73"/>
     <use xlink:href="#DejaVuSans-75" x="52.099609"/>
     <use xlink:href="#DejaVuSans-70" x="115.478516"/>
     <use xlink:href="#DejaVuSans-70" x="178.955078"/>
     <use xlink:href="#DejaVuSans-6f" x="242.431641"/>
     <use xlink:href="#DejaVuSans-72" x="303.613281"/>
     <use xlink:href="#DejaVuSans-74" x="344.726562"/>
     <use xlink:href="#DejaVuSans-73" x="383.935547"/>
     <use xlink:href="#DejaVuSans-5f" x="436.035156"/>
     <use xlink:href="#DejaVuSans-6d" x="486.035156"/>
     <use xlink:href="#DejaVuSans-6f" x="583.447266"/>
     <use xlink:href="#DejaVuSans-64" x="644.628906"/>
     <use xlink:href="#DejaVuSans-61" x="708.105469"/>
     <use xlink:href="#DejaVuSans-6c" x="769.384766"/>
     <use xlink:href="#DejaVuSans-69" x="797.167969"/>
     <use xlink:href="#DejaVuSans-74" x="824.951172"/>
     <use xlink:href="#DejaVuSans-79" x="864.160156"/>
    </g>
   </g>
   <g id="text_7">
    <g id="patch_11">
     <path d="M 266.205248 207.404471
L 296.661952 207.404471
Q 297.516952 207.404471 297.516952 206.549471
L 297.516952 200.874409
Q 297.516952 200.019409 296.661952 200.019409
L 266.205248 200.019409
Q 265.350248 200.019409 265.350248 200.874409
L 265.350248 206.549471
Q 265.350248 207.404471 266.205248 207.404471
z
" style="fill: #ffffff; opacity: 0.94; stroke: #d7dfe8; stroke-width: 0.55; stroke-linejoin: miter"/>
    </g>
    <!-- source_file -->
    <g style="fill: #27313c" transform="translate(266.205248 205.205518) scale(0.057 -0.057)">
     <use xlink:href="#DejaVuSans-73"/>
     <use xlink:href="#DejaVuSans-6f" x="52.099609"/>
     <use xlink:href="#DejaVuSans-75" x="113.28125"/>
     <use xlink:href="#DejaVuSans-72" x="176.660156"/>
     <use xlink:href="#DejaVuSans-63" x="215.523438"/>
     <use xlink:href="#DejaVuSans-65" x="270.503906"/>
     <use xlink:href="#DejaVuSans-5f" x="332.027344"/>
     <use xlink:href="#DejaVuSans-66" x="382.027344"/>
     <use xlink:href="#DejaVuSans-69" x="417.232422"/>
     <use xlink:href="#DejaVuSans-6c" x="445.015625"/>
     <use xlink:href="#DejaVuSans-65" x="472.798828"/>
    </g>
   </g>
   <g id="text_8">
    <!-- Tool -->
    <g style="fill: #536273" transform="translate(210.125656 118.922165) scale(0.062 -0.062)">
     <use xlink:href="#DejaVuSans-Bold-54"/>
     <use xlink:href="#DejaVuSans-Bold-6f" x="54.962891"/>
     <use xlink:href="#DejaVuSans-Bold-6f" x="123.664062"/>
     <use xlink:href="#DejaVuSans-Bold-6c" x="192.365234"/>
    </g>
   </g>
   <g id="text_9">
    <!-- afni.24.2.06.1dBandpass.run -->
    <g style="fill: #101820" transform="translate(162.490992 161.475661) scale(0.067 -0.067)">
     <defs>
      <path id="DejaVuSans-Bold-69" d="M 538 3500
L 1656 3500
L 1656 0
L 538 0
L 538 3500
z
M 538 4863
L 1656 4863
L 1656 3950
L 538 3950
L 538 4863
z
" transform="scale(0.015625)"/>
      <path id="DejaVuSans-Bold-2e" d="M 653 1209
L 1778 1209
L 1778 0
L 653 0
L 653 1209
z
" transform="scale(0.015625)"/>
      <path id="DejaVuSans-Bold-32" d="M 1844 884
L 3897 884
L 3897 0
L 506 0
L 506 884
L 2209 2388
Q 2438 2594 2547 2791
Q 2656 2988 2656 3200
Q 2656 3528 2436 3728
Q 2216 3928 1850 3928
Q 1569 3928 1234 3808
Q 900 3688 519 3450
L 519 4475
Q 925 4609 1322 4679
Q 1719 4750 2100 4750
Q 2938 4750 3402 4381
Q 3866 4013 3866 3353
Q 3866 2972 3669 2642
Q 3472 2313 2841 1759
L 1844 884
z
" transform="scale(0.015625)"/>
      <path id="DejaVuSans-Bold-34" d="M 2356 3675
L 1038 1722
L 2356 1722
L 2356 3675
z
M 2156 4666
L 3494 4666
L 3494 1722
L 4159 1722
L 4159 850
L 3494 850
L 3494 0
L 2356 0
L 2356 850
L 288 850
L 288 1881
L 2156 4666
z
" transform="scale(0.015625)"/>
      <path id="DejaVuSans-Bold-30" d="M 2944 2338
Q 2944 3213 2780 3570
Q 2616 3928 2228 3928
Q 1841 3928 1675 3570
Q 1509 3213 1509 2338
Q 1509 1453 1675 1090
Q 1841 728 2228 728
Q 2613 728 2778 1090
Q 2944 1453 2944 2338
z
M 4147 2328
Q 4147 1169 3647 539
Q 3147 -91 2228 -91
Q 1306 -91 806 539
Q 306 1169 306 2328
Q 306 3491 806 4120
Q 1306 4750 2228 4750
Q 3147 4750 3647 4120
Q 4147 3491 4147 2328
z
" transform="scale(0.015625)"/>
      <path id="DejaVuSans-Bold-36" d="M 2316 2303
Q 2000 2303 1842 2098
Q 1684 1894 1684 1484
Q 1684 1075 1842 870
Q 2000 666 2316 666
Q 2634 666 2792 870
Q 2950 1075 2950 1484
Q 2950 1894 2792 2098
Q 2634 2303 2316 2303
z
M 3803 4544
L 3803 3681
Q 3506 3822 3243 3889
Q 2981 3956 2731 3956
Q 2194 3956 1894 3657
Q 1594 3359 1544 2772
Q 1750 2925 1990 3001
Q 2231 3078 2516 3078
Q 3231 3078 3670 2659
Q 4109 2241 4109 1563
Q 4109 813 3618 361
Q 3128 -91 2303 -91
Q 1394 -91 895 523
Q 397 1138 397 2266
Q 397 3422 980 4083
Q 1563 4744 2578 4744
Q 2900 4744 3203 4694
Q 3506 4644 3803 4544
z
" transform="scale(0.015625)"/>
      <path id="DejaVuSans-Bold-31" d="M 750 831
L 1813 831
L 1813 3847
L 722 3622
L 722 4441
L 1806 4666
L 2950 4666
L 2950 831
L 4013 831
L 4013 0
L 750 0
L 750 831
z
" transform="scale(0.015625)"/>
      <path id="DejaVuSans-Bold-64" d="M 2919 2988
L 2919 4863
L 4044 4863
L 4044 0
L 2919 0
L 2919 506
Q 2688 197 2409 53
Q 2131 -91 1766 -91
Q 1119 -91 703 423
Q 288 938 288 1747
Q 288 2556 703 3070
Q 1119 3584 1766 3584
Q 2128 3584 2408 3439
Q 2688 3294 2919 2988
z
M 2181 722
Q 2541 722 2730 984
Q 2919 1247 2919 1747
Q 2919 2247 2730 2509
Q 2541 2772 2181 2772
Q 1825 2772 1636 2509
Q 1447 2247 1447 1747
Q 1447 1247 1636 984
Q 1825 722 2181 722
z
" transform="scale(0.015625)"/>
      <path id="DejaVuSans-Bold-42" d="M 2456 2859
Q 2741 2859 2887 2984
Q 3034 3109 3034 3353
Q 3034 3594 2887 3720
Q 2741 3847 2456 3847
L 1791 3847
L 1791 2859
L 2456 2859
z
M 2497 819
Q 2859 819 3042 972
Q 3225 1125 3225 1434
Q 3225 1738 3044 1889
Q 2863 2041 2497 2041
L 1791 2041
L 1791 819
L 2497 819
z
M 3616 2497
Q 4003 2384 4215 2081
Q 4428 1778 4428 1338
Q 4428 663 3972 331
Q 3516 0 2584 0
L 588 0
L 588 4666
L 2394 4666
Q 3366 4666 3802 4372
Q 4238 4078 4238 3431
Q 4238 3091 4078 2852
Q 3919 2613 3616 2497
z
" transform="scale(0.015625)"/>
      <path id="DejaVuSans-Bold-70" d="M 1656 506
L 1656 -1331
L 538 -1331
L 538 3500
L 1656 3500
L 1656 2988
Q 1888 3294 2169 3439
Q 2450 3584 2816 3584
Q 3463 3584 3878 3070
Q 4294 2556 4294 1747
Q 4294 938 3878 423
Q 3463 -91 2816 -91
Q 2450 -91 2169 54
Q 1888 200 1656 506
z
M 2400 2772
Q 2041 2772 1848 2508
Q 1656 2244 1656 1747
Q 1656 1250 1848 986
Q 2041 722 2400 722
Q 2759 722 2948 984
Q 3138 1247 3138 1747
Q 3138 2247 2948 2509
Q 2759 2772 2400 2772
z
" transform="scale(0.015625)"/>
      <path id="DejaVuSans-Bold-73" d="M 3272 3391
L 3272 2541
Q 2913 2691 2578 2766
Q 2244 2841 1947 2841
Q 1628 2841 1473 2761
Q 1319 2681 1319 2516
Q 1319 2381 1436 2309
Q 1553 2238 1856 2203
L 2053 2175
Q 2913 2066 3209 1816
Q 3506 1566 3506 1031
Q 3506 472 3093 190
Q 2681 -91 1863 -91
Q 1516 -91 1145 -36
Q 775 19 384 128
L 384 978
Q 719 816 1070 734
Q 1422 653 1784 653
Q 2113 653 2278 743
Q 2444 834 2444 1013
Q 2444 1163 2330 1236
Q 2216 1309 1875 1350
L 1678 1375
Q 931 1469 631 1722
Q 331 1975 331 2491
Q 331 3047 712 3315
Q 1094 3584 1881 3584
Q 2191 3584 2531 3537
Q 2872 3491 3272 3391
z
" transform="scale(0.015625)"/>
      <path id="DejaVuSans-Bold-75" d="M 500 1363
L 500 3500
L 1625 3500
L 1625 3150
Q 1625 2866 1622 2436
Q 1619 2006 1619 1863
Q 1619 1441 1641 1255
Q 1663 1069 1716 984
Q 1784 875 1895 815
Q 2006 756 2150 756
Q 2500 756 2700 1025
Q 2900 1294 2900 1772
L 2900 3500
L 4019 3500
L 4019 0
L 2900 0
L 2900 506
Q 2647 200 2364 54
Q 2081 -91 1741 -91
Q 1134 -91 817 281
Q 500 653 500 1363
z
" transform="scale(0.015625)"/>
     </defs>
     <use xlink:href="#DejaVuSans-Bold-61"/>
     <use xlink:href="#DejaVuSans-Bold-66" x="67.480469"/>
     <use xlink:href="#DejaVuSans-Bold-6e" x="110.986328"/>
     <use xlink:href="#DejaVuSans-Bold-69" x="182.177734"/>
     <use xlink:href="#DejaVuSans-Bold-2e" x="216.455078"/>
     <use xlink:href="#DejaVuSans-Bold-32" x="254.443359"/>
     <use xlink:href="#DejaVuSans-Bold-34" x="324.023438"/>
     <use xlink:href="#DejaVuSans-Bold-2e" x="393.603516"/>
     <use xlink:href="#DejaVuSans-Bold-32" x="431.591797"/>
     <use xlink:href="#DejaVuSans-Bold-2e" x="501.171875"/>
     <use xlink:href="#DejaVuSans-Bold-30" x="539.160156"/>
     <use xlink:href="#DejaVuSans-Bold-36" x="608.740234"/>
     <use xlink:href="#DejaVuSans-Bold-2e" x="678.320312"/>
     <use xlink:href="#DejaVuSans-Bold-31" x="716.308594"/>
     <use xlink:href="#DejaVuSans-Bold-64" x="785.888672"/>
     <use xlink:href="#DejaVuSans-Bold-42" x="857.470703"/>
     <use xlink:href="#DejaVuSans-Bold-61" x="933.691406"/>
     <use xlink:href="#DejaVuSans-Bold-6e" x="1001.171875"/>
     <use xlink:href="#DejaVuSans-Bold-64" x="1072.363281"/>
     <use xlink:href="#DejaVuSans-Bold-70" x="1143.945312"/>
     <use xlink:href="#DejaVuSans-Bold-61" x="1215.527344"/>
     <use xlink:href="#DejaVuSans-Bold-73" x="1283.007812"/>
     <use xlink:href="#DejaVuSans-Bold-73" x="1342.529297"/>
     <use xlink:href="#DejaVuSans-Bold-2e" x="1402.050781"/>
     <use xlink:href="#DejaVuSans-Bold-72" x="1440.039062"/>
     <use xlink:href="#DejaVuSans-Bold-75" x="1489.355469"/>
     <use xlink:href="#DejaVuSans-Bold-6e" x="1560.546875"/>
    </g>
   </g>
   <g id="text_10">
    <!-- afni -->
    <g style="fill: #667789" transform="translate(211.898063 204.930094) scale(0.056 -0.056)">
     <use xlink:href="#DejaVuSans-61"/>
     <use xlink:href="#DejaVuSans-66" x="61.279297"/>
     <use xlink:href="#DejaVuSans-6e" x="96.484375"/>
     <use xlink:href="#DejaVuSans-69" x="159.863281"/>
    </g>
   </g>
   <g id="text_11">
    <!-- ToolVersion -->
    <g style="fill: #536273" transform="translate(68.458175 56.452002) scale(0.062 -0.062)">
     <defs>
      <path id="DejaVuSans-Bold-56" d="M 31 4666
L 1241 4666
L 2478 1222
L 3713 4666
L 4922 4666
L 3194 0
L 1759 0
L 31 4666
z
" transform="scale(0.015625)"/>
      <path id="DejaVuSans-Bold-65" d="M 4031 1759
L 4031 1441
L 1416 1441
Q 1456 1047 1700 850
Q 1944 653 2381 653
Q 2734 653 3104 758
Q 3475 863 3866 1075
L 3866 213
Q 3469 63 3072 -14
Q 2675 -91 2278 -91
Q 1328 -91 801 392
Q 275 875 275 1747
Q 275 2603 792 3093
Q 1309 3584 2216 3584
Q 3041 3584 3536 3087
Q 4031 2591 4031 1759
z
M 2881 2131
Q 2881 2450 2695 2645
Q 2509 2841 2209 2841
Q 1884 2841 1681 2658
Q 1478 2475 1428 2131
L 2881 2131
z
" transform="scale(0.015625)"/>
     </defs>
     <use xlink:href="#DejaVuSans-Bold-54"/>
     <use xlink:href="#DejaVuSans-Bold-6f" x="54.962891"/>
     <use xlink:href="#DejaVuSans-Bold-6f" x="123.664062"/>
     <use xlink:href="#DejaVuSans-Bold-6c" x="192.365234"/>
     <use xlink:href="#DejaVuSans-Bold-56" x="226.642578"/>
     <use xlink:href="#DejaVuSans-Bold-65" x="298.535156"/>
     <use xlink:href="#DejaVuSans-Bold-72" x="366.357422"/>
     <use xlink:href="#DejaVuSans-Bold-73" x="415.673828"/>
     <use xlink:href="#DejaVuSans-Bold-69" x="475.195312"/>
     <use xlink:href="#DejaVuSans-Bold-6f" x="509.472656"/>
     <use xlink:href="#DejaVuSans-Bold-6e" x="578.173828"/>
    </g>
   </g>
   <g id="text_12">
    <!-- 24.2.06 -->
    <g style="fill: #101820" transform="translate(74.389511 96.164461) scale(0.067 -0.067)">
     <use xlink:href="#DejaVuSans-Bold-32"/>
     <use xlink:href="#DejaVuSans-Bold-34" x="69.580078"/>
     <use xlink:href="#DejaVuSans-Bold-2e" x="139.160156"/>
     <use xlink:href="#DejaVuSans-Bold-32" x="177.148438"/>
     <use xlink:href="#DejaVuSans-Bold-2e" x="246.728516"/>
     <use xlink:href="#DejaVuSans-Bold-30" x="284.716797"/>
     <use xlink:href="#DejaVuSans-Bold-36" x="354.296875"/>
    </g>
   </g>
   <g id="text_13">
    <!-- afni.24.2.06.1dBandpass.run@unknown -->
    <g style="fill: #667789" transform="translate(32.596675 136.777857) scale(0.056 -0.056)">
     <defs>
      <path id="DejaVuSans-32" d="M 1228 531
L 3431 531
L 3431 0
L 469 0
L 469 531
Q 828 903 1448 1529
Q 2069 2156 2228 2338
Q 2531 2678 2651 2914
Q 2772 3150 2772 3378
Q 2772 3750 2511 3984
Q 2250 4219 1831 4219
Q 1534 4219 1204 4116
Q 875 4013 500 3803
L 500 4441
Q 881 4594 1212 4672
Q 1544 4750 1819 4750
Q 2544 4750 2975 4387
Q 3406 4025 3406 3419
Q 3406 3131 3298 2873
Q 3191 2616 2906 2266
Q 2828 2175 2409 1742
Q 1991 1309 1228 531
z
" transform="scale(0.015625)"/>
      <path id="DejaVuSans-34" d="M 2419 4116
L 825 1625
L 2419 1625
L 2419 4116
z
M 2253 4666
L 3047 4666
L 3047 1625
L 3713 1625
L 3713 1100
L 3047 1100
L 3047 0
L 2419 0
L 2419 1100
L 313 1100
L 313 1709
L 2253 4666
z
" transform="scale(0.015625)"/>
      <path id="DejaVuSans-30" d="M 2034 4250
Q 1547 4250 1301 3770
Q 1056 3291 1056 2328
Q 1056 1369 1301 889
Q 1547 409 2034 409
Q 2525 409 2770 889
Q 3016 1369 3016 2328
Q 3016 3291 2770 3770
Q 2525 4250 2034 4250
z
M 2034 4750
Q 2819 4750 3233 4129
Q 3647 3509 3647 2328
Q 3647 1150 3233 529
Q 2819 -91 2034 -91
Q 1250 -91 836 529
Q 422 1150 422 2328
Q 422 3509 836 4129
Q 1250 4750 2034 4750
z
" transform="scale(0.015625)"/>
      <path id="DejaVuSans-36" d="M 2113 2584
Q 1688 2584 1439 2293
Q 1191 2003 1191 1497
Q 1191 994 1439 701
Q 1688 409 2113 409
Q 2538 409 2786 701
Q 3034 994 3034 1497
Q 3034 2003 2786 2293
Q 2538 2584 2113 2584
z
M 3366 4563
L 3366 3988
Q 3128 4100 2886 4159
Q 2644 4219 2406 4219
Q 1781 4219 1451 3797
Q 1122 3375 1075 2522
Q 1259 2794 1537 2939
Q 1816 3084 2150 3084
Q 2853 3084 3261 2657
Q 3669 2231 3669 1497
Q 3669 778 3244 343
Q 2819 -91 2113 -91
Q 1303 -91 875 529
Q 447 1150 447 2328
Q 447 3434 972 4092
Q 1497 4750 2381 4750
Q 2619 4750 2861 4703
Q 3103 4656 3366 4563
z
" transform="scale(0.015625)"/>
      <path id="DejaVuSans-31" d="M 794 531
L 1825 531
L 1825 4091
L 703 3866
L 703 4441
L 1819 4666
L 2450 4666
L 2450 531
L 3481 531
L 3481 0
L 794 0
L 794 531
z
" transform="scale(0.015625)"/>
      <path id="DejaVuSans-42" d="M 1259 2228
L 1259 519
L 2272 519
Q 2781 519 3026 730
Q 3272 941 3272 1375
Q 3272 1813 3026 2020
Q 2781 2228 2272 2228
L 1259 2228
z
M 1259 4147
L 1259 2741
L 2194 2741
Q 2656 2741 2882 2914
Q 3109 3088 3109 3444
Q 3109 3797 2882 3972
Q 2656 4147 2194 4147
L 1259 4147
z
M 628 4666
L 2241 4666
Q 2963 4666 3353 4366
Q 3744 4066 3744 3513
Q 3744 3084 3544 2831
Q 3344 2578 2956 2516
Q 3422 2416 3680 2098
Q 3938 1781 3938 1306
Q 3938 681 3513 340
Q 3088 0 2303 0
L 628 0
L 628 4666
z
" transform="scale(0.015625)"/>
      <path id="DejaVuSans-40" d="M 2381 1678
Q 2381 1231 2603 976
Q 2825 722 3213 722
Q 3597 722 3817 978
Q 4038 1234 4038 1678
Q 4038 2116 3813 2373
Q 3588 2631 3206 2631
Q 2828 2631 2604 2375
Q 2381 2119 2381 1678
z
M 4084 744
Q 3897 503 3655 389
Q 3413 275 3091 275
Q 2553 275 2217 664
Q 1881 1053 1881 1678
Q 1881 2303 2218 2693
Q 2556 3084 3091 3084
Q 3413 3084 3656 2967
Q 3900 2850 4084 2613
L 4084 3022
L 4531 3022
L 4531 722
Q 4988 791 5245 1139
Q 5503 1488 5503 2041
Q 5503 2375 5404 2669
Q 5306 2963 5106 3213
Q 4781 3622 4314 3839
Q 3847 4056 3297 4056
Q 2913 4056 2559 3954
Q 2206 3853 1906 3653
Q 1416 3334 1139 2817
Q 863 2300 863 1697
Q 863 1200 1042 765
Q 1222 331 1563 0
Q 1891 -325 2322 -495
Q 2753 -666 3244 -666
Q 3647 -666 4036 -530
Q 4425 -394 4750 -141
L 5031 -488
Q 4641 -791 4180 -952
Q 3719 -1113 3244 -1113
Q 2666 -1113 2153 -908
Q 1641 -703 1241 -313
Q 841 78 631 592
Q 422 1106 422 1697
Q 422 2266 634 2781
Q 847 3297 1241 3688
Q 1644 4084 2172 4295
Q 2700 4506 3291 4506
Q 3953 4506 4520 4234
Q 5088 3963 5472 3463
Q 5706 3156 5829 2797
Q 5953 2438 5953 2053
Q 5953 1231 5456 756
Q 4959 281 4084 263
L 4084 744
z
" transform="scale(0.015625)"/>
      <path id="DejaVuSans-6b" d="M 581 4863
L 1159 4863
L 1159 1991
L 2875 3500
L 3609 3500
L 1753 1863
L 3688 0
L 2938 0
L 1159 1709
L 1159 0
L 581 0
L 581 4863
z
" transform="scale(0.015625)"/>
      <path id="DejaVuSans-77" d="M 269 3500
L 844 3500
L 1563 769
L 2278 3500
L 2956 3500
L 3675 769
L 4391 3500
L 4966 3500
L 4050 0
L 3372 0
L 2619 2869
L 1863 0
L 1184 0
L 269 3500
z
" transform="scale(0.015625)"/>
     </defs>
     <use xlink:href="#DejaVuSans-61"/>
     <use xlink:href="#DejaVuSans-66" x="61.279297"/>
     <use xlink:href="#DejaVuSans-6e" x="96.484375"/>
     <use xlink:href="#DejaVuSans-69" x="159.863281"/>
     <use xlink:href="#DejaVuSans-2e" x="187.646484"/>
     <use xlink:href="#DejaVuSans-32" x="219.433594"/>
     <use xlink:href="#DejaVuSans-34" x="283.056641"/>
     <use xlink:href="#DejaVuSans-2e" x="346.679688"/>
     <use xlink:href="#DejaVuSans-32" x="378.466797"/>
     <use xlink:href="#DejaVuSans-2e" x="442.089844"/>
     <use xlink:href="#DejaVuSans-30" x="473.876953"/>
     <use xlink:href="#DejaVuSans-36" x="537.5"/>
     <use xlink:href="#DejaVuSans-2e" x="601.123047"/>
     <use xlink:href="#DejaVuSans-31" x="632.910156"/>
     <use xlink:href="#DejaVuSans-64" x="696.533203"/>
     <use xlink:href="#DejaVuSans-42" x="760.009766"/>
     <use xlink:href="#DejaVuSans-61" x="828.613281"/>
     <use xlink:href="#DejaVuSans-6e" x="889.892578"/>
     <use xlink:href="#DejaVuSans-64" x="953.271484"/>
     <use xlink:href="#DejaVuSans-70" x="1016.748047"/>
     <use xlink:href="#DejaVuSans-61" x="1080.224609"/>
     <use xlink:href="#DejaVuSans-73" x="1141.503906"/>
     <use xlink:href="#DejaVuSans-73" x="1193.603516"/>
     <use xlink:href="#DejaVuSans-2e" x="1245.703125"/>
     <use xlink:href="#DejaVuSans-72" x="1277.490234"/>
     <use xlink:href="#DejaVuSans-75" x="1318.603516"/>
     <use xlink:href="#DejaVuSans-6e" x="1381.982422"/>
     <use xlink:href="#DejaVuSans-40" x="1445.361328"/>
     <use xlink:href="#DejaVuSans-75" x="1545.361328"/>
     <use xlink:href="#DejaVuSans-6e" x="1608.740234"/>
     <use xlink:href="#DejaVuSans-6b" x="1672.119141"/>
     <use xlink:href="#DejaVuSans-6e" x="1730.029297"/>
     <use xlink:href="#DejaVuSans-6f" x="1793.408203"/>
     <use xlink:href="#DejaVuSans-77" x="1854.589844"/>
     <use xlink:href="#DejaVuSans-6e" x="1936.376953"/>
    </g>
   </g>
   <g id="text_14">
    <!-- ToolFamily -->
    <g style="fill: #536273" transform="translate(327.284731 56.403564) scale(0.062 -0.062)">
     <defs>
      <path id="DejaVuSans-Bold-46" d="M 588 4666
L 3834 4666
L 3834 3756
L 1791 3756
L 1791 2888
L 3713 2888
L 3713 1978
L 1791 1978
L 1791 0
L 588 0
L 588 4666
z
" transform="scale(0.015625)"/>
      <path id="DejaVuSans-Bold-6d" d="M 3781 2919
Q 3994 3244 4286 3414
Q 4578 3584 4928 3584
Q 5531 3584 5847 3212
Q 6163 2841 6163 2131
L 6163 0
L 5038 0
L 5038 1825
Q 5041 1866 5042 1909
Q 5044 1953 5044 2034
Q 5044 2406 4934 2573
Q 4825 2741 4581 2741
Q 4263 2741 4089 2478
Q 3916 2216 3909 1719
L 3909 0
L 2784 0
L 2784 1825
Q 2784 2406 2684 2573
Q 2584 2741 2328 2741
Q 2006 2741 1831 2477
Q 1656 2213 1656 1722
L 1656 0
L 531 0
L 531 3500
L 1656 3500
L 1656 2988
Q 1863 3284 2130 3434
Q 2397 3584 2719 3584
Q 3081 3584 3359 3409
Q 3638 3234 3781 2919
z
" transform="scale(0.015625)"/>
      <path id="DejaVuSans-Bold-79" d="M 78 3500
L 1197 3500
L 2138 1125
L 2938 3500
L 4056 3500
L 2584 -331
Q 2363 -916 2067 -1148
Q 1772 -1381 1288 -1381
L 641 -1381
L 641 -647
L 991 -647
Q 1275 -647 1404 -556
Q 1534 -466 1606 -231
L 1638 -134
L 78 3500
z
" transform="scale(0.015625)"/>
     </defs>
     <use xlink:href="#DejaVuSans-Bold-54"/>
     <use xlink:href="#DejaVuSans-Bold-6f" x="54.962891"/>
     <use xlink:href="#DejaVuSans-Bold-6f" x="123.664062"/>
     <use xlink:href="#DejaVuSans-Bold-6c" x="192.365234"/>
     <use xlink:href="#DejaVuSans-Bold-46" x="226.642578"/>
     <use xlink:href="#DejaVuSans-Bold-61" x="289.078125"/>
     <use xlink:href="#DejaVuSans-Bold-6d" x="356.558594"/>
     <use xlink:href="#DejaVuSans-Bold-69" x="460.757812"/>
     <use xlink:href="#DejaVuSans-Bold-6c" x="495.035156"/>
     <use xlink:href="#DejaVuSans-Bold-79" x="529.3125"/>
    </g>
   </g>
   <g id="text_15">
    <!-- preprocessing -->
    <g style="fill: #101820" transform="translate(318.86495 96.138289) scale(0.067 -0.067)">
     <defs>
      <path id="DejaVuSans-Bold-67" d="M 2919 594
Q 2688 288 2409 144
Q 2131 0 1766 0
Q 1125 0 706 504
Q 288 1009 288 1791
Q 288 2575 706 3076
Q 1125 3578 1766 3578
Q 2131 3578 2409 3434
Q 2688 3291 2919 2981
L 2919 3500
L 4044 3500
L 4044 353
Q 4044 -491 3511 -936
Q 2978 -1381 1966 -1381
Q 1638 -1381 1331 -1331
Q 1025 -1281 716 -1178
L 716 -306
Q 1009 -475 1290 -558
Q 1572 -641 1856 -641
Q 2406 -641 2662 -400
Q 2919 -159 2919 353
L 2919 594
z
M 2181 2772
Q 1834 2772 1640 2515
Q 1447 2259 1447 1791
Q 1447 1309 1634 1061
Q 1822 813 2181 813
Q 2531 813 2725 1069
Q 2919 1325 2919 1791
Q 2919 2259 2725 2515
Q 2531 2772 2181 2772
z
" transform="scale(0.015625)"/>
     </defs>
     <use xlink:href="#DejaVuSans-Bold-70"/>
     <use xlink:href="#DejaVuSans-Bold-72" x="71.582031"/>
     <use xlink:href="#DejaVuSans-Bold-65" x="120.898438"/>
     <use xlink:href="#DejaVuSans-Bold-70" x="188.720703"/>
     <use xlink:href="#DejaVuSans-Bold-72" x="260.302734"/>
     <use xlink:href="#DejaVuSans-Bold-6f" x="309.619141"/>
     <use xlink:href="#DejaVuSans-Bold-63" x="378.320312"/>
     <use xlink:href="#DejaVuSans-Bold-65" x="437.597656"/>
     <use xlink:href="#DejaVuSans-Bold-73" x="505.419922"/>
     <use xlink:href="#DejaVuSans-Bold-73" x="564.941406"/>
     <use xlink:href="#DejaVuSans-Bold-69" x="624.462891"/>
     <use xlink:href="#DejaVuSans-Bold-6e" x="658.740234"/>
     <use xlink:href="#DejaVuSans-Bold-67" x="729.931641"/>
    </g>
   </g>
   <g id="text_16">
    <!-- analysis family -->
    <g style="fill: #667789" transform="translate(324.846888 136.777857) scale(0.056 -0.056)">
     <use xlink:href="#DejaVuSans-61"/>
     <use xlink:href="#DejaVuSans-6e" x="61.279297"/>
     <use xlink:href="#DejaVuSans-61" x="124.658203"/>
     <use xlink:href="#DejaVuSans-6c" x="185.9375"/>
     <use xlink:href="#DejaVuSans-79" x="213.720703"/>
     <use xlink:href="#DejaVuSans-73" x="272.900391"/>
     <use xlink:href="#DejaVuSans-69" x="325"/>
     <use xlink:href="#DejaVuSans-73" x="352.783203"/>
     <use xlink:href="#DejaVuSans-20" x="404.882812"/>
     <use xlink:href="#DejaVuSans-66" x="436.669922"/>
     <use xlink:href="#DejaVuSans-61" x="471.875"/>
     <use xlink:href="#DejaVuSans-6d" x="533.154297"/>
     <use xlink:href="#DejaVuSans-69" x="630.566406"/>
     <use xlink:href="#DejaVuSans-6c" x="658.349609"/>
     <use xlink:href="#DejaVuSans-79" x="686.132812"/>
    </g>
   </g>
   <g id="text_17">
    <!-- Modality -->
    <g style="fill: #536273" transform="translate(73.435128 209.884884) scale(0.062 -0.062)">
     <defs>
      <path id="DejaVuSans-Bold-4d" d="M 588 4666
L 2119 4666
L 3181 2169
L 4250 4666
L 5778 4666
L 5778 0
L 4641 0
L 4641 3413
L 3566 897
L 2803 897
L 1728 3413
L 1728 0
L 588 0
L 588 4666
z
" transform="scale(0.015625)"/>
     </defs>
     <use xlink:href="#DejaVuSans-Bold-4d"/>
     <use xlink:href="#DejaVuSans-Bold-6f" x="99.511719"/>
     <use xlink:href="#DejaVuSans-Bold-64" x="168.212891"/>
     <use xlink:href="#DejaVuSans-Bold-61" x="239.794922"/>
     <use xlink:href="#DejaVuSans-Bold-6c" x="307.275391"/>
     <use xlink:href="#DejaVuSans-Bold-69" x="341.552734"/>
     <use xlink:href="#DejaVuSans-Bold-74" x="375.830078"/>
     <use xlink:href="#DejaVuSans-Bold-79" x="423.632812"/>
    </g>
   </g>
   <g id="text_18">
    <!-- fmri -->
    <g style="fill: #101820" transform="translate(80.840355 249.645781) scale(0.067 -0.067)">
     <use xlink:href="#DejaVuSans-Bold-66"/>
     <use xlink:href="#DejaVuSans-Bold-6d" x="43.505859"/>
     <use xlink:href="#DejaVuSans-Bold-72" x="147.705078"/>
     <use xlink:href="#DejaVuSans-Bold-69" x="197.021484"/>
    </g>
   </g>
   <g id="text_19">
    <!-- supported modality -->
    <g style="fill: #667789" transform="translate(61.203488 290.259177) scale(0.056 -0.056)">
     <use xlink:href="#DejaVuSans-73"/>
     <use xlink:href="#DejaVuSans-75" x="52.099609"/>
     <use xlink:href="#DejaVuSans-70" x="115.478516"/>
     <use xlink:href="#DejaVuSans-70" x="178.955078"/>
     <use xlink:href="#DejaVuSans-6f" x="242.431641"/>
     <use xlink:href="#DejaVuSans-72" x="303.613281"/>
     <use xlink:href="#DejaVuSans-74" x="344.726562"/>
     <use xlink:href="#DejaVuSans-65" x="383.935547"/>
     <use xlink:href="#DejaVuSans-64" x="445.458984"/>
     <use xlink:href="#DejaVuSans-20" x="508.935547"/>
     <use xlink:href="#DejaVuSans-6d" x="540.722656"/>
     <use xlink:href="#DejaVuSans-6f" x="638.134766"/>
     <use xlink:href="#DejaVuSans-64" x="699.316406"/>
     <use xlink:href="#DejaVuSans-61" x="762.792969"/>
     <use xlink:href="#DejaVuSans-6c" x="824.072266"/>
     <use xlink:href="#DejaVuSans-69" x="851.855469"/>
     <use xlink:href="#DejaVuSans-74" x="879.638672"/>
     <use xlink:href="#DejaVuSans-79" x="918.847656"/>
    </g>
   </g>
   <g id="text_20">
    <!-- Property -->
    <g style="fill: #536273" transform="translate(330.431716 209.884884) scale(0.062 -0.062)">
     <defs>
      <path id="DejaVuSans-Bold-50" d="M 588 4666
L 2584 4666
Q 3475 4666 3951 4270
Q 4428 3875 4428 3144
Q 4428 2409 3951 2014
Q 3475 1619 2584 1619
L 1791 1619
L 1791 0
L 588 0
L 588 4666
z
M 1791 3794
L 1791 2491
L 2456 2491
Q 2806 2491 2997 2661
Q 3188 2831 3188 3144
Q 3188 3456 2997 3625
Q 2806 3794 2456 3794
L 1791 3794
z
" transform="scale(0.015625)"/>
     </defs>
     <use xlink:href="#DejaVuSans-Bold-50"/>
     <use xlink:href="#DejaVuSans-Bold-72" x="73.291016"/>
     <use xlink:href="#DejaVuSans-Bold-6f" x="122.607422"/>
     <use xlink:href="#DejaVuSans-Bold-70" x="191.308594"/>
     <use xlink:href="#DejaVuSans-Bold-65" x="262.890625"/>
     <use xlink:href="#DejaVuSans-Bold-72" x="330.712891"/>
     <use xlink:href="#DejaVuSans-Bold-74" x="380.029297"/>
     <use xlink:href="#DejaVuSans-Bold-79" x="427.832031"/>
    </g>
   </g>
   <g id="text_21">
    <!-- capabilities.merged.yaml -->
    <g style="fill: #101820" transform="translate(297.839513 249.619609) scale(0.067 -0.067)">
     <defs>
      <path id="DejaVuSans-Bold-62" d="M 2400 722
Q 2759 722 2948 984
Q 3138 1247 3138 1747
Q 3138 2247 2948 2509
Q 2759 2772 2400 2772
Q 2041 2772 1848 2508
Q 1656 2244 1656 1747
Q 1656 1250 1848 986
Q 2041 722 2400 722
z
M 1656 2988
Q 1888 3294 2169 3439
Q 2450 3584 2816 3584
Q 3463 3584 3878 3070
Q 4294 2556 4294 1747
Q 4294 938 3878 423
Q 3463 -91 2816 -91
Q 2450 -91 2169 54
Q 1888 200 1656 506
L 1656 0
L 538 0
L 538 4863
L 1656 4863
L 1656 2988
z
" transform="scale(0.015625)"/>
     </defs>
     <use xlink:href="#DejaVuSans-Bold-63"/>
     <use xlink:href="#DejaVuSans-Bold-61" x="59.277344"/>
     <use xlink:href="#DejaVuSans-Bold-70" x="126.757812"/>
     <use xlink:href="#DejaVuSans-Bold-61" x="198.339844"/>
     <use xlink:href="#DejaVuSans-Bold-62" x="265.820312"/>
     <use xlink:href="#DejaVuSans-Bold-69" x="337.402344"/>
     <use xlink:href="#DejaVuSans-Bold-6c" x="371.679688"/>
     <use xlink:href="#DejaVuSans-Bold-69" x="405.957031"/>
     <use xlink:href="#DejaVuSans-Bold-74" x="440.234375"/>
     <use xlink:href="#DejaVuSans-Bold-69" x="488.037109"/>
     <use xlink:href="#DejaVuSans-Bold-65" x="522.314453"/>
     <use xlink:href="#DejaVuSans-Bold-73" x="590.136719"/>
     <use xlink:href="#DejaVuSans-Bold-2e" x="649.658203"/>
     <use xlink:href="#DejaVuSans-Bold-6d" x="687.646484"/>
     <use xlink:href="#DejaVuSans-Bold-65" x="791.845703"/>
     <use xlink:href="#DejaVuSans-Bold-72" x="859.667969"/>
     <use xlink:href="#DejaVuSans-Bold-67" x="908.984375"/>
     <use xlink:href="#DejaVuSans-Bold-65" x="980.566406"/>
     <use xlink:href="#DejaVuSans-Bold-64" x="1048.388672"/>
     <use xlink:href="#DejaVuSans-Bold-2e" x="1119.970703"/>
     <use xlink:href="#DejaVuSans-Bold-79" x="1157.958984"/>
     <use xlink:href="#DejaVuSans-Bold-61" x="1223.144531"/>
     <use xlink:href="#DejaVuSans-Bold-6d" x="1290.625"/>
     <use xlink:href="#DejaVuSans-Bold-6c" x="1394.824219"/>
    </g>
   </g>
   <g id="text_22">
    <!-- tool registry source -->
    <g style="fill: #667789" transform="translate(318.605513 290.259177) scale(0.056 -0.056)">
     <defs>
      <path id="DejaVuSans-67" d="M 2906 1791
Q 2906 2416 2648 2759
Q 2391 3103 1925 3103
Q 1463 3103 1205 2759
Q 947 2416 947 1791
Q 947 1169 1205 825
Q 1463 481 1925 481
Q 2391 481 2648 825
Q 2906 1169 2906 1791
z
M 3481 434
Q 3481 -459 3084 -895
Q 2688 -1331 1869 -1331
Q 1566 -1331 1297 -1286
Q 1028 -1241 775 -1147
L 775 -588
Q 1028 -725 1275 -790
Q 1522 -856 1778 -856
Q 2344 -856 2625 -561
Q 2906 -266 2906 331
L 2906 616
Q 2728 306 2450 153
Q 2172 0 1784 0
Q 1141 0 747 490
Q 353 981 353 1791
Q 353 2603 747 3093
Q 1141 3584 1784 3584
Q 2172 3584 2450 3431
Q 2728 3278 2906 2969
L 2906 3500
L 3481 3500
L 3481 434
z
" transform="scale(0.015625)"/>
     </defs>
     <use xlink:href="#DejaVuSans-74"/>
     <use xlink:href="#DejaVuSans-6f" x="39.208984"/>
     <use xlink:href="#DejaVuSans-6f" x="100.390625"/>
     <use xlink:href="#DejaVuSans-6c" x="161.572266"/>
     <use xlink:href="#DejaVuSans-20" x="189.355469"/>
     <use xlink:href="#DejaVuSans-72" x="221.142578"/>
     <use xlink:href="#DejaVuSans-65" x="260.005859"/>
     <use xlink:href="#DejaVuSans-67" x="321.529297"/>
     <use xlink:href="#DejaVuSans-69" x="385.005859"/>
     <use xlink:href="#DejaVuSans-73" x="412.789062"/>
     <use xlink:href="#DejaVuSans-74" x="464.888672"/>
     <use xlink:href="#DejaVuSans-72" x="504.097656"/>
     <use xlink:href="#DejaVuSans-79" x="545.210938"/>
     <use xlink:href="#DejaVuSans-20" x="604.390625"/>
     <use xlink:href="#DejaVuSans-73" x="636.177734"/>
     <use xlink:href="#DejaVuSans-6f" x="688.277344"/>
     <use xlink:href="#DejaVuSans-75" x="749.458984"/>
     <use xlink:href="#DejaVuSans-72" x="812.837891"/>
     <use xlink:href="#DejaVuSans-63" x="851.701172"/>
     <use xlink:href="#DejaVuSans-65" x="906.681641"/>
    </g>
   </g>
  </g>
 </g>
 <defs>
  <clipPath id="p2469c1d968">
   <rect x="2.88" y="2.88" width="428.544" height="326.556"/>
  </clipPath>
 </defs>
</svg>
